<svg width="44" height="48" viewBox="0 0 44 48" fill="none" xmlns="http://www.w3.org/2000/svg">
<g clip-path="url(#clip0_37_3427)">
<path d="M43.6227 37.9694C43.5053 37.8649 43.3674 37.7861 43.2178 37.7383C43.0682 37.6904 42.9102 37.6744 42.7541 37.6914L41.2233 37.5559V29.0652C41.2233 28.7941 41.1163 28.5341 40.9256 28.3418C40.7348 28.1494 40.4759 28.0405 40.2052 28.0386H31.7968C31.5249 28.0386 31.2641 28.1468 31.0718 28.3393C30.8795 28.5318 30.7715 28.7929 30.7715 29.0652V37.5559L29.2265 37.6842C28.9375 37.6616 28.6506 37.7481 28.422 37.9266C28.1895 38.1152 28.041 38.3883 28.0089 38.6862C27.9769 38.9841 28.064 39.2826 28.2511 39.5164L34.7088 47.5794C34.8117 47.7061 34.9406 47.8093 35.0867 47.8819C35.2329 47.9544 35.3929 47.9947 35.556 48H35.5916C35.7497 47.9999 35.906 47.967 36.0506 47.9031C36.1953 47.8393 36.3251 47.746 36.4317 47.6293L43.7081 39.5663C43.9076 39.3429 44.0106 39.0494 43.9946 38.7502C43.9786 38.4509 43.8448 38.1702 43.6227 37.9694Z" fill="white"/>
<path d="M27.8738 1.42578V7.69221C27.9 8.17242 28.0631 8.63506 28.3437 9.02535C28.6211 9.41646 29.0038 9.72059 29.4472 9.90225L35.9974 9.93789" fill="white"/>
<path d="M1.48096 14.2295V26.1422H36.4674V14.2295H1.48096ZM10.3237 22.8271H6.37934V16.7532H10.2952V17.6515H7.4473V19.3411H10.103V20.2393H7.47579V21.936H10.3237V22.8271ZM15.0868 22.8271L13.7127 20.5887H13.6628L12.2887 22.8271H11.0641L12.9865 19.7902L11.0855 16.7532H12.303L13.6628 19.006H13.7127L15.0797 16.7532H16.29L14.4175 19.7902L16.3185 22.8271H15.0868ZM18.0842 20.9807C18.2141 21.2734 18.427 21.5213 18.6965 21.6936C18.9602 21.8612 19.2671 21.9479 19.5793 21.9431C19.7555 21.9431 19.9307 21.9167 20.0991 21.8647C20.2564 21.8168 20.4053 21.7446 20.5405 21.6509C20.6692 21.5516 20.78 21.4311 20.868 21.2944C20.9569 21.1446 21.0195 20.9806 21.0531 20.8096H22.1211C22.084 21.0977 21.9922 21.376 21.8505 21.6295C21.7175 21.8832 21.5361 22.1085 21.3166 22.2925C21.0875 22.4884 20.8245 22.6407 20.5405 22.7416C20.227 22.8504 19.8969 22.9035 19.5651 22.8985C19.0655 22.9082 18.5728 22.78 18.1412 22.5277C17.7189 22.2719 17.3781 21.901 17.1586 21.4584C16.9043 20.9349 16.7798 20.3578 16.7955 19.7759C16.7787 19.1962 16.9033 18.6212 17.1586 18.1006C17.3782 17.6479 17.7245 17.269 18.1554 17.0098C18.5883 16.7606 19.0801 16.6326 19.5793 16.6391C19.8958 16.6373 20.2106 16.6854 20.512 16.7817C20.7934 16.8718 21.0562 17.0119 21.2881 17.1952C21.5161 17.381 21.707 17.6084 21.8505 17.8653C22.0012 18.1415 22.0979 18.444 22.1353 18.7565H21.0674C21.0373 18.5833 20.9771 18.4168 20.8894 18.2646C20.802 18.1254 20.6912 18.0024 20.5619 17.901C20.4282 17.8013 20.2791 17.7242 20.1205 17.6728C19.9517 17.6233 19.7765 17.5993 19.6007 17.6016C19.2857 17.5932 18.9756 17.6802 18.7107 17.8511C18.4421 18.0244 18.2294 18.272 18.0985 18.564C17.9403 18.9353 17.8649 19.3368 17.8777 19.7403C17.8602 20.1656 17.9381 20.5895 18.1056 20.9807H18.0842ZM27.0978 22.8271H23.1535V16.7532H27.0764V17.6515H24.2285V19.3411H26.8842V20.2393H24.2285V21.936H27.0764L27.0978 22.8271ZM31.9677 22.8271H28.2156V16.7532H29.2764V21.936H31.9677V22.8271Z" fill="white"/>
<path d="M29.3975 0H3.20394C2.36489 -2.12131e-06 1.5601 0.333234 0.966134 0.926639C0.37217 1.52005 0.03753 2.32516 0.0356445 3.16531V40.2864C0.0365785 40.702 0.119268 41.1134 0.278995 41.4971C0.438722 41.8808 0.672366 42.2292 0.966569 42.5225C1.26077 42.8157 1.60977 43.0481 1.99366 43.2063C2.37755 43.3645 2.78881 43.4455 3.20394 43.4445H28.0091L25.7237 40.5929H3.20394C3.1628 40.5939 3.12187 40.5867 3.0835 40.5718C3.04513 40.5569 3.01007 40.5346 2.98032 40.5061C2.95056 40.4776 2.9267 40.4435 2.91009 40.4058C2.89349 40.3681 2.88447 40.3276 2.88354 40.2864V3.16531C2.8854 3.08147 2.91998 3.00168 2.97986 2.94305C3.03974 2.88442 3.12019 2.85161 3.20394 2.85163H28.2156L34.6234 9.55292V26.1423H37.4713V8.41229L29.3975 0Z" fill="white"/>
</g>
<defs>
<clipPath id="clip0_37_3427">
<rect width="44" height="48" fill="white"/>
</clipPath>
</defs>
</svg>
