<svg width="199" height="49" viewBox="0 0 199 49" fill="none" xmlns="http://www.w3.org/2000/svg">
<path d="M72.8348 16.5614H62.2397V22.2467H71.5757V27.0205H62.2397V37.0718H57.251V11.7637H72.8348V16.5614Z" fill="white"/>
<path d="M79.8422 37.0718H74.9248V11.7637H79.8422V37.0718Z" fill="white"/>
<path d="M97.8971 37.0703H92.9796V34.5515C91.6255 36.4706 90.0101 37.4301 88.1809 37.4301C86.4468 37.4301 85.0927 36.8544 84.1425 35.7269C83.1922 34.5994 82.6934 33.0402 82.6934 31.0731V18.2871H87.6108V29.6098C87.6108 30.6893 87.8246 31.5049 88.276 32.0806C88.7273 32.6563 89.3687 32.9442 90.2002 32.9442C91.0554 32.9442 91.7206 32.6563 92.2194 32.0806C92.6945 31.5049 92.9559 30.6893 92.9559 29.6098V18.2871H97.8733V37.0703H97.8971Z" fill="white"/>
<path d="M105.926 16.2735H100.795V11.7637H105.926V16.2735ZM105.784 37.0718H100.866V18.2886H105.784V37.0718Z" fill="white"/>
<path d="M125.145 37.0718H120.227V34.481C118.897 36.4481 117.21 37.4316 115.191 37.4316C113.196 37.4316 111.509 36.616 110.131 34.9847C108.753 33.3535 108.064 31.0026 108.064 27.98V27.4283C108.064 24.3817 108.753 22.0548 110.107 20.4236C111.462 18.7924 113.172 17.9767 115.167 17.9767C117.139 17.9767 118.802 18.8883 120.204 20.7115V11.7637H125.121V37.0718H125.145ZM120.275 27.8841V27.4523C120.275 25.893 119.919 24.6216 119.23 23.6861C118.541 22.7505 117.662 22.2707 116.617 22.2707C115.571 22.2707 114.716 22.7505 114.003 23.6861C113.314 24.6216 112.958 25.893 112.958 27.4523V27.8841C112.958 29.4434 113.314 30.7148 114.003 31.6503C114.692 32.5859 115.571 33.0656 116.617 33.0656C117.662 33.0656 118.517 32.5859 119.23 31.6503C119.942 30.7148 120.275 29.4434 120.275 27.8841Z" fill="white"/>
<path d="M137.664 28.627H127.497V23.7812H137.664V28.627Z" fill="white"/>
<path d="M155.338 37.0709H140.515V11.7148H145.503V32.2492H155.315V37.0709H155.338Z" fill="white"/>
<path d="M162.252 16.2735H157.097V11.7637H162.228V16.2735H162.252ZM162.109 37.0718H157.192V18.2886H162.109V37.0718Z" fill="white"/>
<path d="M180.282 37.0707H175.365V25.7481C175.365 24.6686 175.127 23.8529 174.676 23.2772C174.224 22.7015 173.559 22.4136 172.728 22.4136C171.873 22.4136 171.207 22.7015 170.709 23.2772C170.233 23.8529 169.972 24.6686 169.972 25.7481V37.0707H165.055V18.2876H169.972V20.8064C171.326 18.8873 172.942 17.9277 174.771 17.9277C176.529 17.9277 177.883 18.5035 178.857 19.6309C179.807 20.7584 180.306 22.3177 180.306 24.2847V37.0707H180.282Z" fill="white"/>
<path d="M198.242 27.9065C198.242 28.5302 198.218 29.0819 198.171 29.5617H187.053C187.48 32.0565 188.835 33.3039 191.068 33.3039C192.517 33.3039 193.895 32.7282 195.201 31.5528L197.434 34.5753C195.724 36.4944 193.538 37.454 190.901 37.454C188.383 37.454 186.293 36.5664 184.63 34.8152C182.967 33.0641 182.159 30.7611 182.159 27.9065V27.5467C182.159 24.764 182.919 22.4611 184.463 20.6619C186.008 18.8627 187.956 17.9512 190.307 17.9512C192.849 17.9512 194.797 18.8867 196.175 20.7339C197.553 22.605 198.242 25.0039 198.242 27.9065ZM193.467 26.2273C193.348 24.9079 193.016 23.9004 192.469 23.1327C191.923 22.3891 191.21 22.0053 190.307 22.0053C189.405 22.0053 188.668 22.3651 188.098 23.0848C187.528 23.8044 187.172 24.8599 187.005 26.2033H193.467V26.2273Z" fill="white"/>
<path d="M0 0.0800781V48.9211H48.3668V0.0800781H0ZM10.3575 43.9554H5.05998V23.709H10.3575V43.9554ZM10.3575 12.6262V18.2635H5.05998V5.26164H13.7308C11.6641 7.08478 10.3575 9.72354 10.3575 12.6262ZM16.7241 43.9554V23.709H23.0669V18.2635H16.7241V12.6262C16.7241 10.4672 18.5295 8.74 20.7626 8.74H27.5567V35.6553C27.5567 39.1097 29.3384 42.1323 32.0228 43.9554H16.7241ZM43.1405 39.5655H37.7242C35.6099 39.5655 33.8995 37.8143 33.8995 35.6793V5.26164H43.1168V39.5655H43.1405Z" fill="white"/>
</svg>
