<svg width="49" height="37" viewBox="0 0 49 37" fill="none" xmlns="http://www.w3.org/2000/svg">
<g clip-path="url(#clip0_37_3406)">
<path d="M48.3957 20.7104C47.0605 18.8921 39.7664 9.76719 27.0052 8.78035C10.625 7.51637 1.0611 20.5143 0.660557 21.0618L-0.0281067 21.9743L0.590282 22.9206C6.35251 31.7482 15.9796 37.0001 25.5154 37.0001C27.6974 37.0011 29.8696 36.7191 31.9733 36.162C41.8113 33.5259 46.8146 25.6852 48.5011 22.434L48.9719 21.5282L48.3957 20.7104ZM24.356 14.6609C26.1488 14.6609 27.8683 15.3459 29.136 16.5654C30.4038 17.7848 31.116 19.4387 31.116 21.1632C31.116 22.8884 30.404 24.543 29.1365 25.7635C27.8689 26.984 26.1495 27.6706 24.356 27.6724C22.5618 27.6706 20.8416 26.9842 19.5729 25.7639C18.3043 24.5436 17.5907 22.889 17.5889 21.1632C17.5907 19.4381 18.3045 17.7842 19.5734 16.565C20.8422 15.3457 22.5624 14.6609 24.356 14.6609ZM31.0598 32.9108C21.4889 35.4725 10.632 31.0385 4.26544 22.096C6.05736 20.0074 11.1801 14.769 18.8467 12.8156C17.3861 13.7059 16.1829 14.9366 15.3487 16.3935C14.5146 17.8505 14.0766 19.4865 14.0753 21.1497C14.0772 23.7718 15.1609 26.286 17.0885 28.1401C19.0161 29.9942 21.6299 31.0367 24.356 31.0385C27.0808 31.0349 29.6928 29.9917 31.6189 28.1378C33.5449 26.2838 34.6277 23.7707 34.6296 21.1497C34.624 19.3828 34.1262 17.6497 33.1883 16.1305C32.2503 14.6113 30.9063 13.3617 29.296 12.5114C37.6653 14.0525 42.9497 19.4937 44.8892 21.8527C43.2097 24.7254 38.8388 30.8357 31.0598 32.9108Z" fill="white"/>
<path d="M24.3981 7.81366C24.7559 7.81366 25.0991 7.67694 25.3521 7.43356C25.6052 7.19018 25.7473 6.86009 25.7473 6.5159V1.29778C25.7473 0.95359 25.6052 0.623503 25.3521 0.380124C25.0991 0.136745 24.7559 1.21221e-10 24.3981 1.21221e-10C24.2213 -2.33136e-06 24.0461 0.0336279 23.8828 0.0989296C23.7195 0.164231 23.5713 0.259917 23.4465 0.380516C23.3218 0.501114 23.2231 0.644233 23.1561 0.801647C23.089 0.959061 23.055 1.12767 23.0559 1.29778V6.5159C23.055 6.68601 23.089 6.8546 23.1561 7.01202C23.2231 7.16943 23.3218 7.31255 23.4465 7.43315C23.5713 7.55375 23.7195 7.64945 23.8828 7.71475C24.0461 7.78006 24.2213 7.81366 24.3981 7.81366Z" fill="white"/>
<path d="M35.8804 10.4834C36.2123 10.6075 36.5817 10.6004 36.9081 10.4637C37.2345 10.3269 37.4916 10.0716 37.6231 9.75337L39.6048 4.89348C39.736 4.57348 39.7298 4.21646 39.5875 3.90086C39.4452 3.58527 39.1784 3.33692 38.8458 3.21042C38.6812 3.14822 38.5053 3.11796 38.3285 3.12135C38.1516 3.12475 37.9772 3.16173 37.8152 3.2302C37.6532 3.29867 37.5069 3.39726 37.3847 3.52031C37.2625 3.64335 37.1668 3.78842 37.1031 3.94717L35.1145 8.80706C34.9858 9.12711 34.9941 9.48316 35.1377 9.7973C35.2812 10.1114 35.5483 10.3581 35.8804 10.4834Z" fill="white"/>
<path d="M11.2574 9.74678C11.3904 10.0655 11.6488 10.3209 11.9763 10.4576C12.3039 10.5942 12.6743 10.6011 13.0071 10.4768C13.338 10.3502 13.6034 10.103 13.7456 9.789C13.8878 9.475 13.8951 9.11969 13.7661 8.80049L11.7844 3.94061C11.6528 3.62065 11.395 3.36369 11.0673 3.2257C10.7395 3.0877 10.3684 3.07985 10.0347 3.20385C9.70212 3.33036 9.43537 3.57868 9.29306 3.89428C9.15075 4.20987 9.14452 4.56689 9.27575 4.88689L11.2574 9.74678Z" fill="white"/>
</g>
<defs>
<clipPath id="clip0_37_3406">
<rect width="49" height="37" fill="white"/>
</clipPath>
</defs>
</svg>
