<svg width="49" height="38" viewBox="0 0 49 38" fill="none" xmlns="http://www.w3.org/2000/svg">
<g clip-path="url(#clip0_37_3411)">
<path d="M49 27.952V3.59633V3.36313C48.9179 2.80152 48.722 2.26422 48.4253 1.78644C48.1286 1.30866 47.7377 0.901192 47.2783 0.590733C46.6671 0.189703 45.9545 -0.0141267 45.2312 0.00515856H9.62986C9.12329 0.01812 8.62478 0.139445 8.16568 0.361504C7.70658 0.583563 7.2968 0.901565 6.96213 1.2955C6.3913 1.97983 6.07534 2.85277 6.07122 3.75698L6.0462 12.7116H45.992V28.0763C45.9958 28.2131 45.9533 28.3469 45.8718 28.4546C45.7611 28.5631 45.6139 28.6226 45.4614 28.6205H24.5V31.7556H45.4564C45.9591 31.7589 46.4569 31.6526 46.9174 31.4437C47.3778 31.2348 47.7907 30.9279 48.1291 30.543C48.7299 29.8271 49.0417 28.8994 49 27.952ZM9.07429 6.42573V3.76215C9.07477 3.61071 9.12609 3.46417 9.21944 3.34759C9.32986 3.22605 9.47939 3.15048 9.63987 3.13512H45.2212C45.3643 3.12335 45.507 3.16167 45.6266 3.24394C45.794 3.36828 45.9101 3.55326 45.9519 3.76215V6.42573H9.07429Z" fill="white"/>
<path d="M41.2221 19.0957H29.4651C28.868 19.0957 28.384 19.5968 28.384 20.215V22.293C28.384 22.9112 28.868 23.4124 29.4651 23.4124H41.2221C41.8191 23.4124 42.3032 22.9112 42.3032 22.293V20.215C42.3032 19.5968 41.8191 19.0957 41.2221 19.0957Z" fill="white"/>
<path d="M10.6559 15.9351C9.25653 15.9351 7.87088 16.2204 6.57805 16.7749C5.28522 17.3293 4.11053 18.142 3.12104 19.1664C2.13155 20.1909 1.34664 21.4071 0.81113 22.7457C0.275623 24.0842 0 25.5188 0 26.9677C-3.11509e-07 29.8942 1.12252 32.7009 3.12074 34.7707C5.11896 36.8405 7.8293 38.004 10.6559 38.0054C13.4825 38.004 16.1928 36.8405 18.191 34.7707C20.1892 32.7009 21.3118 29.8942 21.3118 26.9677C21.3118 25.5188 21.0361 24.0842 20.5006 22.7457C19.9651 21.4071 19.1802 20.1909 18.1907 19.1664C17.2012 18.142 16.0265 17.3293 14.7337 16.7749C13.4409 16.2204 12.0552 15.9351 10.6559 15.9351ZM9.68489 32.5695C9.39926 32.8607 9.0147 33.0245 8.61378 33.0255C8.21287 33.0245 7.82832 32.8607 7.5427 32.5695L3.20828 28.0766L5.35046 25.8587L8.61378 29.2426L16.1565 21.4539L18.2987 23.6719L9.68489 32.5695Z" fill="white"/>
</g>
<defs>
<clipPath id="clip0_37_3411">
<rect width="49" height="38" fill="white"/>
</clipPath>
</defs>
</svg>
