<svg width="45" height="50" viewBox="0 0 45 50" fill="none" xmlns="http://www.w3.org/2000/svg">
<g clip-path="url(#clip0_37_3420)">
<path d="M44.6141 39.5886C44.4941 39.4801 44.353 39.3984 44.2 39.3487C44.047 39.299 43.8854 39.2824 43.7258 39.3L42.1602 39.1594V30.3463C42.1602 30.065 42.0507 29.7951 41.8557 29.5955C41.6606 29.3958 41.3958 29.2827 41.1189 29.2808H32.5194C32.2419 29.2827 31.9763 29.3956 31.7801 29.595C31.5839 29.7944 31.4728 30.0643 31.4709 30.3463V39.1594L29.8908 39.2926C29.5953 39.2698 29.302 39.3595 29.068 39.5442C28.8302 39.7399 28.6783 40.0234 28.6455 40.3326C28.6128 40.6418 28.7018 40.9516 28.8932 41.1943L35.5049 49.5634C35.6091 49.6961 35.7408 49.804 35.8905 49.8794C36.0402 49.9549 36.2043 49.996 36.3714 50C36.533 50 36.6929 49.9657 36.8408 49.8995C36.9888 49.8332 37.1215 49.7364 37.2306 49.6152L44.7233 41.2461C44.9247 41.0114 45.0262 40.7051 45.0058 40.3944C44.9853 40.0837 44.8444 39.7939 44.6141 39.5886Z" fill="white"/>
<path d="M28.5073 1.47998V7.98433C28.5376 8.48205 28.704 8.96128 28.9878 9.36808C29.2716 9.77404 29.663 10.0897 30.1165 10.2783L36.8155 10.3153" fill="white"/>
<path d="M13.9442 17.8556C13.7166 17.747 13.4673 17.6938 13.216 17.7002H12.0801V20.1791H13.2233C13.4747 20.1867 13.7242 20.1334 13.9514 20.0238C14.1339 19.9211 14.2831 19.7669 14.381 19.5797C14.4705 19.3775 14.5153 19.1577 14.5121 18.936C14.5165 18.7141 14.4717 18.4941 14.381 18.2922C14.2829 18.1046 14.1304 17.9522 13.9442 17.8556Z" fill="white"/>
<path d="M20.1262 17.9963C19.7718 17.808 19.3754 17.7162 18.9757 17.7298H17.9272V22.4287H18.9393C19.3454 22.4451 19.7489 22.356 20.1117 22.1697C20.4362 21.998 20.6932 21.7186 20.8398 21.378C21.012 20.9667 21.094 20.5223 21.0801 20.0756C21.0934 19.6321 21.014 19.1907 20.8471 18.7806C20.6981 18.4458 20.4448 18.1701 20.1262 17.9963Z" fill="white"/>
<path d="M0 13.9116V27.1349H38.2719V13.9116H0ZM15.4223 20.0756C15.2482 20.4167 14.9732 20.6936 14.6359 20.8674C14.2367 21.0713 13.7937 21.1704 13.3471 21.1559H12.0583V23.4573H10.8932V16.7087H13.3617C13.806 16.6932 14.2469 16.7925 14.6432 16.9973C14.9758 17.1775 15.2492 17.4528 15.4296 17.7891C15.6092 18.1434 15.6993 18.5375 15.6918 18.936C15.6996 19.3331 15.6068 19.7255 15.4223 20.0756ZM21.8301 21.8885C21.5839 22.3796 21.1984 22.7844 20.7233 23.0503C20.19 23.3359 19.5929 23.4761 18.9903 23.4573H16.7622V16.7087H19.0413C19.6312 16.6917 20.2155 16.8293 20.7379 17.1083C21.2073 17.3769 21.5875 17.7813 21.8301 18.2701C22.097 18.8324 22.2268 19.4516 22.2087 20.0756C22.226 20.7019 22.0962 21.3233 21.8301 21.8885ZM27.6044 17.7003H24.5316V19.5798H27.3058V20.6158H24.5316V23.4943H23.3665V16.7457H27.6044V17.7003Z" fill="white"/>
<path d="M30.0655 0H3.21845C2.36033 -2.20185e-06 1.53725 0.345885 0.929787 0.961821C0.322323 1.57776 -0.0199222 2.41344 -0.0218506 3.28548V41.8159C-0.0208954 42.2474 0.0636736 42.6744 0.227031 43.0726C0.390388 43.4708 0.629342 43.8325 0.930231 44.1369C1.23112 44.4413 1.58805 44.6825 1.98067 44.8467C2.37328 45.0109 2.79388 45.095 3.21845 45.094H28.5947L26.2573 42.1341H3.21845C3.17637 42.1351 3.13452 42.1276 3.09528 42.1121C3.05603 42.0967 3.02017 42.0735 2.98975 42.044C2.95932 42.0144 2.93491 41.9791 2.91793 41.9399C2.90094 41.9008 2.89172 41.8587 2.89077 41.8159V3.28548C2.89267 3.19846 2.92803 3.11564 2.98928 3.05478C3.05052 2.99393 3.13279 2.95987 3.21845 2.95989H28.7985L35.3519 9.91562V27.1348H38.2646V8.73168L30.0655 0Z" fill="white"/>
</g>
<defs>
<clipPath id="clip0_37_3420">
<rect width="45" height="50" fill="white"/>
</clipPath>
</defs>
</svg>
