<svg width="50" height="49" viewBox="0 0 50 49" fill="none" xmlns="http://www.w3.org/2000/svg">
<g clip-path="url(#clip0_37_3415)">
<path d="M14.9076 22.2651H7.59012C6.89007 22.2651 6.32257 22.8283 6.32257 23.523V23.8888C6.32257 24.5835 6.89007 25.1466 7.59012 25.1466H14.9076C15.6076 25.1466 16.1751 24.5835 16.1751 23.8888V23.523C16.1751 22.8283 15.6076 22.2651 14.9076 22.2651Z" fill="white"/>
<path d="M44.1319 16.6925H41.5211V0H8.0093V16.6925H5.84791C4.29375 16.6951 2.80401 17.309 1.70506 18.3995C0.6061 19.49 -0.0124663 20.9683 -0.0151367 22.5105V34.9234C-0.0144738 35.6888 0.138092 36.4465 0.433858 37.1533C0.729624 37.8602 1.1628 38.5023 1.70864 39.043C2.25448 39.5837 2.9023 40.0125 3.61512 40.3048C4.32793 40.597 5.09178 40.7471 5.86306 40.7465H8.02445V49.0201H41.5211V40.7465H44.1168C45.6727 40.7451 47.1645 40.1312 48.2647 39.0395C49.3648 37.9477 49.9835 36.4674 49.9849 34.9234V22.4905C49.9769 20.9535 49.3573 19.4818 48.2611 18.3959C47.1649 17.31 45.6808 16.6977 44.1319 16.6925ZM10.297 2.28011H39.2587V16.6925H10.297V2.28011ZM10.297 46.76V34.4072H39.2587V46.76H10.297ZM47.7225 34.9234C47.7211 35.868 47.3424 36.7734 46.6693 37.4414C45.9963 38.1093 45.0838 38.4851 44.1319 38.4864H41.5211V34.4273H42.1018C42.4371 34.4273 42.7588 34.2955 42.9963 34.0607C43.2339 33.8259 43.368 33.5072 43.3694 33.1745V32.8036C43.368 32.4704 43.2341 32.1513 42.9966 31.9157C42.7592 31.6801 42.4376 31.5471 42.1018 31.5458H7.58511C7.24981 31.5471 6.92869 31.6803 6.69207 31.916C6.45545 32.1517 6.32261 32.4709 6.32261 32.8036V33.1745C6.32261 33.5067 6.45562 33.8254 6.69238 34.0603C6.92914 34.2953 7.25027 34.4273 7.58511 34.4273H8.02445V38.4864H5.86306C4.91119 38.4851 3.9987 38.1093 3.32563 37.4414C2.65256 36.7734 2.27385 35.868 2.27251 34.9234V22.4905C2.27385 21.5459 2.65256 20.6404 3.32563 19.9725C3.9987 19.3046 4.91119 18.9288 5.86306 18.9275H44.1319C45.0838 18.9288 45.9963 19.3046 46.6693 19.9725C47.3424 20.6404 47.7211 21.5459 47.7225 22.4905V34.9234Z" fill="white"/>
<path d="M34.7339 36.8777H15.3419C15.0066 36.879 14.6855 37.0121 14.4489 37.2479C14.2123 37.4836 14.0794 37.8028 14.0794 38.1355C14.0794 38.4678 14.2124 38.7864 14.4492 39.0214C14.6859 39.2563 15.0071 39.3883 15.3419 39.3883H34.7339C35.0692 39.3883 35.3908 39.2565 35.6284 39.0217C35.866 38.7869 36.0001 38.4682 36.0014 38.1355C36.0001 37.8023 35.8661 37.4832 35.6287 37.2475C35.3913 37.0119 35.0696 36.879 34.7339 36.8777Z" fill="white"/>
<path d="M34.7339 41.448H15.3419C15.0066 41.4493 14.6855 41.5824 14.4489 41.8182C14.2123 42.0539 14.0794 42.3731 14.0794 42.7058C14.0807 43.0377 14.2142 43.3556 14.4507 43.5902C14.6871 43.8249 15.0075 43.9573 15.3419 43.9586H34.7339C35.0688 43.9573 35.3897 43.8251 35.6269 43.5905C35.8642 43.356 35.9988 43.0381 36.0014 42.7058C36.0001 42.3726 35.8661 42.0535 35.6287 41.8179C35.3913 41.5823 35.0696 41.4493 34.7339 41.448Z" fill="white"/>
</g>
<defs>
<clipPath id="clip0_37_3415">
<rect width="50" height="49" fill="white"/>
</clipPath>
</defs>
</svg>
