<svg width="118" height="118" viewBox="0 0 118 118" fill="none" xmlns="http://www.w3.org/2000/svg">
<path d="M52.1062 0.379395H47.2759V5.20974H52.1062V0.379395Z" fill="white"/>
<path d="M56.7958 0.379395H51.9655V5.20974H56.7958V0.379395Z" fill="white"/>
<path d="M61.4855 0.379395H56.6552V5.20974H61.4855V0.379395Z" fill="white"/>
<path d="M75.5545 0.379395H70.7241V5.20974H75.5545V0.379395Z" fill="white"/>
<path d="M80.244 0.379395H75.4137V5.20974H80.244V0.379395Z" fill="white"/>
<path d="M56.7958 5.06909H51.9655V9.89944H56.7958V5.06909Z" fill="white"/>
<path d="M66.1752 5.06909H61.3448V9.89944H66.1752V5.06909Z" fill="white"/>
<path d="M70.8648 5.06909H66.0344V9.89944H70.8648V5.06909Z" fill="white"/>
<path d="M75.5545 5.06909H70.7241V9.89944H75.5545V5.06909Z" fill="white"/>
<path d="M42.7268 9.75879H37.8965V14.5891H42.7268V9.75879Z" fill="white"/>
<path d="M75.5545 9.75879H70.7241V14.5891H75.5545V9.75879Z" fill="white"/>
<path d="M42.7268 14.4482H37.8965V19.2786H42.7268V14.4482Z" fill="white"/>
<path d="M52.1062 14.4482H47.2759V19.2786H52.1062V14.4482Z" fill="white"/>
<path d="M56.7958 14.4482H51.9655V19.2786H56.7958V14.4482Z" fill="white"/>
<path d="M66.1752 14.4482H61.3448V19.2786H66.1752V14.4482Z" fill="white"/>
<path d="M70.8648 14.4482H66.0344V19.2786H70.8648V14.4482Z" fill="white"/>
<path d="M80.244 14.4482H75.4137V19.2786H80.244V14.4482Z" fill="white"/>
<path d="M42.7268 19.1379H37.8965V23.9683H42.7268V19.1379Z" fill="white"/>
<path d="M47.4165 19.1379H42.5862V23.9683H47.4165V19.1379Z" fill="white"/>
<path d="M56.7958 19.1379H51.9655V23.9683H56.7958V19.1379Z" fill="white"/>
<path d="M61.4855 19.1379H56.6552V23.9683H61.4855V19.1379Z" fill="white"/>
<path d="M66.1752 19.1379H61.3448V23.9683H66.1752V19.1379Z" fill="white"/>
<path d="M75.5545 19.1379H70.7241V23.9683H75.5545V19.1379Z" fill="white"/>
<path d="M80.244 19.1379H75.4137V23.9683H80.244V19.1379Z" fill="white"/>
<path d="M42.7268 23.8276H37.8965V28.658H42.7268V23.8276Z" fill="white"/>
<path d="M47.4165 23.8276H42.5862V28.658H47.4165V23.8276Z" fill="white"/>
<path d="M52.1062 23.8276H47.2759V28.658H52.1062V23.8276Z" fill="white"/>
<path d="M66.1752 23.8276H61.3448V28.658H66.1752V23.8276Z" fill="white"/>
<path d="M70.8648 23.8276H66.0344V28.658H70.8648V23.8276Z" fill="white"/>
<path d="M75.5545 23.8276H70.7241V28.658H75.5545V23.8276Z" fill="white"/>
<path d="M80.244 23.8276H75.4137V28.658H80.244V23.8276Z" fill="white"/>
<path d="M42.7268 28.5173H37.8965V33.3477H42.7268V28.5173Z" fill="white"/>
<path d="M52.1062 28.5173H47.2759V33.3477H52.1062V28.5173Z" fill="white"/>
<path d="M61.4855 28.5173H56.6552V33.3477H61.4855V28.5173Z" fill="white"/>
<path d="M70.8648 28.5173H66.0344V33.3477H70.8648V28.5173Z" fill="white"/>
<path d="M80.244 28.5173H75.4137V33.3477H80.244V28.5173Z" fill="white"/>
<path d="M42.7268 33.207H37.8965V38.0374H42.7268V33.207Z" fill="white"/>
<path d="M52.1062 33.207H47.2759V38.0374H52.1062V33.207Z" fill="white"/>
<path d="M5.20962 37.8967H0.379272V42.7271H5.20962V37.8967Z" fill="white"/>
<path d="M14.5889 37.8967H9.75854V42.7271H14.5889V37.8967Z" fill="white"/>
<path d="M19.2786 37.8967H14.4482V42.7271H19.2786V37.8967Z" fill="white"/>
<path d="M23.9683 37.8967H19.1379V42.7271H23.9683V37.8967Z" fill="white"/>
<path d="M28.6579 37.8967H23.8275V42.7271H28.6579V37.8967Z" fill="white"/>
<path d="M33.3476 37.8967H28.5172V42.7271H33.3476V37.8967Z" fill="white"/>
<path d="M70.8648 37.8967H66.0344V42.7271H70.8648V37.8967Z" fill="white"/>
<path d="M75.5545 37.8967H70.7241V42.7271H75.5545V37.8967Z" fill="white"/>
<path d="M80.244 37.8967H75.4137V42.7271H80.244V37.8967Z" fill="white"/>
<path d="M89.6234 37.8967H84.7931V42.7271H89.6234V37.8967Z" fill="white"/>
<path d="M94.313 37.8967H89.4827V42.7271H94.313V37.8967Z" fill="white"/>
<path d="M99.0027 37.8967H94.1724V42.7271H99.0027V37.8967Z" fill="white"/>
<path d="M103.692 37.8967H98.8621V42.7271H103.692V37.8967Z" fill="white"/>
<path d="M108.382 37.8967H103.552V42.7271H108.382V37.8967Z" fill="white"/>
<path d="M23.9683 42.5862H19.1379V47.4165H23.9683V42.5862Z" fill="white"/>
<path d="M28.6579 42.5862H23.8275V47.4165H28.6579V42.5862Z" fill="white"/>
<path d="M38.0373 42.5862H33.2069V47.4165H38.0373V42.5862Z" fill="white"/>
<path d="M47.4165 42.5862H42.5862V47.4165H47.4165V42.5862Z" fill="white"/>
<path d="M94.313 42.5862H89.4827V47.4165H94.313V42.5862Z" fill="white"/>
<path d="M113.072 42.5862H108.241V47.4165H113.072V42.5862Z" fill="white"/>
<path d="M5.20962 47.2759H0.379272V52.1062H5.20962V47.2759Z" fill="white"/>
<path d="M14.5889 47.2759H9.75854V52.1062H14.5889V47.2759Z" fill="white"/>
<path d="M19.2786 47.2759H14.4482V52.1062H19.2786V47.2759Z" fill="white"/>
<path d="M33.3476 47.2759H28.5172V52.1062H33.3476V47.2759Z" fill="white"/>
<path d="M42.7268 47.2759H37.8965V52.1062H42.7268V47.2759Z" fill="white"/>
<path d="M56.7958 47.2759H51.9655V52.1062H56.7958V47.2759Z" fill="white"/>
<path d="M66.1752 47.2759H61.3448V52.1062H66.1752V47.2759Z" fill="white"/>
<path d="M75.5545 47.2759H70.7241V52.1062H75.5545V47.2759Z" fill="white"/>
<path d="M80.244 47.2759H75.4137V52.1062H80.244V47.2759Z" fill="white"/>
<path d="M99.0027 47.2759H94.1724V52.1062H99.0027V47.2759Z" fill="white"/>
<path d="M103.692 47.2759H98.8621V52.1062H103.692V47.2759Z" fill="white"/>
<path d="M113.072 47.2759H108.241V52.1062H113.072V47.2759Z" fill="white"/>
<path d="M117.761 47.2759H112.931V52.1062H117.761V47.2759Z" fill="white"/>
<path d="M5.20962 51.9656H0.379272V56.7959H5.20962V51.9656Z" fill="white"/>
<path d="M14.5889 51.9656H9.75854V56.7959H14.5889V51.9656Z" fill="white"/>
<path d="M23.9683 51.9656H19.1379V56.7959H23.9683V51.9656Z" fill="white"/>
<path d="M28.6579 51.9656H23.8275V56.7959H28.6579V51.9656Z" fill="white"/>
<path d="M38.0373 51.9656H33.2069V56.7959H38.0373V51.9656Z" fill="white"/>
<path d="M47.4165 51.9656H42.5862V56.7959H47.4165V51.9656Z" fill="white"/>
<path d="M56.7958 51.9656H51.9655V56.7959H56.7958V51.9656Z" fill="white"/>
<path d="M80.244 51.9656H75.4137V56.7959H80.244V51.9656Z" fill="white"/>
<path d="M84.9337 51.9656H80.1034V56.7959H84.9337V51.9656Z" fill="white"/>
<path d="M89.6234 51.9656H84.7931V56.7959H89.6234V51.9656Z" fill="white"/>
<path d="M117.761 51.9656H112.931V56.7959H117.761V51.9656Z" fill="white"/>
<path d="M5.20962 56.6553H0.379272V61.4856H5.20962V56.6553Z" fill="white"/>
<path d="M19.2786 56.6553H14.4482V61.4856H19.2786V56.6553Z" fill="white"/>
<path d="M23.9683 56.6553H19.1379V61.4856H23.9683V56.6553Z" fill="white"/>
<path d="M28.6579 56.6553H23.8275V61.4856H28.6579V56.6553Z" fill="white"/>
<path d="M33.3476 56.6553H28.5172V61.4856H33.3476V56.6553Z" fill="white"/>
<path d="M52.1062 56.6553H47.2759V61.4856H52.1062V56.6553Z" fill="white"/>
<path d="M66.1752 56.6553H61.3448V61.4856H66.1752V56.6553Z" fill="white"/>
<path d="M70.8648 56.6553H66.0344V61.4856H70.8648V56.6553Z" fill="white"/>
<path d="M84.9337 56.6553H80.1034V61.4856H84.9337V56.6553Z" fill="white"/>
<path d="M89.6234 56.6553H84.7931V61.4856H89.6234V56.6553Z" fill="white"/>
<path d="M99.0027 56.6553H94.1724V61.4856H99.0027V56.6553Z" fill="white"/>
<path d="M108.382 56.6553H103.552V61.4856H108.382V56.6553Z" fill="white"/>
<path d="M113.072 56.6553H108.241V61.4856H113.072V56.6553Z" fill="white"/>
<path d="M117.761 56.6553H112.931V61.4856H117.761V56.6553Z" fill="white"/>
<path d="M5.20962 61.345H0.379272V66.1753H5.20962V61.345Z" fill="white"/>
<path d="M9.89931 61.345H5.06897V66.1753H9.89931V61.345Z" fill="white"/>
<path d="M42.7268 61.345H37.8965V66.1753H42.7268V61.345Z" fill="white"/>
<path d="M61.4855 61.345H56.6552V66.1753H61.4855V61.345Z" fill="white"/>
<path d="M70.8648 61.345H66.0344V66.1753H70.8648V61.345Z" fill="white"/>
<path d="M84.9337 61.345H80.1034V66.1753H84.9337V61.345Z" fill="white"/>
<path d="M94.313 61.345H89.4827V66.1753H94.313V61.345Z" fill="white"/>
<path d="M103.692 61.345H98.8621V66.1753H103.692V61.345Z" fill="white"/>
<path d="M113.072 61.345H108.241V66.1753H113.072V61.345Z" fill="white"/>
<path d="M5.20962 66.0347H0.379272V70.865H5.20962V66.0347Z" fill="white"/>
<path d="M19.2786 66.0347H14.4482V70.865H19.2786V66.0347Z" fill="white"/>
<path d="M28.6579 66.0347H23.8275V70.865H28.6579V66.0347Z" fill="white"/>
<path d="M33.3476 66.0347H28.5172V70.865H33.3476V66.0347Z" fill="white"/>
<path d="M42.7268 66.0347H37.8965V70.865H42.7268V66.0347Z" fill="white"/>
<path d="M47.4165 66.0347H42.5862V70.865H47.4165V66.0347Z" fill="white"/>
<path d="M66.1752 66.0347H61.3448V70.865H66.1752V66.0347Z" fill="white"/>
<path d="M75.5545 66.0347H70.7241V70.865H75.5545V66.0347Z" fill="white"/>
<path d="M80.244 66.0347H75.4137V70.865H80.244V66.0347Z" fill="white"/>
<path d="M84.9337 66.0347H80.1034V70.865H84.9337V66.0347Z" fill="white"/>
<path d="M89.6234 66.0347H84.7931V70.865H89.6234V66.0347Z" fill="white"/>
<path d="M94.313 66.0347H89.4827V70.865H94.313V66.0347Z" fill="white"/>
<path d="M99.0027 66.0347H94.1724V70.865H99.0027V66.0347Z" fill="white"/>
<path d="M103.692 66.0347H98.8621V70.865H103.692V66.0347Z" fill="white"/>
<path d="M113.072 66.0347H108.241V70.865H113.072V66.0347Z" fill="white"/>
<path d="M117.761 66.0347H112.931V70.865H117.761V66.0347Z" fill="white"/>
<path d="M5.20962 70.7241H0.379272V75.5545H5.20962V70.7241Z" fill="white"/>
<path d="M14.5889 70.7241H9.75854V75.5545H14.5889V70.7241Z" fill="white"/>
<path d="M19.2786 70.7241H14.4482V75.5545H19.2786V70.7241Z" fill="white"/>
<path d="M23.9683 70.7241H19.1379V75.5545H23.9683V70.7241Z" fill="white"/>
<path d="M52.1062 70.7241H47.2759V75.5545H52.1062V70.7241Z" fill="white"/>
<path d="M61.4855 70.7241H56.6552V75.5545H61.4855V70.7241Z" fill="white"/>
<path d="M75.5545 70.7241H70.7241V75.5545H75.5545V70.7241Z" fill="white"/>
<path d="M89.6234 70.7241H84.7931V75.5545H89.6234V70.7241Z" fill="white"/>
<path d="M94.313 70.7241H89.4827V75.5545H94.313V70.7241Z" fill="white"/>
<path d="M99.0027 70.7241H94.1724V75.5545H99.0027V70.7241Z" fill="white"/>
<path d="M117.761 70.7241H112.931V75.5545H117.761V70.7241Z" fill="white"/>
<path d="M5.20962 75.4138H0.379272V80.2442H5.20962V75.4138Z" fill="white"/>
<path d="M33.3476 75.4138H28.5172V80.2442H33.3476V75.4138Z" fill="white"/>
<path d="M47.4165 75.4138H42.5862V80.2442H47.4165V75.4138Z" fill="white"/>
<path d="M61.4855 75.4138H56.6552V80.2442H61.4855V75.4138Z" fill="white"/>
<path d="M70.8648 75.4138H66.0344V80.2442H70.8648V75.4138Z" fill="white"/>
<path d="M80.244 75.4138H75.4137V80.2442H80.244V75.4138Z" fill="white"/>
<path d="M84.9337 75.4138H80.1034V80.2442H84.9337V75.4138Z" fill="white"/>
<path d="M89.6234 75.4138H84.7931V80.2442H89.6234V75.4138Z" fill="white"/>
<path d="M94.313 75.4138H89.4827V80.2442H94.313V75.4138Z" fill="white"/>
<path d="M99.0027 75.4138H94.1724V80.2442H99.0027V75.4138Z" fill="white"/>
<path d="M108.382 75.4138H103.552V80.2442H108.382V75.4138Z" fill="white"/>
<path d="M42.7268 80.1035H37.8965V84.9339H42.7268V80.1035Z" fill="white"/>
<path d="M70.8648 80.1035H66.0344V84.9339H70.8648V80.1035Z" fill="white"/>
<path d="M80.244 80.1035H75.4137V84.9339H80.244V80.1035Z" fill="white"/>
<path d="M99.0027 80.1035H94.1724V84.9339H99.0027V80.1035Z" fill="white"/>
<path d="M103.692 80.1035H98.8621V84.9339H103.692V80.1035Z" fill="white"/>
<path d="M56.7958 84.7932H51.9655V89.6236H56.7958V84.7932Z" fill="white"/>
<path d="M61.4855 84.7932H56.6552V89.6236H61.4855V84.7932Z" fill="white"/>
<path d="M66.1752 84.7932H61.3448V89.6236H66.1752V84.7932Z" fill="white"/>
<path d="M80.244 84.7932H75.4137V89.6236H80.244V84.7932Z" fill="white"/>
<path d="M89.6234 84.7932H84.7931V89.6236H89.6234V84.7932Z" fill="white"/>
<path d="M99.0027 84.7932H94.1724V89.6236H99.0027V84.7932Z" fill="white"/>
<path d="M108.382 84.7932H103.552V89.6236H108.382V84.7932Z" fill="white"/>
<path d="M113.072 84.7932H108.241V89.6236H113.072V84.7932Z" fill="white"/>
<path d="M117.761 84.7932H112.931V89.6236H117.761V84.7932Z" fill="white"/>
<path d="M42.7268 89.4829H37.8965V94.3133H42.7268V89.4829Z" fill="white"/>
<path d="M47.4165 89.4829H42.5862V94.3133H47.4165V89.4829Z" fill="white"/>
<path d="M52.1062 89.4829H47.2759V94.3133H52.1062V89.4829Z" fill="white"/>
<path d="M56.7958 89.4829H51.9655V94.3133H56.7958V89.4829Z" fill="white"/>
<path d="M80.244 89.4829H75.4137V94.3133H80.244V89.4829Z" fill="white"/>
<path d="M99.0027 89.4829H94.1724V94.3133H99.0027V89.4829Z" fill="white"/>
<path d="M103.692 89.4829H98.8621V94.3133H103.692V89.4829Z" fill="white"/>
<path d="M42.7268 94.1726H37.8965V99.003H42.7268V94.1726Z" fill="white"/>
<path d="M52.1062 94.1726H47.2759V99.003H52.1062V94.1726Z" fill="white"/>
<path d="M56.7958 94.1726H51.9655V99.003H56.7958V94.1726Z" fill="white"/>
<path d="M75.5545 94.1726H70.7241V99.003H75.5545V94.1726Z" fill="white"/>
<path d="M80.244 94.1726H75.4137V99.003H80.244V94.1726Z" fill="white"/>
<path d="M84.9337 94.1726H80.1034V99.003H84.9337V94.1726Z" fill="white"/>
<path d="M89.6234 94.1726H84.7931V99.003H89.6234V94.1726Z" fill="white"/>
<path d="M94.313 94.1726H89.4827V99.003H94.313V94.1726Z" fill="white"/>
<path d="M99.0027 94.1726H94.1724V99.003H99.0027V94.1726Z" fill="white"/>
<path d="M108.382 94.1726H103.552V99.003H108.382V94.1726Z" fill="white"/>
<path d="M113.072 94.1726H108.241V99.003H113.072V94.1726Z" fill="white"/>
<path d="M117.761 94.1726H112.931V99.003H117.761V94.1726Z" fill="white"/>
<path d="M42.7268 98.8621H37.8965V103.692H42.7268V98.8621Z" fill="white"/>
<path d="M61.4855 98.8621H56.6552V103.692H61.4855V98.8621Z" fill="white"/>
<path d="M66.1752 98.8621H61.3448V103.692H66.1752V98.8621Z" fill="white"/>
<path d="M75.5545 98.8621H70.7241V103.692H75.5545V98.8621Z" fill="white"/>
<path d="M89.6234 98.8621H84.7931V103.692H89.6234V98.8621Z" fill="white"/>
<path d="M99.0027 98.8621H94.1724V103.692H99.0027V98.8621Z" fill="white"/>
<path d="M103.692 98.8621H98.8621V103.692H103.692V98.8621Z" fill="white"/>
<path d="M108.382 98.8621H103.552V103.692H108.382V98.8621Z" fill="white"/>
<path d="M113.072 98.8621H108.241V103.692H113.072V98.8621Z" fill="white"/>
<path d="M117.761 98.8621H112.931V103.692H117.761V98.8621Z" fill="white"/>
<path d="M42.7268 103.552H37.8965V108.382H42.7268V103.552Z" fill="white"/>
<path d="M66.1752 103.552H61.3448V108.382H66.1752V103.552Z" fill="white"/>
<path d="M70.8648 103.552H66.0344V108.382H70.8648V103.552Z" fill="white"/>
<path d="M80.244 103.552H75.4137V108.382H80.244V103.552Z" fill="white"/>
<path d="M103.692 103.552H98.8621V108.382H103.692V103.552Z" fill="white"/>
<path d="M108.382 103.552H103.552V108.382H108.382V103.552Z" fill="white"/>
<path d="M117.761 103.552H112.931V108.382H117.761V103.552Z" fill="white"/>
<path d="M47.4165 108.241H42.5862V113.072H47.4165V108.241Z" fill="white"/>
<path d="M61.4855 108.241H56.6552V113.072H61.4855V108.241Z" fill="white"/>
<path d="M66.1752 108.241H61.3448V113.072H66.1752V108.241Z" fill="white"/>
<path d="M75.5545 108.241H70.7241V113.072H75.5545V108.241Z" fill="white"/>
<path d="M80.244 108.241H75.4137V113.072H80.244V108.241Z" fill="white"/>
<path d="M84.9337 108.241H80.1034V113.072H84.9337V108.241Z" fill="white"/>
<path d="M94.313 108.241H89.4827V113.072H94.313V108.241Z" fill="white"/>
<path d="M99.0027 108.241H94.1724V113.072H99.0027V108.241Z" fill="white"/>
<path d="M103.692 108.241H98.8621V113.072H103.692V108.241Z" fill="white"/>
<path d="M117.761 108.241H112.931V113.072H117.761V108.241Z" fill="white"/>
<path d="M42.7268 112.931H37.8965V117.761H42.7268V112.931Z" fill="white"/>
<path d="M47.4165 112.931H42.5862V117.761H47.4165V112.931Z" fill="white"/>
<path d="M61.4855 112.931H56.6552V117.761H61.4855V112.931Z" fill="white"/>
<path d="M70.8648 112.931H66.0344V117.761H70.8648V112.931Z" fill="white"/>
<path d="M94.313 112.931H89.4827V117.761H94.313V112.931Z" fill="white"/>
<path d="M99.0027 112.931H94.1724V117.761H99.0027V112.931Z" fill="white"/>
<path d="M103.692 112.931H98.8621V117.761H103.692V112.931Z" fill="white"/>
<path d="M108.382 112.931H103.552V117.761H108.382V112.931Z" fill="white"/>
<path d="M113.072 112.931H108.241V117.761H113.072V112.931Z" fill="white"/>
<path d="M117.761 112.931H112.931V117.761H117.761V112.931Z" fill="white"/>
<path d="M0.379272 0.379395V33.207H33.2069V0.379395H0.379272ZM28.5172 28.5173H5.06893V5.06905H28.5172V28.5173Z" fill="white"/>
<path d="M84.7931 0.379395V33.207H117.621V0.379395H84.7931ZM112.931 28.5173H89.4827V5.06905H112.931V28.5173Z" fill="white"/>
<path d="M0.379272 84.7932V117.621H33.2069V84.7932H0.379272ZM28.5172 112.931H5.06893V89.4829H28.5172V112.931Z" fill="white"/>
<path d="M23.8275 9.75879H9.75854V23.8278H23.8275V9.75879Z" fill="white"/>
<path d="M108.241 9.75879H94.1724V23.8278H108.241V9.75879Z" fill="white"/>
<path d="M23.8275 94.1726H9.75854V108.242H23.8275V94.1726Z" fill="white"/>
</svg>
