<svg width="28" height="49" viewBox="0 0 28 49" fill="none" xmlns="http://www.w3.org/2000/svg">
<path d="M25.6088 1.16543e-05C25.9235 -0.00180035 26.2355 0.0581781 26.5268 0.176552C26.8181 0.294922 27.0831 0.469307 27.3065 0.689762C27.5306 0.910889 27.7085 1.17401 27.8299 1.46387C27.9513 1.75373 28.0138 2.06464 28.0138 2.37865C28.0138 2.69266 27.9513 3.00343 27.8299 3.29329C27.7085 3.58315 27.5306 3.84627 27.3065 4.06739L6.76682 24.5L27.3065 44.9324C27.7519 45.3781 28.0018 45.981 28.0018 46.6094C28.0018 47.2378 27.7519 47.8407 27.3065 48.2864C26.8585 48.7294 26.2525 48.978 25.6208 48.978C24.9891 48.978 24.383 48.7294 23.935 48.2864L0.0238454 24.5L23.935 0.713574C24.3765 0.265404 24.9781 0.00894573 25.6088 1.16543e-05Z" fill="#454545"/>
</svg>
