<svg width="33" height="26" viewBox="0 0 33 26" xmlns="http://www.w3.org/2000/svg">
<path d="M16.7941 2.13896C18.67 0.69026 20.791 -0.0245896 23.1643 0.0152496C25.3263 0.0519384 27.4183 0.78821 29.1264 2.11367C30.8345 3.43913 32.0667 5.28235 32.6382 7.36695C34.0327 12.4578 31.2858 17.765 26.3002 19.4799C22.994 20.6167 19.8829 20.1173 17.0224 18.0995C16.9422 18.0434 16.8616 17.9886 16.7809 17.9329C16.7789 17.9232 16.7789 17.9132 16.7809 17.9035C17.1358 17.6239 17.4719 17.3214 17.7873 16.9981C18.6608 16.0889 19.3587 15.0262 19.8458 13.8635C20.2687 12.8562 20.5183 11.7848 20.584 10.6944C20.6592 9.4001 20.5143 8.12932 20.1017 6.89159C19.6704 5.58722 18.9756 4.38531 18.0604 3.36039C17.6705 2.91854 17.2271 2.53463 16.7941 2.13896Z" />
<path d="M16.7814 17.9038C16.7793 17.9135 16.7793 17.9236 16.7814 17.9333C15.996 18.5109 15.1663 19.0062 14.2546 19.3657C9.94604 21.0647 4.96993 19.5554 2.34803 15.7439C1.01919 13.8117 0.424061 11.6694 0.58575 9.33433C0.892371 4.92078 3.98031 1.42807 7.90704 0.379571C11.0475 -0.45841 13.9521 0.0948157 16.5912 2.00257C16.6519 2.04784 16.7084 2.09628 16.7673 2.14336C16.3199 2.54673 15.8593 2.93561 15.4666 3.39603C13.3542 5.87149 12.5575 8.72135 13.1409 11.9157C13.587 14.3586 14.8425 16.3478 16.7814 17.9038Z" />
<path d="M16.7818 17.9023C14.8429 16.3463 13.5874 14.357 13.1409 11.9142C12.5575 8.71979 13.3542 5.86993 15.4666 3.39447C15.8592 2.93406 16.3199 2.54517 16.7673 2.1418C16.7686 2.13946 16.7704 2.13745 16.7726 2.13592C16.7748 2.13439 16.7773 2.1334 16.7799 2.133C16.7825 2.13261 16.7852 2.13282 16.7878 2.13365C16.7903 2.13447 16.7926 2.13587 16.7945 2.13773C17.2275 2.53341 17.6709 2.9173 18.0627 3.35689C18.9778 4.38181 19.6726 5.58372 20.1039 6.88809C20.5165 8.12718 20.6615 9.39796 20.5863 10.6909C20.5206 11.7813 20.271 12.8527 19.848 13.86C19.3609 15.0227 18.663 16.0854 17.7896 16.9946C17.4738 17.3188 17.1372 17.622 16.7818 17.9023V17.9023Z" />
<path d="M6.4342 22.7321C6.84635 22.3165 7.26393 22.2994 7.71277 22.4805C7.87899 22.5475 7.9691 22.7887 8.10769 22.781C8.22726 22.7747 8.33143 22.5615 8.48316 22.4845C9.25582 22.0934 10.0683 22.58 10.0788 23.4438C10.0842 23.9337 10.0738 24.424 10.0833 24.9138C10.0865 25.0655 10.038 25.1021 9.89216 25.1003C9.49586 25.0962 9.49587 25.103 9.49542 24.7182C9.49542 24.3262 9.50719 23.9337 9.48998 23.5412C9.46643 23.0011 9.00536 22.7417 8.55879 23.0056C8.33234 23.1414 8.26485 23.3592 8.26259 23.6036C8.25851 24.0333 8.25443 24.4638 8.26259 24.8925C8.26576 25.0433 8.23498 25.1035 8.0674 25.1003C7.67699 25.0926 7.67699 25.1003 7.67699 24.7105C7.67699 24.3334 7.68785 23.9559 7.67245 23.5787C7.64981 23.0201 7.22951 22.7507 6.76935 22.987C6.52297 23.1133 6.45231 23.3374 6.44869 23.591C6.44371 24.0133 6.43736 24.4357 6.44869 24.8586C6.45458 25.0397 6.41517 25.1094 6.21861 25.1008C5.8599 25.0858 5.85946 25.0976 5.85946 24.7476C5.85946 24.0391 5.86444 23.3302 5.85583 22.6199C5.85583 22.4596 5.90112 22.4008 6.05692 22.4257C6.08697 22.43 6.11747 22.43 6.14751 22.4257C6.33546 22.4021 6.4804 22.4275 6.4342 22.7321Z" />
<path d="M12.7328 22.6951C12.8017 22.6046 12.6911 22.4556 12.8266 22.4366C12.9906 22.4205 13.156 22.4234 13.3193 22.4452C13.3646 22.4493 13.3479 22.5231 13.3479 22.5666C13.3479 23.3651 13.3479 24.1642 13.351 24.9632C13.351 25.08 13.3057 25.1049 13.2029 25.0963C13.1354 25.088 13.0671 25.088 12.9996 25.0963C12.8017 25.1294 12.7165 25.0556 12.7731 24.803C12.4561 25.0895 12.1264 25.2104 11.74 25.152C11.3619 25.0936 11.0607 24.9161 10.8419 24.6024C10.4415 24.0257 10.5276 23.1872 11.0231 22.715C11.3958 22.3569 12.183 22.174 12.7328 22.6951ZM12.7967 23.7644C12.7967 23.2665 12.4624 22.9174 11.9923 22.9174C11.5222 22.9174 11.1879 23.2696 11.1879 23.7649C11.1879 24.2602 11.5199 24.6115 11.9923 24.6133C12.4647 24.6151 12.7976 24.2597 12.7967 23.7644Z" />
<path d="M15.5607 23.9903C15.2966 23.9903 15.0321 24.0007 14.769 23.9867C14.5593 23.9753 14.5652 24.0632 14.6331 24.2099C14.7808 24.5326 15.1562 24.7079 15.5457 24.6273C15.7083 24.5933 15.8737 24.5517 16.0059 24.4489C16.1137 24.3651 16.1622 24.3923 16.2324 24.4942C16.4479 24.8133 16.447 24.8414 16.0987 25.0017C15.7005 25.1952 15.242 25.2237 14.8229 25.0809C14.1096 24.8414 13.7681 23.9686 14.0706 23.1768C14.3301 22.4977 15.1304 22.1762 15.817 22.4755C16.3017 22.6869 16.6576 23.3701 16.5616 23.8848C16.5408 23.9944 16.476 23.9903 16.3995 23.9903H15.5607ZM15.2699 23.5285C15.4429 23.5285 15.6164 23.5235 15.789 23.5285C15.9085 23.533 15.9525 23.5022 15.9194 23.3746C15.8829 23.2313 15.7988 23.1047 15.6807 23.0155C15.5627 22.9264 15.4178 22.8802 15.2699 22.8843C14.9456 22.8879 14.673 23.0989 14.6037 23.39C14.5806 23.4882 14.6001 23.5299 14.706 23.5258C14.8954 23.5258 15.082 23.5285 15.2699 23.5285V23.5285Z" />
<path d="M26.2454 25.1814C25.4188 25.1814 24.7961 24.5716 24.8011 23.7648C24.8042 22.9685 25.4197 22.3759 26.2431 22.375C27.0787 22.375 27.6924 22.9748 27.6856 23.7852C27.6784 24.5856 27.0629 25.1818 26.2454 25.1814ZM26.2404 22.9201C25.7644 22.9201 25.4079 23.2822 25.403 23.7666C25.398 24.2511 25.7689 24.6372 26.2472 24.6354C26.7255 24.6336 27.0724 24.2755 27.0751 23.7829C27.0783 23.2759 26.7332 22.9192 26.2404 22.9201Z" />
<path d="M18.3143 22.3834C18.6011 22.3707 18.887 22.4227 19.1509 22.5355C19.3071 22.5984 19.3773 22.6713 19.2568 22.8275C19.2471 22.839 19.2391 22.852 19.2333 22.866C19.1667 23.0684 19.0675 23.1155 18.8574 23.01C18.6054 22.8829 18.3165 22.8493 18.0421 22.9153C17.8886 22.9516 17.7704 23.0272 17.7745 23.2001C17.7781 23.3635 17.9103 23.3993 18.0403 23.4265C18.3198 23.4862 18.6092 23.4921 18.8805 23.5949C19.1875 23.7103 19.3977 23.9009 19.414 24.2495C19.4307 24.6067 19.2659 24.8652 18.9475 25.006C18.3392 25.2745 17.7437 25.2043 17.1658 24.8978C17.0774 24.8525 17.0417 24.7968 17.1146 24.7063C17.1481 24.665 17.1758 24.6193 17.197 24.5705C17.2649 24.4147 17.3329 24.3717 17.5104 24.4727C17.6677 24.5635 17.8418 24.6213 18.0222 24.6425C18.2025 24.6637 18.3853 24.6478 18.5594 24.5958C18.7025 24.556 18.8143 24.4768 18.8125 24.3188C18.8125 24.1734 18.6898 24.1187 18.5675 24.0924C18.3243 24.0422 18.077 24.0105 17.8356 23.9566C17.2649 23.8244 17.0013 23.3509 17.2314 22.8746C17.3886 22.5482 17.6843 22.4296 18.0204 22.3843C18.1183 22.3774 18.2164 22.3771 18.3143 22.3834V22.3834Z" />
<path d="M20.4517 23.7143C20.4517 23.526 20.4413 23.3367 20.4553 23.1488C20.4666 22.9927 20.4041 22.9465 20.2628 22.9678C20.2553 22.9687 20.2477 22.9687 20.2402 22.9678C20.1328 22.9487 19.9716 23.0298 19.9277 22.9225C19.8765 22.8002 19.9069 22.6404 19.9141 22.4978C19.9195 22.3905 20.0133 22.4299 20.0726 22.4272C20.4517 22.4118 20.4517 22.4132 20.4517 22.0293C20.456 21.9841 20.456 21.9386 20.4517 21.8935C20.4064 21.6599 20.5065 21.5988 20.7325 21.6137C21.0912 21.6377 21.0382 21.5711 21.0405 21.9306C21.0437 22.4241 21.0405 22.4241 21.5265 22.4241C21.5941 22.4299 21.6622 22.4299 21.7298 22.4241C21.9563 22.3847 21.9952 22.482 22.0016 22.6934C22.0093 22.932 21.9327 22.9931 21.7117 22.9696C21.54 22.951 21.3648 22.9732 21.1918 22.9637C21.0708 22.9573 21.0369 22.9995 21.0391 23.1172C21.0464 23.4639 21.0391 23.8112 21.0427 24.1584C21.0464 24.5057 21.1881 24.6374 21.5369 24.5957C21.6198 24.5918 21.7011 24.5713 21.776 24.5355C21.9214 24.4482 21.9599 24.5065 22.0025 24.6437C22.1143 25.0086 22.1207 25.0059 21.7475 25.1109C21.6098 25.1514 21.4666 25.1699 21.3231 25.1657C20.7665 25.1417 20.4848 24.8629 20.4571 24.3006C20.4476 24.105 20.4571 23.9085 20.4571 23.712L20.4517 23.7143Z" />
<path d="M23.449 22.6917C23.7126 22.3666 24.0405 22.3413 24.3924 22.3952C24.5029 22.4119 24.5582 22.4572 24.4975 22.5762C24.4758 22.616 24.4605 22.6589 24.4522 22.7035C24.4223 22.9008 24.358 22.9814 24.1179 22.9362C23.7013 22.8578 23.4553 23.0828 23.4427 23.512C23.4295 23.9788 23.4313 24.4464 23.4399 24.9132C23.4427 25.0639 23.3946 25.1029 23.2488 25.101C22.8534 25.097 22.8534 25.1042 22.8534 24.7167C22.8534 24.0236 22.8593 23.33 22.8489 22.6369C22.8489 22.4685 22.8896 22.3983 23.0599 22.4287C23.0899 22.4334 23.1205 22.4334 23.1505 22.4287C23.3412 22.3992 23.4807 22.4314 23.449 22.6917Z" />
<path d="M28.6328 24.9756C28.6301 25.1458 28.5264 25.2354 28.3792 25.239C28.3448 25.2422 28.3101 25.238 28.2776 25.2265C28.245 25.2151 28.2153 25.1967 28.1905 25.1727C28.1657 25.1488 28.1463 25.1197 28.1338 25.0875C28.1212 25.0554 28.1158 25.0209 28.1179 24.9864C28.1179 24.8257 28.213 24.7257 28.3701 24.7266C28.5273 24.7275 28.6229 24.813 28.6328 24.9756Z" />
</svg>
