<svg width="33" height="26" viewBox="0 0 33 26"  xmlns="http://www.w3.org/2000/svg">
<path d="M16.2078 2.65069C17.5811 1.57788 19.1243 0.888949 20.8551 0.660393C24.2825 0.207947 27.2014 1.23924 29.5761 3.74495C30.8371 5.06017 31.6768 6.72163 31.9877 8.51664C32.612 12.0401 31.6386 15.0738 29.08 17.5721C27.7501 18.8711 26.1444 19.6981 24.3166 20.0559C21.4023 20.6259 18.7448 20.0315 16.3441 18.2727C16.2946 18.2368 16.2391 18.2097 16.1859 18.1794C16.1836 18.1751 16.1822 18.1705 16.1817 18.1657C16.1812 18.1609 16.1817 18.156 16.1831 18.1514C16.4166 17.9855 16.6369 17.8018 16.842 17.6019C17.8222 16.6921 18.6051 15.5908 19.1421 14.3662C19.6142 13.3118 19.8883 12.1796 19.9508 11.0261C19.9943 10.3377 19.9663 9.64659 19.8672 8.96395C19.7052 7.90671 19.377 6.88173 18.8947 5.92697C18.3385 4.8285 17.5802 3.88302 16.6736 3.05602C16.5336 2.92961 16.4113 2.77011 16.2149 2.71507L16.2078 2.65069Z" />
<path d="M16.2075 2.65045C16.2099 2.67191 16.2122 2.69291 16.215 2.7139C16.005 2.76055 15.873 2.92472 15.7279 3.05672C14.7096 3.97241 13.8894 5.08653 13.3177 6.33065C12.8209 7.40027 12.5282 8.55314 12.4544 9.73008C12.3769 11.0231 12.5225 12.2932 12.9453 13.5297C13.4076 14.9005 14.1634 16.154 15.16 17.2029C15.4805 17.5411 15.8314 17.8457 16.1828 18.1502C16.1814 18.1549 16.1809 18.1597 16.1814 18.1645C16.1819 18.1693 16.1833 18.174 16.1856 18.1782C14.7764 19.2706 13.1889 19.9507 11.4213 20.1839C6.87247 20.7777 2.64147 18.2584 0.947109 14.1132C0.331148 12.6057 0.0805617 11.0314 0.280283 9.41897C0.74972 5.63521 2.74273 2.93918 6.21032 1.34722C7.4483 0.779099 8.76889 0.53282 10.1231 0.543548C12.2957 0.56034 14.2724 1.20637 16.0195 2.51567C16.0816 2.56044 16.145 2.60521 16.2075 2.65045Z" />
<path d="M2.44852 22.866C2.95202 22.4789 3.46812 22.4117 3.83023 22.7317C4.04255 22.9183 4.13542 22.9229 4.35474 22.7354C4.68792 22.4514 5.10928 22.4696 5.49939 22.6389C5.88157 22.8045 6.03556 23.1431 6.04582 23.54C6.05889 24.0531 6.04582 24.5662 6.05188 25.0793C6.05188 25.1973 6.02622 25.2379 5.89929 25.2412C5.45645 25.2524 5.45646 25.2584 5.4546 24.8162C5.4546 24.4277 5.45459 24.0391 5.44993 23.6501C5.44433 23.3236 5.2572 23.1091 4.97768 23.0904C4.58384 23.0657 4.32439 23.2345 4.27773 23.5755C4.21053 24.0541 4.25301 24.5373 4.25301 25.0182C4.25301 25.18 4.23154 25.2514 4.04302 25.2416C3.66971 25.2262 3.66971 25.2393 3.66971 24.8601C3.66971 24.4808 3.67998 24.0984 3.66645 23.7182C3.65105 23.2891 3.46766 23.0932 3.11161 23.0899C2.71637 23.0867 2.47277 23.3171 2.46577 23.7187C2.4583 24.1613 2.4569 24.6049 2.46577 25.0466C2.46904 25.1964 2.43218 25.243 2.27679 25.2407C1.87222 25.2337 1.87314 25.2407 1.87454 24.8382C1.87454 24.1702 1.88435 23.5018 1.87129 22.8325C1.86709 22.6305 1.93102 22.5666 2.11907 22.5992C2.14221 22.6011 2.16545 22.6011 2.18859 22.5992C2.35098 22.6044 2.55118 22.5559 2.44852 22.866Z" />
<path d="M30.0764 24.9579C29.3764 25.4244 28.7175 25.3777 28.2565 24.8539C27.8267 24.3656 27.8141 23.5013 28.2289 23.0068C28.6993 22.4471 29.3302 22.3902 30.0651 22.8562C30.0651 22.4723 30.0707 22.1029 30.0623 21.7339C30.0591 21.5991 30.0843 21.5474 30.2359 21.5474C30.6442 21.5516 30.6433 21.5427 30.6433 21.9592C30.6433 22.9756 30.64 23.992 30.648 25.0083C30.648 25.1795 30.6195 25.2728 30.4268 25.2364C30.3884 25.2295 30.349 25.2295 30.3106 25.2364C30.1099 25.2751 30.0194 25.2019 30.0764 24.9579ZM30.0903 23.9318C30.0931 23.435 29.787 23.0973 29.3274 23.0922C28.8491 23.0866 28.5168 23.4187 28.5108 23.9103C28.5047 24.3768 28.8472 24.7425 29.2947 24.7499C29.7525 24.7546 30.0871 24.4099 30.0903 23.9308V23.9318Z" />
<path d="M24.7676 22.8637C24.7084 22.4589 24.9921 22.6399 25.1437 22.6058C25.3649 22.5564 25.3523 22.7042 25.3514 22.853C25.3477 23.576 25.3435 24.299 25.3514 25.021C25.3514 25.188 25.322 25.2734 25.1386 25.2388C25.1002 25.2323 25.0609 25.2323 25.0224 25.2388C24.8288 25.2678 24.7093 25.2178 24.7751 24.9338C24.4601 25.2533 24.1148 25.3312 23.7396 25.2785C23.4279 25.2385 23.1436 25.0795 22.9464 24.8349C22.4942 24.285 22.5264 23.4174 23.0159 22.9174C23.4844 22.4402 24.1689 22.4113 24.7676 22.8637ZM23.2277 23.9123C23.2305 24.4016 23.567 24.7542 24.0266 24.7491C24.4709 24.7444 24.8082 24.3862 24.8115 23.916C24.8148 23.4291 24.4821 23.0876 24.007 23.0904C23.5441 23.0932 23.2235 23.4314 23.2259 23.9123H23.2277Z" />
<path d="M8.68234 24.958C8.06265 25.4268 7.3501 25.3811 6.89326 24.875C6.41496 24.3461 6.43361 23.4365 6.92218 22.922C7.28195 22.5433 8.07524 22.3189 8.64174 22.8465C8.72667 22.7886 8.60956 22.6357 8.72575 22.6184C8.88757 22.6006 9.05075 22.5988 9.21291 22.6132C9.28944 22.617 9.26751 22.6939 9.26751 22.7443C9.26751 23.5284 9.2675 24.3125 9.2717 25.0966C9.2717 25.2099 9.2367 25.2505 9.1261 25.2365C9.06408 25.2295 9.00147 25.2295 8.93945 25.2365C8.75139 25.2617 8.61655 25.23 8.68234 24.958ZM7.92173 23.0923C7.46209 23.0923 7.13685 23.4249 7.12845 23.9062C7.12052 24.3783 7.47561 24.7528 7.92638 24.7486C8.37715 24.7444 8.71407 24.3983 8.71454 23.9249C8.71454 23.4263 8.39769 23.0937 7.92125 23.0923H7.92173Z" />
<path d="M16.6215 24.1324C16.3494 24.1324 16.0769 24.1413 15.8053 24.1292C15.6266 24.1212 15.6346 24.2033 15.6817 24.3237C15.8109 24.6572 16.2025 24.8405 16.615 24.7514C16.727 24.7271 16.8315 24.6693 16.9416 24.6362C17.0293 24.6096 17.1171 24.4795 17.1782 24.5313C17.2864 24.6245 17.3532 24.7645 17.4325 24.8881C17.4591 24.9305 17.4204 24.9566 17.3858 24.9814C16.8907 25.3247 16.3499 25.4011 15.7993 25.1763C15.2556 24.9571 15.0321 24.493 15.0293 23.9314C15.0265 23.3698 15.2328 22.8898 15.7825 22.6506C16.2291 22.4556 16.6859 22.4757 17.083 22.7784C17.4801 23.0811 17.5963 23.5321 17.5856 24.0205C17.5823 24.1385 17.5184 24.1357 17.4353 24.1352C17.1651 24.131 16.8959 24.1324 16.6215 24.1324ZM16.3014 23.6818C16.4796 23.6818 16.6584 23.6772 16.8366 23.6818C16.9766 23.687 16.992 23.6315 16.9528 23.513C16.8595 23.2364 16.6383 23.0578 16.3546 23.0438C16.2103 23.0376 16.0678 23.0772 15.9473 23.1567C15.8268 23.2363 15.7345 23.3518 15.6836 23.4869C15.6369 23.6133 15.6369 23.6944 15.8128 23.6828C15.9747 23.6735 16.1385 23.6814 16.3014 23.6814V23.6818Z" />
<path d="M10.9535 25.2878C10.6092 25.298 10.2681 25.2186 9.96377 25.0574C9.83171 24.9874 9.79158 24.9174 9.89284 24.7952C9.92636 24.7525 9.95384 24.7055 9.9745 24.6553C10.0338 24.5154 10.1038 24.5191 10.2293 24.5942C10.5419 24.7808 10.8877 24.8115 11.2405 24.7434C11.3917 24.714 11.541 24.6418 11.5387 24.4673C11.5363 24.2835 11.3646 24.2434 11.2218 24.2154C10.9722 24.166 10.7155 24.1543 10.471 24.0718C10.1108 23.9505 9.91105 23.7135 9.90592 23.3884C9.8998 23.2242 9.94679 23.0624 10.0399 22.9269C10.1331 22.7915 10.2674 22.6897 10.4229 22.6365C10.9451 22.456 11.4593 22.5129 11.9596 22.7396C12.065 22.7863 12.0753 22.845 12.0184 22.9351C11.9791 22.992 11.9458 23.0528 11.919 23.1165C11.8653 23.2597 11.7981 23.2564 11.6614 23.1995C11.3758 23.0853 11.08 22.9812 10.7603 23.0885C10.6241 23.1352 10.5172 23.2 10.5214 23.3591C10.5256 23.5181 10.6614 23.5531 10.7804 23.5778C11.0072 23.6245 11.24 23.6431 11.464 23.6995C11.9418 23.8208 12.1388 24.054 12.1322 24.4584C12.1266 24.8363 11.8602 25.1362 11.4299 25.2379C11.2747 25.2792 11.114 25.2961 10.9535 25.2878V25.2878Z" />
<path d="M13.0528 23.8615C13.0528 23.6908 13.0379 23.5186 13.057 23.3484C13.0794 23.153 12.9959 23.1152 12.8237 23.1283C12.728 23.1362 12.574 23.181 12.5437 23.0961C12.497 22.965 12.5091 22.8041 12.5297 22.6604C12.5441 22.5559 12.658 22.6049 12.7271 22.6035C13.0537 22.5974 13.0537 22.5998 13.0509 22.2695C13.0558 22.1998 13.0558 22.1298 13.0509 22.0601C13.0206 21.8553 13.0878 21.7765 13.309 21.791C13.6823 21.8152 13.6319 21.7406 13.6356 22.1352C13.6356 22.6016 13.6356 22.6016 14.1106 22.6016C14.1728 22.6059 14.2351 22.6059 14.2973 22.6016C14.4984 22.5746 14.5661 22.6385 14.5745 22.8591C14.5843 23.1147 14.4877 23.1492 14.2716 23.139C14.0668 23.1296 13.7994 23.0457 13.6692 23.1763C13.5497 23.2976 13.6426 23.5606 13.6379 23.7612C13.6328 23.9548 13.6286 24.1498 13.6379 24.3429C13.6571 24.6554 13.7971 24.7627 14.1116 24.7305C14.1498 24.7263 14.1876 24.7155 14.2264 24.7123C14.3314 24.7029 14.4485 24.5653 14.518 24.6423C14.6039 24.7356 14.6165 24.8965 14.6664 25.0257C14.6977 25.1073 14.6319 25.119 14.5889 25.1405C14.231 25.3102 13.8638 25.3536 13.49 25.2011C13.1522 25.0612 13.077 24.7622 13.0546 24.4431C13.0411 24.2505 13.0523 24.0546 13.0528 23.8615Z" />
<path d="M21.439 25.2869C20.6924 25.292 20.1712 24.8969 20.0335 24.2351C19.8889 23.5401 20.1819 22.9057 20.7876 22.658C21.2631 22.4635 21.7386 22.4775 22.1959 22.7387C22.3228 22.8106 22.3611 22.8838 22.258 23.006C22.2102 23.0673 22.1704 23.1344 22.1395 23.2056C22.0928 23.2989 22.0461 23.3027 21.9598 23.2476C21.8309 23.1604 21.6822 23.107 21.5272 23.0923C21.1147 23.0578 20.8226 23.2056 20.6756 23.5214C20.524 23.8479 20.5996 24.305 20.8427 24.5369C21.0858 24.7687 21.482 24.8074 21.8436 24.6423C21.9225 24.6063 22.0144 24.4851 22.0839 24.5546C22.1899 24.6605 22.2575 24.8083 22.3252 24.9464C22.3546 25.0066 22.2753 25.0322 22.2319 25.0611C21.9989 25.2199 21.7207 25.2991 21.439 25.2869V25.2869Z" />
<path d="M26.6699 22.8556C26.9499 22.5482 27.2658 22.4866 27.627 22.5682C27.7431 22.5948 27.7697 22.6419 27.7203 22.7441C27.7109 22.7653 27.7039 22.7875 27.6993 22.8103C27.6484 23.0151 27.6144 23.1662 27.305 23.1084C26.8971 23.0323 26.6914 23.2539 26.6797 23.6839C26.6669 24.1342 26.666 24.5851 26.6769 25.0366C26.6806 25.198 26.641 25.2475 26.4739 25.2433C26.095 25.233 26.094 25.2433 26.0931 24.8701C26.0931 24.1868 26.0982 23.5034 26.0871 22.8201C26.0838 22.6415 26.1388 22.5794 26.3096 22.6051C26.3561 22.6107 26.4031 22.6107 26.4496 22.6051C26.6162 22.586 26.7422 22.6097 26.6699 22.8556Z" />
<path d="M18.7438 22.8606C19.0238 22.5439 19.3392 22.4875 19.6994 22.5687C19.8082 22.5924 19.8534 22.6311 19.796 22.7394C19.7836 22.7588 19.7746 22.7803 19.7694 22.8028C19.733 23.036 19.6621 23.155 19.3644 23.1069C18.958 23.0416 18.7526 23.2753 18.7456 23.7184C18.7386 24.1615 18.7391 24.6023 18.7456 25.044C18.748 25.1812 18.7321 25.2479 18.5646 25.2432C18.1665 25.2325 18.1675 25.2432 18.1684 24.8393C18.1684 24.1648 18.1763 23.4903 18.1652 22.8163C18.1624 22.6396 18.2118 22.5743 18.3831 22.6027C18.4217 22.6074 18.4607 22.6074 18.4992 22.6027C18.6649 22.5924 18.8082 22.6018 18.7438 22.8606Z" />
<path d="M31.8523 25.0966C31.8495 25.272 31.7421 25.3644 31.5905 25.3681C31.5551 25.3713 31.5195 25.3669 31.486 25.355C31.4525 25.3432 31.4219 25.3243 31.3964 25.2996C31.3709 25.2749 31.351 25.245 31.3381 25.2119C31.3252 25.1788 31.3196 25.1433 31.3217 25.1078C31.3194 24.9418 31.4192 24.8392 31.5812 24.8401C31.7431 24.841 31.8415 24.9292 31.8523 25.0966Z" />
<path d="M16.1819 18.1514C15.8305 17.8468 15.482 17.5423 15.1591 17.2041C14.1625 16.1552 13.4067 14.9017 12.9444 13.5309C12.5216 12.2943 12.376 11.0242 12.4535 9.73126C12.5273 8.55433 12.82 7.40145 13.3168 6.33184C13.8885 5.08772 14.7087 3.97359 15.727 3.0579C15.8721 2.9259 16.0041 2.76127 16.2141 2.71509C16.4101 2.77013 16.5338 2.92963 16.6724 3.05603C17.579 3.88303 18.3373 4.82852 18.8935 5.92698C19.3758 6.88175 19.704 7.90673 19.866 8.96396C19.9651 9.64661 19.9931 10.3377 19.9496 11.0261C19.8871 12.1796 19.613 13.3118 19.1409 14.3663C18.6039 15.5908 17.821 16.6921 16.8408 17.6019C16.6357 17.8018 16.4154 17.9856 16.1819 18.1514V18.1514Z" />
</svg>
