<svg width="37" height="26" viewBox="0 0 37 11"  xmlns="http://www.w3.org/2000/svg">
<path d="M0.0103399 5.73971C0.0103399 4.10091 0.0128279 2.46212 0.00662399 0.823324C0.00662399 0.657956 0.0417852 0.602142 0.219218 0.603795C1.2044 0.612891 2.19 0.605867 3.1756 0.608761C4.11239 0.611655 4.68481 0.999844 4.97805 1.88828C5.26756 2.76225 5.51573 3.64987 5.77753 4.53211C5.98819 5.23658 6.19733 5.94145 6.40495 6.64675C6.42439 6.71248 6.44093 6.79062 6.52572 6.79558C6.62333 6.80096 6.64607 6.7129 6.66716 6.64386C7.06091 5.31306 7.45053 3.98061 7.84716 2.65022C7.98613 2.1843 8.09243 1.70555 8.38484 1.29833C8.70248 0.857627 9.14006 0.628191 9.66698 0.618269C10.7485 0.598425 11.8309 0.613305 12.9125 0.604623C13.0878 0.604623 13.0556 0.706742 13.0556 0.805136C13.0556 2.80195 13.0556 4.79877 13.0556 6.79558C13.0556 8.08338 13.051 9.37077 13.0605 10.6586C13.0605 10.8471 13.0051 10.8831 12.8297 10.8814C11.9273 10.8723 11.0245 10.8723 10.1215 10.8814C9.92754 10.8839 9.86673 10.8426 9.86756 10.6367C9.87625 8.78455 9.87295 6.93242 9.87295 5.07989C9.87295 5.03193 9.87047 4.98357 9.87295 4.93562C9.87916 4.82854 9.85474 4.73428 9.73231 4.72229C9.61651 4.71112 9.56688 4.79297 9.53668 4.89508C9.36794 5.43956 9.19464 5.98281 9.023 6.52646C8.58418 7.91555 8.1433 9.3038 7.71026 10.6945C7.66518 10.8384 7.59982 10.8827 7.45134 10.8806C6.84501 10.8719 6.23826 10.869 5.63152 10.8806C5.46071 10.8843 5.39164 10.8273 5.342 10.6739C4.95281 9.4208 4.55618 8.1698 4.16203 6.91838C3.95316 6.25691 3.74139 5.59543 3.53501 4.93396C3.49985 4.82193 3.46388 4.70989 3.32449 4.72394C3.17188 4.73924 3.18635 4.86739 3.18676 4.9786C3.18676 6.85841 3.18386 8.73824 3.19131 10.6181C3.19131 10.8173 3.15697 10.8872 2.93653 10.8839C2.02662 10.869 1.11671 10.8736 0.206798 10.8814C0.0454955 10.8814 0 10.8401 0 10.6768C0.0128215 9.03094 0.0103399 7.38512 0.0103399 5.73971Z" />
<path d="M14.5214 5.73517C14.5214 4.09638 14.5243 2.458 14.5177 0.819618C14.5177 0.646808 14.5632 0.60215 14.7348 0.603804C15.658 0.612348 16.5817 0.612348 17.5059 0.603804C17.6829 0.603804 17.7185 0.659196 17.7181 0.825391C17.7123 2.71141 17.7113 4.59772 17.7152 6.48429C17.7152 6.5893 17.6772 6.72365 17.8285 6.75713C17.9799 6.79062 18.0225 6.66082 18.0726 6.55581C18.8631 4.89966 19.6537 3.24362 20.4445 1.58773C20.5505 1.36347 20.688 1.15549 20.8528 0.970088C20.9528 0.851607 21.0784 0.757281 21.22 0.694138C21.3617 0.630995 21.5158 0.600675 21.6708 0.605459C22.6353 0.613314 23.6003 0.610833 24.566 0.605459C24.707 0.605459 24.753 0.638952 24.7525 0.786956C24.7484 4.09156 24.7484 7.39602 24.7525 10.7003C24.7525 10.8504 24.7029 10.8814 24.5643 10.8806C23.6271 10.8752 22.6903 10.8731 21.7519 10.8806C21.5844 10.8806 21.5658 10.8194 21.5662 10.678C21.5701 8.76389 21.5707 6.85001 21.5683 4.93643C21.5683 4.84259 21.5943 4.7318 21.4769 4.68632C21.3325 4.63051 21.2701 4.71651 21.2134 4.83847C20.6828 6.01589 20.153 7.19495 19.612 8.36741C19.3225 8.99705 19.066 9.6428 18.7045 10.2394C18.434 10.6863 18.0734 10.9008 17.532 10.8843C16.6026 10.8554 15.6708 10.8703 14.7419 10.8814C14.5516 10.8835 14.5181 10.8235 14.519 10.6495C14.5243 9.01194 14.5214 7.37355 14.5214 5.73517Z" />
<path d="M31.3125 5.28984C32.8968 5.28984 34.4813 5.28984 36.0659 5.28984C36.3178 5.28984 36.3306 5.29646 36.2128 5.52839C35.5535 6.83066 34.5071 7.55413 33.031 7.5839C31.9225 7.60581 30.8129 7.59341 29.704 7.5839C29.5158 7.5839 29.4774 7.63807 29.479 7.81501C29.4877 8.77167 29.479 9.72832 29.4865 10.685C29.4865 10.8392 29.4451 10.8818 29.2912 10.8805C28.3538 10.8733 27.4163 10.8733 26.4788 10.8805C26.3373 10.8805 26.2906 10.845 26.291 10.6978C26.2957 8.95646 26.2957 7.215 26.291 5.4734C26.291 5.30596 26.3543 5.28695 26.4978 5.28736C28.1023 5.29122 29.7072 5.29205 31.3125 5.28984Z" />
<path d="M32.7319 0.618576C31.8496 0.601764 30.9673 0.601764 30.0849 0.618576H28.0997C27.9876 0.657438 27.878 0.609906 27.7688 0.609492C27.198 0.609492 26.6265 0.61446 26.0557 0.605778C25.8981 0.603297 25.8832 0.671915 25.9126 0.791393C25.9672 1.01133 26.0106 1.23459 26.0817 1.44915C26.4064 2.43185 26.9751 3.23471 27.8503 3.80564C27.9678 3.80564 28.043 3.87302 28.1005 3.96727C28.1274 3.98216 28.1543 3.99705 28.1807 4.01235C28.822 4.40203 29.5445 4.63883 30.2922 4.70441V4.70441C30.5953 4.77965 30.9059 4.77634 31.2145 4.77675C32.892 4.78061 34.5697 4.78061 36.2475 4.77675C36.312 4.77675 36.3848 4.80653 36.4423 4.74865C36.4614 4.69034 36.4766 4.63081 36.4878 4.57047C36.7678 2.34214 34.9703 0.450728 32.7319 0.618576Z" />
<path d="M27.8496 3.80553C28.0345 3.70258 28.0622 3.84233 28.0998 3.96718C28.0066 3.93023 27.9216 3.8753 27.8496 3.80553V3.80553Z" />
<defs>
<linearGradient id="paint0_linear_63_320" x1="25.8998" y1="2.69602" x2="36.5159" y2="2.69602" gradientUnits="userSpaceOnUse">
<stop stop-color="#FEFEFE"/>
<stop offset="1" stop-color="#B4B4B4"/>
</linearGradient>
</defs>
</svg>
