<svg width="35" height="26" viewBox="0 0 35 12"  xmlns="http://www.w3.org/2000/svg">
<path d="M34.9263 10.7938V10.9423H32.441C32.3717 10.9423 32.3707 10.9587 32.3519 10.873L32.1043 9.75169C32.0835 9.65812 32.0597 9.56556 32.0414 9.4715C32.0334 9.4319 32.0151 9.41655 31.9765 9.42199C31.9695 9.42199 31.9626 9.42199 31.9562 9.42199L28.5536 9.41506C28.4704 9.41506 28.4813 9.4106 28.4546 9.48634C28.2759 9.95204 28.0976 10.4181 27.9196 10.8844C27.8973 10.9428 27.8969 10.9433 27.8379 10.9433H25.0584C25.0389 10.9464 25.019 10.9438 25.001 10.9359C25.0018 10.9074 25.0104 10.8797 25.0257 10.8557L26.9662 6.46594C27.5936 5.04444 28.2219 3.62293 28.8513 2.20142C28.9503 1.98211 29.0424 1.76228 29.145 1.54594C29.2499 1.31332 29.4239 1.11857 29.6432 0.988021C29.8625 0.863069 30.1104 0.796882 30.3628 0.795917C31.1226 0.78255 31.8829 0.792446 32.6411 0.790961C32.6951 0.790961 32.6956 0.790974 32.709 0.853352C32.8222 1.36459 32.9355 1.87616 33.0487 2.38806L33.9165 6.3189C34.2034 7.61565 34.49 8.9124 34.7763 10.2091C34.8164 10.3894 34.856 10.5696 34.8971 10.7493C34.9016 10.7671 34.8937 10.7948 34.9263 10.7938ZM29.2836 7.32538C29.3075 7.33608 29.3339 7.34001 29.3599 7.33676H31.496C31.5773 7.33676 31.5778 7.33676 31.5609 7.25854C31.4322 6.66842 31.3034 6.07864 31.1746 5.48918C31.0379 4.86209 30.9015 4.23416 30.7655 3.60543C30.762 3.5886 30.7655 3.5678 30.7403 3.55592C30.2643 4.81537 29.771 6.06741 29.2836 7.32538Z" />
<path d="M23.6162 0.603516C23.6261 0.6352 23.6539 0.622808 23.6737 0.624788C23.78 0.634689 23.8865 0.645258 23.9931 0.656479C24.1061 0.668856 24.2185 0.684707 24.3304 0.702529C24.564 0.73966 24.7955 0.789238 25.0238 0.85105C25.1967 0.897586 25.3705 0.950063 25.5369 1.01195C25.5889 1.03125 25.5889 1.03175 25.58 1.08422L25.3423 2.48427C25.3027 2.71744 25.262 2.95013 25.2219 3.18331C25.2219 3.19618 25.2219 3.21103 25.2081 3.22242C25.1837 3.21993 25.1603 3.21123 25.1402 3.19716C25.0026 3.12527 24.8587 3.06627 24.7103 3.02091C24.6043 2.99121 24.5008 2.95358 24.3953 2.9219C24.1747 2.85842 23.95 2.8103 23.7227 2.77785C23.3376 2.71882 22.9468 2.70669 22.5588 2.74171C22.3158 2.75869 22.0775 2.81747 21.8545 2.91547C21.6396 3.01448 21.4524 3.14914 21.3528 3.3744C21.3143 3.45731 21.2971 3.54854 21.3029 3.63977C21.3087 3.731 21.3373 3.81934 21.386 3.89671C21.4712 4.02922 21.5826 4.14294 21.7134 4.23088C21.8517 4.33063 21.9966 4.42076 22.1472 4.50068C22.4003 4.6393 22.6594 4.76652 22.9194 4.89079C23.0704 4.96307 23.221 5.03932 23.3691 5.11606C23.6112 5.2445 23.843 5.39147 24.0625 5.55567C24.2198 5.67147 24.3669 5.8005 24.5023 5.94133C24.7665 6.21123 24.9647 6.53859 25.0813 6.89779C25.1226 7.03849 25.1521 7.18239 25.1694 7.328C25.1896 7.4906 25.1928 7.65489 25.1788 7.81814C25.1535 8.17043 25.0698 8.51605 24.9312 8.84094C24.8324 9.0706 24.7049 9.28685 24.5518 9.48452C24.4673 9.59133 24.3762 9.6927 24.2789 9.78802C24.0648 10.0004 23.8247 10.1849 23.5642 10.337C23.234 10.5301 22.8825 10.6841 22.5167 10.796C22.3186 10.8583 22.1205 10.9049 21.9194 10.9485C21.807 10.9732 21.6936 10.9925 21.5801 11.0098C21.5004 11.0222 21.4192 11.0326 21.3385 11.043C21.1899 11.0618 21.0358 11.0663 20.8848 11.0791C20.8684 11.0791 20.8466 11.0747 20.8352 11.0975H19.8224C19.8224 11.0682 19.8011 11.0732 19.7848 11.0717C19.7253 11.0663 19.6664 11.0613 19.6074 11.0579C19.3989 11.0465 19.1929 11.0178 18.9864 10.99C18.7665 10.9608 18.5476 10.9222 18.3306 10.8757C18.0071 10.809 17.6891 10.7175 17.3797 10.6019C17.3628 10.5955 17.347 10.5861 17.3302 10.5781C17.2687 10.5494 17.2663 10.5474 17.2777 10.4836C17.3118 10.2856 17.3485 10.0875 17.3827 9.8895C17.4124 9.71573 17.4396 9.54295 17.4693 9.36769C17.4991 9.19244 17.5297 9.02511 17.5595 8.85382C17.5842 8.71322 17.609 8.5731 17.6308 8.4325C17.6347 8.40775 17.6402 8.383 17.6442 8.35923C17.6575 8.28002 17.658 8.27804 17.7338 8.30973C17.8393 8.35626 17.9418 8.40875 18.0488 8.45281C18.3295 8.57203 18.6164 8.67631 18.9081 8.7652C19.0995 8.8191 19.2938 8.86191 19.4901 8.89342C19.743 8.932 19.998 8.9558 20.2538 8.9647C20.4202 8.97312 20.5861 8.97363 20.7515 8.97116C20.8784 8.96737 21.0048 8.95345 21.1294 8.92955C21.3303 8.89425 21.5258 8.83302 21.7109 8.74738C21.825 8.69641 21.9292 8.62585 22.019 8.53894C22.0949 8.47056 22.1581 8.38929 22.2057 8.29885C22.2657 8.17371 22.2901 8.03442 22.276 7.89634C22.256 7.7237 22.1755 7.56374 22.0487 7.44486C21.9011 7.3006 21.7344 7.17717 21.5534 7.078C21.3909 6.98246 21.224 6.89385 21.0527 6.81464C20.8244 6.70919 20.5955 6.60471 20.3731 6.48639C19.9609 6.27629 19.5779 6.01318 19.234 5.70371C19.021 5.51012 18.8395 5.28444 18.6961 5.03486C18.5064 4.70232 18.4107 4.32447 18.4193 3.94174C18.4322 3.16548 18.7209 2.50606 19.2588 1.95158C19.6217 1.58656 20.0526 1.2961 20.5272 1.0966C20.9967 0.894272 21.4913 0.755725 21.9977 0.684689C22.1581 0.660431 22.3186 0.641142 22.4801 0.62926C22.4989 0.62926 22.5296 0.641624 22.5326 0.603999L23.6162 0.603516Z" />
<path d="M0.693359 0.932284C0.715152 0.947136 0.714655 0.925844 0.717132 0.915943C0.724066 0.882278 0.729506 0.848614 0.733963 0.816929C0.73644 0.794651 0.746839 0.784248 0.769126 0.785238C0.791414 0.786228 0.801319 0.785238 0.818654 0.785238H5.16472C5.35889 0.783452 5.55222 0.810828 5.73826 0.866436C6.1429 0.989708 6.38511 1.26596 6.47128 1.6729C6.71892 2.85117 6.96408 4.03043 7.20924 5.20918C7.28354 5.56613 7.35781 5.92256 7.42864 6.2795C7.41229 6.24237 7.39496 6.20525 7.37911 6.16763C7.10483 5.51041 6.73956 4.89496 6.29397 4.33933C5.64555 3.53452 4.8598 2.8507 3.97308 2.31947C3.85998 2.24754 3.74329 2.18144 3.62343 2.12144C3.53068 2.06367 3.43476 2.0111 3.33616 1.964C2.5754 1.57545 1.77394 1.27228 0.94644 1.06002C0.864623 1.03251 0.780126 1.01374 0.694351 1.00405L0.693359 0.932284Z"/>
<path d="M3.62195 2.11797C3.74181 2.17798 3.85849 2.24407 3.97159 2.316C4.85832 2.84724 5.64406 3.53105 6.29248 4.33587C6.73807 4.89149 7.10334 5.50695 7.37762 6.16416C7.39298 6.20179 7.41031 6.23891 7.42715 6.27604C7.46479 6.45179 7.50294 6.62805 7.5391 6.80429C7.59605 7.07856 7.65152 7.35332 7.70749 7.62759C7.71194 7.64739 7.71738 7.66719 7.72333 7.69046C7.75156 7.67363 7.75355 7.64392 7.76296 7.62065C7.99046 7.04142 8.21746 6.46218 8.44397 5.88296C9.09675 4.21491 9.74986 2.54718 10.4033 0.879794C10.4459 0.771869 10.4201 0.785748 10.5445 0.785253H13.2685C13.3755 0.785253 13.3754 0.785238 13.3343 0.881776L9.75646 9.19645C9.51773 9.75093 9.2795 10.3057 9.04176 10.8609C9.03488 10.8829 9.02053 10.9018 9.00118 10.9144C8.98183 10.9269 8.95869 10.9323 8.93577 10.9297C8.01125 10.9297 7.08673 10.9297 6.16221 10.9297C6.07256 10.9297 6.08247 10.9465 6.05474 10.846C5.31248 8.18651 4.56956 5.52702 3.82598 2.86751C3.75995 2.63648 3.69523 2.40379 3.63184 2.16946C3.62837 2.15362 3.62542 2.13579 3.62195 2.11797Z" />
<path d="M15.8831 0.779813H17.1912C17.2704 0.779813 17.2694 0.779832 17.2556 0.861518C17.1615 1.41401 17.0672 1.96651 16.9728 2.51901C16.8737 3.09361 16.7746 3.66837 16.6756 4.24331C16.5729 4.84531 16.4705 5.44716 16.3685 6.04883C16.2665 6.6505 16.1635 7.25235 16.0595 7.85435C15.9475 8.51048 15.8359 9.16627 15.7246 9.82174C15.6652 10.1722 15.6055 10.5226 15.5454 10.8728C15.5335 10.9406 15.533 10.9411 15.4626 10.9411H12.8402C12.8357 10.9413 12.8312 10.9413 12.8268 10.9411C12.7664 10.9411 12.7629 10.9366 12.7728 10.8787C12.8415 10.4741 12.9105 10.0698 12.9798 9.6658L13.2339 8.17714C13.3376 7.57085 13.4413 6.96454 13.5449 6.35825C13.6519 5.73116 13.7589 5.10227 13.8659 4.47155C13.9682 3.86955 14.0711 3.2677 14.1744 2.66603C14.2735 2.08944 14.3716 1.51186 14.4686 0.933289C14.4751 0.895169 14.484 0.857045 14.4889 0.818925C14.4888 0.812754 14.49 0.806649 14.4926 0.801037C14.4952 0.795425 14.499 0.790471 14.5038 0.786557C14.5086 0.782643 14.5142 0.779858 14.5202 0.778435C14.5262 0.777012 14.5324 0.776981 14.5385 0.778338C14.5568 0.778338 14.5751 0.778338 14.5934 0.778338L15.8831 0.779813Z" />
</svg>
