<svg width="36" height="35" viewBox="0 0 36 35"  xmlns="http://www.w3.org/2000/svg">
<path d="M31.1883 17.8669C31.1301 17.8669 31.0816 17.9236 31.0234 17.952C30.9652 17.9803 31.1298 18.0653 31.1783 18.0653C31.5179 18.0653 31.8578 18.0653 32.1975 18.0653V18.1126H32.6826C32.7311 18.1126 32.7698 18.0465 32.8086 18.0181C32.8474 17.9898 32.7309 17.9331 32.6921 17.9331L31.1883 17.8669Z"  />
<path d="M29.9171 12.2831L31.2465 11.6973C31.3137 11.6747 31.3784 11.6463 31.4403 11.6123C31.4705 11.5723 31.4938 11.5275 31.5085 11.48C31.4503 11.48 31.3919 11.4327 31.3531 11.48C31.3143 11.5272 30.994 11.6312 30.8097 11.7068L29.8394 12.1414L29.9171 12.2831Z"  />
<path d="M30.3054 22.0996C30.2569 22.0996 30.1985 22.0996 30.15 22.0996C30.1015 22.0996 30.1503 22.2413 30.2377 22.2602C30.4001 22.337 30.5689 22.4003 30.7423 22.4492C30.8005 22.4492 30.8681 22.4492 30.936 22.3925V22.3169L30.3054 22.0996Z"  />
<path d="M31.7996 22.7432C31.7996 22.7432 31.7996 22.6581 31.7414 22.6487C31.5708 22.5727 31.3958 22.5065 31.2174 22.4502C31.1992 22.4418 31.1792 22.4375 31.1591 22.4375C31.1389 22.4375 31.119 22.4418 31.1008 22.4502C31.0875 22.4869 31.0875 22.5269 31.1008 22.5636L31.6442 22.7904C31.6987 22.7847 31.7516 22.7687 31.7996 22.7432Z"  />
<path d="M8.60889 6.05469C8.85805 6.57617 9.23437 7.03031 9.70523 7.37755C9.45811 6.85482 9.08142 6.40023 8.60889 6.05469Z"  />
<path d="M4.15482 22.742C4.57206 22.5908 4.99928 22.4302 5.41651 22.2601C5.48398 22.2245 5.54598 22.18 5.60081 22.1278V22.0617C5.53323 22.0524 5.46467 22.0524 5.39709 22.0617C4.97015 22.2129 4.54291 22.3829 4.11597 22.553C4.05775 22.553 4.02898 22.6475 3.98047 22.7042C4.03609 22.7263 4.09483 22.739 4.15482 22.742Z"  />
<path d="M31.8864 13.0474C31.4498 13.1702 31.0228 13.3025 30.5958 13.4443C30.5376 13.4443 30.4991 13.5387 30.4409 13.5954C30.5113 13.6094 30.5837 13.6094 30.6541 13.5954L31.9158 13.208C31.989 13.1739 32.0599 13.1361 32.129 13.0947V13.0191C32.047 13.0098 31.9639 13.0194 31.8864 13.0474Z"  />
<path d="M32.4885 16.1953L31.1979 16.2992C31.13 16.2992 31.0621 16.3749 30.9942 16.4032C30.9262 16.4316 31.1494 16.5071 31.2173 16.4977C31.6637 16.4977 32.1002 16.4316 32.5368 16.3938C32.6113 16.3785 32.6833 16.353 32.7505 16.3182V16.2331C32.6632 16.2236 32.5758 16.1953 32.4885 16.1953Z"  />
<path d="M15.023 4.93065C15.0447 4.35283 14.911 3.77951 14.6349 3.26758C14.6168 3.84508 14.7503 4.41753 15.023 4.93065Z"  />
<path d="M17.0887 30.3125C17.0235 30.4367 16.9897 30.5744 16.9897 30.7141C16.9897 30.8538 17.0235 30.9914 17.0887 31.1157C17.1681 30.9961 17.2103 30.8566 17.2103 30.7141C17.2103 30.5715 17.1681 30.432 17.0887 30.3125Z"  />
<path d="M31.0521 24.1705C30.7804 24.0099 30.5087 23.8587 30.2467 23.6791C29.9847 23.4996 30.0237 23.6791 29.9946 23.8114L30.9649 24.2461L31.0521 24.1705Z"  />
<path d="M9.89966 5.15777L10.4331 5.98931C10.5981 5.92316 10.5594 5.83811 10.5108 5.74362C10.1712 5.17666 10.1131 5.09163 9.89966 5.15777Z"  />
<path d="M5.39717 23.707C5.14489 23.8204 4.91201 23.9527 4.66943 24.0755C4.66943 24.0755 4.66943 24.1605 4.66943 24.2078C4.66943 24.255 4.76635 24.255 4.79546 24.2078C5.06715 24.085 5.32896 23.9432 5.59095 23.8109V23.7353C5.51332 23.7448 5.43598 23.6881 5.39717 23.707Z"  />
<path d="M18.9716 3.76794C18.9851 3.82943 19.0045 3.88955 19.0295 3.94748C19.0295 3.89078 19.1453 3.84354 19.1549 3.7774C19.1922 3.55543 19.2151 3.33136 19.2228 3.10654C19.2228 3.05929 19.1551 3.00256 19.1262 2.95532C19.0972 2.90807 19.0298 3.04038 19.0201 3.09708C19.0105 3.15378 19.0198 3.49395 18.9716 3.69239C18.9716 3.69239 18.9619 3.74904 18.9716 3.76794Z"  />
<path d="M27.2194 7.35943C27.4329 7.1421 27.6368 6.91529 27.8405 6.67905C27.8405 6.67905 27.8405 6.60349 27.8405 6.59404C27.8405 6.58459 27.7628 6.59404 27.7434 6.59404L27.0934 7.28382C27.1322 7.33107 27.2097 7.37833 27.2194 7.35943Z"  />
<path d="M35.7002 17.8473C35.776 17.7194 35.8158 17.5744 35.8158 17.4268C35.8158 17.2792 35.776 17.1341 35.7002 17.0063C35.6407 16.8988 35.6097 16.7787 35.6097 16.6567C35.6097 16.5346 35.6407 16.4145 35.7002 16.307C35.767 16.1528 35.7906 15.984 35.7684 15.818C35.7462 15.6519 35.6793 15.4946 35.5742 15.3621C35.5152 15.3074 35.4744 15.2367 35.4571 15.1593C35.4398 15.0818 35.4468 15.001 35.477 14.9274C35.502 14.8469 35.5215 14.7649 35.5353 14.6818C35.5791 14.535 35.5812 14.3794 35.5419 14.2314C35.5027 14.0834 35.4235 13.9485 35.3121 13.8408C35.254 13.7815 35.2127 13.7085 35.1923 13.629C35.1719 13.5495 35.1729 13.4662 35.1956 13.3873C35.2431 13.2248 35.2485 13.0535 35.2112 12.8886C35.174 12.7236 35.095 12.5703 34.9819 12.4423C34.9032 12.377 34.8402 12.2959 34.7967 12.2046C34.7531 12.1133 34.7303 12.0139 34.7299 11.9132C34.7766 11.7457 34.7748 11.5689 34.7251 11.4022C34.6755 11.2355 34.5799 11.0854 34.4484 10.9683C34.3487 10.8886 34.2695 10.7872 34.2172 10.6723C34.165 10.5575 34.1411 10.4323 34.1476 10.3068C34.1638 10.1529 34.1351 9.99758 34.0647 9.85884C33.9943 9.7201 33.885 9.6035 33.7496 9.52249C33.6552 9.47282 33.5769 9.39909 33.5222 9.30921C33.4675 9.21934 33.4387 9.11672 33.4393 9.01225C33.444 8.84937 33.4052 8.68804 33.327 8.544C33.2488 8.39995 33.1338 8.2781 32.993 8.19017C32.8905 8.14227 32.8014 8.07071 32.7338 7.9818C32.6662 7.89288 32.6222 7.78925 32.6049 7.67988C32.5945 7.52353 32.5414 7.37276 32.451 7.24317C32.3605 7.11358 32.2358 7.00992 32.0904 6.94286C31.9626 6.90139 31.8493 6.82659 31.7621 6.72665C31.6748 6.6267 31.6172 6.50538 31.5958 6.37587C31.5703 6.29015 31.5346 6.20766 31.4892 6.13019C31.4369 6.01892 31.3584 5.92099 31.2608 5.84395C31.1632 5.76691 31.0489 5.71287 30.9263 5.6861C30.8508 5.67589 30.7801 5.64314 30.7245 5.59238C30.6689 5.54161 30.6308 5.47534 30.6155 5.40263C30.5868 5.31055 30.5481 5.2218 30.4994 5.13803C30.4347 4.99928 30.3361 4.87787 30.2128 4.78408C30.0895 4.6903 29.945 4.62691 29.7911 4.59941C29.7198 4.5958 29.6505 4.57259 29.5921 4.53245C29.5338 4.49232 29.4883 4.43692 29.4609 4.37264C29.4609 4.27815 29.364 4.19313 29.3155 4.09863C29.2505 3.97269 29.1545 3.86444 29.0359 3.78362C28.9174 3.7028 28.7798 3.65196 28.636 3.63563C28.5239 3.63076 28.4155 3.59539 28.3229 3.5336C28.2303 3.47182 28.1577 3.38609 28.1125 3.28601C28.0481 3.16835 27.9588 3.06529 27.8505 2.98363C27.6968 2.8704 27.5168 2.79573 27.3265 2.76626C27.2202 2.77349 27.1138 2.75169 27.0195 2.70328C26.9252 2.65486 26.8465 2.58178 26.7925 2.49225C26.7526 2.42629 26.7037 2.3659 26.6471 2.31271C26.5594 2.2064 26.4463 2.12244 26.3178 2.06812C26.1893 2.01379 26.0496 1.99071 25.9099 2.00087C25.8113 2.01053 25.7117 1.99467 25.6214 1.95485C25.531 1.91502 25.453 1.85266 25.3954 1.7741C25.2674 1.61144 25.0946 1.48774 24.8969 1.41744C24.6993 1.34715 24.4851 1.33319 24.2796 1.37725C24.1982 1.37975 24.1187 1.3528 24.0564 1.30164C23.94 1.22604 23.8431 1.11268 23.7267 1.03709C23.6312 0.955059 23.5178 0.89538 23.395 0.862624C23.2723 0.829868 23.1434 0.824891 23.0184 0.84809C22.9028 0.8803 22.7806 0.883307 22.6635 0.856857C22.5464 0.830407 22.4377 0.775338 22.3484 0.69687C22.22 0.58189 22.062 0.50277 21.8912 0.467848C21.7205 0.432927 21.5432 0.443533 21.3781 0.498473C21.2994 0.534715 21.2118 0.547771 21.1256 0.536019C21.0394 0.524266 20.9584 0.488213 20.893 0.432321C20.7681 0.311645 20.6103 0.228703 20.4381 0.193495C20.266 0.158287 20.0868 0.172296 19.9227 0.233866C19.8053 0.287564 19.6758 0.310593 19.5465 0.300653C19.4172 0.290712 19.2927 0.248145 19.1855 0.177173C19.0605 0.0962821 18.9159 0.0485256 18.7662 0.0385836C18.6164 0.0286417 18.4668 0.0568599 18.3317 0.12048C18.2204 0.180888 18.0952 0.212585 17.9678 0.212585C17.8405 0.212585 17.7152 0.180888 17.604 0.12048C17.4656 0.041585 17.308 0 17.1477 0C16.9874 0 16.8303 0.041585 16.6919 0.12048C16.6053 0.182897 16.5039 0.223347 16.3972 0.238192C16.2905 0.253037 16.1814 0.241837 16.0803 0.205549C15.9063 0.129582 15.7136 0.105169 15.5255 0.135418C15.3374 0.165667 15.1624 0.249231 15.0228 0.375628C14.972 0.422588 14.9092 0.455298 14.8408 0.470271C14.7725 0.485243 14.7013 0.481886 14.6347 0.460639C14.4343 0.389697 14.2174 0.374244 14.0084 0.415942C13.7994 0.45764 13.6064 0.55486 13.4508 0.69687C13.4016 0.749552 13.3385 0.788061 13.2684 0.808065C13.1982 0.828069 13.1239 0.828846 13.0533 0.810314C12.8477 0.764947 12.6332 0.773358 12.4321 0.834768C12.231 0.896178 12.0503 1.00839 11.9081 1.15993C11.8012 1.24311 11.6744 1.29838 11.5395 1.32055C11.4265 1.33022 11.3128 1.33022 11.1998 1.32055C11.0624 1.31591 10.926 1.34557 10.8037 1.40677C10.6814 1.46797 10.5771 1.55866 10.501 1.67017C10.448 1.75945 10.3691 1.83138 10.274 1.87681C10.179 1.92224 10.0724 1.93913 9.96749 1.92532C9.78279 1.91782 9.59956 1.96186 9.43969 2.05226C9.27983 2.14265 9.14981 2.27563 9.06493 2.43556C9.03199 2.4989 8.98234 2.55247 8.9209 2.5907C8.85946 2.62892 8.78862 2.65039 8.71575 2.65287C8.48444 2.65469 8.25887 2.72414 8.06856 2.85219C7.87825 2.98024 7.73189 3.16098 7.64831 3.37102C7.62473 3.40601 7.5934 3.43532 7.5564 3.45661C7.51939 3.4779 7.47796 3.49063 7.43511 3.49387C7.21774 3.51289 7.01023 3.59252 6.83814 3.72324C6.66605 3.85395 6.53667 4.03025 6.4648 4.23094C6.44132 4.30121 6.39918 4.36428 6.34303 4.41399C6.28688 4.4637 6.21859 4.49832 6.14452 4.5144C5.93153 4.55408 5.7335 4.64994 5.57266 4.79158C5.41182 4.93322 5.29439 5.11517 5.23248 5.31756C5.21683 5.40731 5.17572 5.4911 5.11404 5.55951C5.05236 5.62791 4.97219 5.67829 4.88283 5.70502L4.7279 5.78057C4.54487 5.86054 4.38591 5.98525 4.26691 6.14253C4.14791 6.2998 4.07271 6.48432 4.04849 6.67826C4.02048 6.76955 3.95793 6.84716 3.87367 6.89557C3.51465 7.10346 3.15586 7.33024 3.13646 7.7838C3.1353 7.88667 3.10578 7.98739 3.05118 8.07546C2.99658 8.16352 2.91906 8.23574 2.82613 8.28464C2.71321 8.34677 2.61395 8.43032 2.53475 8.53033C2.41167 8.68427 2.33171 8.86653 2.30212 9.05949C2.31026 9.17572 2.28672 9.292 2.2339 9.39653C2.18108 9.50107 2.1008 9.59015 2.00127 9.65479C1.84543 9.75622 1.72282 9.89941 1.64877 10.0671C1.57473 10.2348 1.55226 10.4198 1.58386 10.5997C1.60621 10.681 1.60442 10.7667 1.57865 10.847C1.55288 10.9273 1.50429 10.9988 1.43841 11.0533C1.38255 11.0964 1.33361 11.1474 1.29296 11.2045C1.16487 11.3237 1.0724 11.4747 1.02622 11.6413C0.980035 11.8079 0.981876 11.9836 1.03096 12.1494C1.03529 12.28 0.998139 12.4087 0.924355 12.5179C0.856433 12.6313 0.749699 12.7258 0.681777 12.8392C0.608768 12.9592 0.563959 13.0934 0.550538 13.2323C0.537117 13.3712 0.55534 13.5112 0.604076 13.6423C0.634818 13.7014 0.646365 13.7682 0.637715 13.8339C0.629065 13.8996 0.600332 13.9613 0.555276 14.0109C0.466304 14.118 0.391358 14.2354 0.332123 14.3605C0.270021 14.4773 0.23784 14.607 0.23784 14.7385C0.23784 14.87 0.270021 14.9996 0.332123 15.1164C0.37602 15.199 0.394122 15.2924 0.383766 15.3848C0.37341 15.4773 0.334998 15.5647 0.273848 15.6361C0.158154 15.781 0.0884709 15.9556 0.0729629 16.1385C0.0574549 16.3214 0.0969454 16.5047 0.186671 16.6661C0.236827 16.7422 0.263425 16.8308 0.263425 16.9213C0.263425 17.0117 0.236827 17.1002 0.186671 17.1764C0.0652385 17.3382 0 17.5335 0 17.7339C0 17.9343 0.0652385 18.1296 0.186671 18.2914C0.21922 18.3372 0.236893 18.3916 0.236893 18.4473C0.236893 18.503 0.21922 18.5574 0.186671 18.6032C0.0885689 18.7868 0.0441184 18.9931 0.0578018 19.1996C0.0714852 19.4061 0.142856 19.6051 0.264372 19.7749C0.319512 19.832 0.356944 19.9031 0.372395 19.98C0.387846 20.0569 0.380535 20.1365 0.351549 20.2096C0.323252 20.2729 0.303619 20.3397 0.293273 20.408C0.253692 20.5596 0.253375 20.7183 0.292325 20.8701C0.331276 21.0218 0.408257 21.1618 0.516426 21.2774C0.580416 21.3391 0.626667 21.416 0.650507 21.5006C0.674347 21.5852 0.675071 21.6744 0.652402 21.7593C0.602975 21.9362 0.601888 22.1227 0.649559 22.3001C0.697231 22.4775 0.79226 22.6397 0.924355 22.7703C1.00452 22.83 1.06604 22.9102 1.10202 23.002C1.13801 23.0938 1.14701 23.1935 1.12808 23.29C1.09029 23.4645 1.10388 23.6458 1.16741 23.813C1.23093 23.9802 1.34145 24.1265 1.48674 24.235C1.55957 24.2735 1.61996 24.3311 1.66109 24.4012C1.70222 24.4713 1.7227 24.5511 1.71984 24.6318C1.71501 24.7073 1.71501 24.7831 1.71984 24.8586C1.71673 25.0052 1.75266 25.1502 1.82407 25.2793C1.89548 25.4085 1.99986 25.5175 2.1273 25.5957C2.21919 25.6473 2.29525 25.7217 2.34808 25.8114C2.40091 25.901 2.42867 26.0026 2.42815 26.1059C2.42767 26.2759 2.47438 26.4429 2.56318 26.5892C2.65198 26.7355 2.7796 26.8558 2.93273 26.9374C3.03419 26.9831 3.12112 27.0547 3.18431 27.1445C3.2475 27.2343 3.28472 27.339 3.29186 27.4477C3.3115 27.6151 3.37636 27.7743 3.48043 27.9089C3.58449 28.0435 3.72385 28.1485 3.88362 28.2131C3.97846 28.2455 4.06278 28.302 4.12762 28.3767C4.19246 28.4515 4.23535 28.5418 4.25222 28.6383C4.27377 28.793 4.33713 28.9394 4.43605 29.0623C4.53496 29.1852 4.66594 29.2802 4.81508 29.3375C4.95262 29.3749 5.07807 29.4457 5.17989 29.5432C5.28171 29.6407 5.35666 29.7618 5.39736 29.8951C5.43893 30.0368 5.51969 30.1647 5.63094 30.2647C5.74218 30.3647 5.87953 30.433 6.02797 30.462C6.13363 30.473 6.23395 30.5124 6.31792 30.5758C6.4019 30.6393 6.46643 30.7241 6.50365 30.8211C6.56288 30.9855 6.66722 31.1308 6.80592 31.2408C6.94463 31.3509 7.11187 31.4215 7.28918 31.4447C7.39718 31.4511 7.50155 31.4862 7.59051 31.5462C7.67947 31.6062 7.74962 31.6887 7.79377 31.7849C7.84228 31.8605 7.91037 31.9361 7.96859 32.0117C8.05642 32.116 8.16788 32.1993 8.29408 32.2551C8.42028 32.3108 8.55784 32.3374 8.69633 32.333C8.77646 32.3243 8.85744 32.3395 8.92848 32.3766C8.99953 32.4138 9.05744 32.471 9.09431 32.5408C9.16032 32.6354 9.235 32.724 9.31746 32.8054C9.40321 32.8935 9.5071 32.9627 9.62258 33.0083C9.73806 33.054 9.8624 33.075 9.98692 33.07C10.0991 33.0554 10.2135 33.0706 10.3176 33.1138C10.4218 33.1571 10.5117 33.2268 10.5787 33.3157C10.6889 33.4589 10.8385 33.5686 11.0103 33.6322C11.1821 33.6958 11.3689 33.7105 11.549 33.6748C11.6396 33.6572 11.7334 33.6638 11.8205 33.6937C11.9075 33.7237 11.9849 33.7758 12.0441 33.8448C12.1525 33.9766 12.2951 34.0776 12.4572 34.1374C12.6193 34.1972 12.7948 34.2137 12.9656 34.185C13.0897 34.1559 13.2197 34.1571 13.3432 34.1884C13.4668 34.2197 13.5801 34.2802 13.6739 34.3645C13.8009 34.482 13.96 34.5614 14.1321 34.5933C14.3041 34.6251 14.4819 34.608 14.6442 34.5441C14.7246 34.5037 14.8154 34.4876 14.9053 34.4977C14.9951 34.5078 15.08 34.5437 15.1488 34.6008C15.2602 34.6668 15.3774 34.7237 15.4985 34.7708C15.607 34.8174 15.7243 34.8415 15.8429 34.8415C15.9615 34.8415 16.0788 34.8174 16.1873 34.7708C16.271 34.7176 16.3688 34.6892 16.4688 34.6892C16.5687 34.6892 16.6661 34.7176 16.7497 34.7708C16.915 34.8684 17.1051 34.92 17.2984 34.92C17.4917 34.92 17.6812 34.8684 17.8465 34.7708C17.9141 34.7317 17.9911 34.7112 18.0697 34.7112C18.1482 34.7112 18.2253 34.7317 18.2928 34.7708C18.4548 34.8678 18.6409 34.9191 18.8311 34.9191C19.0212 34.9191 19.2078 34.8678 19.3698 34.7708C19.4581 34.707 19.5625 34.668 19.672 34.658C19.7815 34.648 19.8919 34.6674 19.9909 34.7141C20.1518 34.7753 20.3263 34.7936 20.4969 34.767C20.6675 34.7405 20.8279 34.67 20.9612 34.563C21.0305 34.5007 21.1149 34.4567 21.2066 34.4352C21.2983 34.4137 21.3944 34.4154 21.4852 34.4401C21.6582 34.5065 21.8468 34.5231 22.0291 34.4879C22.2114 34.4527 22.3799 34.3672 22.5138 34.2417C22.5835 34.1704 22.6714 34.1188 22.7687 34.0922C22.866 34.0656 22.9691 34.065 23.0667 34.0905C23.2413 34.1327 23.4246 34.1267 23.5959 34.0733C23.7673 34.0199 23.92 33.9212 24.037 33.7881C24.1025 33.7044 24.1911 33.6404 24.2924 33.6036C24.3937 33.5668 24.5035 33.5588 24.6093 33.5803C24.797 33.6082 24.9893 33.5819 25.1618 33.5046C25.3343 33.4274 25.4793 33.3025 25.5797 33.1456C25.611 33.0845 25.6597 33.0333 25.7199 32.9982C25.7801 32.963 25.8492 32.9453 25.9194 32.9471C25.9902 32.9565 26.0622 32.9565 26.133 32.9471C26.2853 32.945 26.4345 32.9079 26.5694 32.839C26.7043 32.77 26.8208 32.6711 26.9091 32.5503C26.9626 32.4443 27.0437 32.3537 27.1441 32.2875C27.2445 32.2212 27.3605 32.1815 27.4814 32.1723C27.633 32.1756 27.7828 32.1387 27.9145 32.0655C28.0461 31.9922 28.1546 31.8854 28.2286 31.7566C28.2804 31.6273 28.3674 31.5141 28.4802 31.4292C28.593 31.3443 28.7276 31.2909 28.8691 31.2747C29.0243 31.245 29.1688 31.176 29.288 31.0749C29.4072 30.9737 29.4971 30.8438 29.5486 30.6982C29.5775 30.6023 29.6322 30.5157 29.7073 30.4476C29.7824 30.3794 29.8751 30.3322 29.9754 30.3108C30.1551 30.275 30.3203 30.1902 30.4525 30.0665C30.5848 29.9427 30.6786 29.785 30.7226 29.6116C30.7444 29.5225 30.79 29.4407 30.8548 29.3743C30.9195 29.308 31.001 29.2594 31.0912 29.2336C31.2695 29.1856 31.4298 29.0889 31.5536 28.955C31.6774 28.821 31.7592 28.6554 31.7896 28.4777C31.8004 28.3796 31.8388 28.2863 31.9004 28.208C31.962 28.1297 32.0448 28.0694 32.1392 28.0336C32.3138 27.9661 32.4642 27.8506 32.5727 27.7013C32.6812 27.552 32.743 27.3753 32.7504 27.1926C32.752 27.0972 32.7811 27.0041 32.8343 26.9239C32.8874 26.8437 32.9626 26.7796 33.0512 26.739C33.1962 26.6699 33.3193 26.5642 33.408 26.4329C33.4968 26.3016 33.548 26.1495 33.5558 25.9925C33.5513 25.8708 33.5781 25.7499 33.634 25.6409C33.6899 25.532 33.7734 25.4384 33.8761 25.3689C34.0302 25.2662 34.1502 25.1225 34.2224 24.9549C34.2947 24.7873 34.3162 24.603 34.2836 24.424C34.2673 24.3572 34.2703 24.2873 34.2926 24.2222C34.3149 24.1571 34.3554 24.0993 34.4096 24.0554C34.4758 24.0004 34.5374 23.9404 34.5939 23.8759C34.703 23.7698 34.7845 23.6398 34.8317 23.4969C34.879 23.3539 34.8909 23.202 34.8658 23.0538C34.8322 22.9564 34.8287 22.8514 34.8564 22.7521C34.884 22.6529 34.9412 22.5638 35.0208 22.4963C35.0707 22.4433 35.1163 22.3864 35.1567 22.3262C35.2466 22.2122 35.306 22.0784 35.3297 21.9366C35.3534 21.7947 35.3408 21.6494 35.2927 21.5136C35.258 21.4298 35.2485 21.3381 35.2657 21.2493C35.2829 21.1606 35.3262 21.0785 35.3899 21.0127C35.5247 20.8643 35.6135 20.6816 35.6462 20.486C35.6788 20.2903 35.6538 20.0896 35.5742 19.9072C35.5407 19.8188 35.5407 19.7216 35.5742 19.6332C35.6162 19.534 35.6679 19.439 35.7291 19.3497C35.8014 19.2346 35.8452 19.1046 35.857 18.9701C35.8688 18.8356 35.8485 18.7003 35.7973 18.5749C35.7155 18.4733 35.6632 18.3521 35.6462 18.2241C35.6291 18.096 35.6477 17.9658 35.7002 17.8473ZM35.4088 16.137C35.3929 16.2756 35.3431 16.4085 35.2634 16.5244C34.9723 16.8929 34.662 17.2425 34.3418 17.63C34.2556 17.4445 34.2181 17.241 34.2333 17.038C34.2486 16.835 34.316 16.6389 34.429 16.4677C34.6716 16.1086 34.9431 15.7684 35.2051 15.4094C35.3073 15.4986 35.3804 15.6153 35.415 15.7447C35.4495 15.8741 35.444 16.0105 35.3993 16.137H35.4088ZM35.2051 14.6534C35.113 14.9412 34.9863 15.2171 34.827 15.4755C34.6717 15.7117 34.4677 15.9196 34.2736 16.1747C34.1949 16.0308 34.1477 15.8727 34.1343 15.7101C34.121 15.5476 34.1417 15.3841 34.1959 15.2298C34.4094 14.7951 34.6813 14.3794 34.9336 13.9542C35.0554 14.0217 35.1493 14.1284 35.1989 14.2561C35.2485 14.3838 35.2505 14.5243 35.2051 14.6534ZM34.565 12.4423C34.6526 12.4888 34.7272 12.5551 34.7829 12.6357C34.8387 12.7163 34.874 12.8088 34.8853 12.9053C34.9258 13.1905 34.8746 13.4809 34.7393 13.7369C34.5453 14.0676 34.3319 14.3889 34.1087 14.7479C34.0228 14.6424 33.9597 14.521 33.923 14.3911C33.8863 14.2612 33.8771 14.1255 33.8955 13.992C34.0285 13.4427 34.2547 12.919 34.565 12.4423ZM34.0216 10.9871C34.1295 11.0353 34.2225 11.1106 34.2907 11.2052C34.3589 11.2999 34.3997 11.4105 34.4096 11.5257C34.4514 11.8884 34.3766 12.2548 34.1959 12.5746L33.7885 13.3306C33.6614 13.1894 33.5734 13.0189 33.5326 12.8354C33.4919 12.6519 33.5 12.4614 33.5558 12.2817C33.682 11.8848 33.8566 11.4407 34.0216 10.9871ZM33.3616 9.61696C33.4923 9.66264 33.6057 9.74577 33.6871 9.85538C33.7685 9.96499 33.8143 10.096 33.8178 10.2312C33.8599 10.5523 33.8129 10.8786 33.6819 11.1761L33.3521 11.951C33.2066 11.8104 33.1007 11.6357 33.0446 11.4437C32.9885 11.2517 32.9841 11.0489 33.0318 10.8548C33.1094 10.4579 33.2451 10.0516 33.3616 9.61696ZM32.3913 9.54141C32.4398 9.13509 32.5273 8.71928 32.6049 8.31296C32.7606 8.34609 32.8992 8.43146 32.9968 8.55409C33.0943 8.67673 33.1444 8.82886 33.1384 8.98388C33.1468 9.26621 33.1207 9.54852 33.0607 9.82487C32.9964 10.1074 32.9124 10.3852 32.8087 10.6564C32.6413 10.5242 32.5122 10.3519 32.4339 10.1564C32.3557 9.96095 32.3311 9.749 32.3624 9.54141H32.3913ZM31.9743 21.3718L30.5283 20.9844C30.4768 20.9739 30.4277 20.9547 30.3829 20.9277L30.48 20.5876L32.333 21.0694C32.4591 21.0694 32.401 20.7671 32.6338 20.8994C32.5659 21.1356 32.5077 21.3813 32.4301 21.6175C32.4301 21.6648 32.3234 21.7025 32.2458 21.7214C32.2652 21.4758 32.139 21.4096 31.945 21.334L31.9743 21.3718ZM20.2335 31.1801C20.2335 31.1801 20.1363 31.0951 20.0781 31.0573C20.0372 31.0401 20.0009 31.0143 19.9715 30.9817C19.9715 30.9817 19.9715 30.9061 20.0297 30.8778C20.085 30.7758 20.1136 30.6623 20.1136 30.5471C20.1136 30.4318 20.085 30.3183 20.0297 30.2164C20.0297 30.2164 19.9617 30.2164 19.952 30.2164C19.9318 30.2242 19.914 30.2371 19.9004 30.2536C19.8868 30.2702 19.8778 30.2899 19.8743 30.3108C19.8743 30.3959 19.8743 30.4809 19.8743 30.5943C19.8743 30.7077 19.5346 30.5943 19.5152 30.5943C19.4766 30.4486 19.4766 30.2959 19.5152 30.1502C19.5152 29.9801 20.2431 29.9045 20.3595 30.0368C20.4568 30.179 20.5036 30.3482 20.4931 30.5188C20.4826 30.6894 20.4153 30.8519 20.3012 30.9817C20.5535 30.9817 20.6118 31.1707 20.6215 31.3786C20.6312 31.5865 20.6216 31.6243 20.6798 31.7471C20.6916 31.784 20.6947 31.823 20.6888 31.8612C20.6829 31.8993 20.6681 31.9357 20.6457 31.9676C20.6232 31.9994 20.5939 32.0259 20.5594 32.045C20.525 32.0641 20.4862 32.0753 20.4467 32.0778L20.2041 32.1251C19.8257 32.1251 19.6706 32.0306 19.69 31.6621C19.7078 31.6144 19.7422 31.5743 19.7872 31.5487C19.8744 31.5429 19.9619 31.5429 20.0492 31.5487C20.063 31.6512 20.0856 31.7523 20.1169 31.8511C20.1169 31.8511 20.1849 31.9077 20.214 31.9361C20.2432 31.9644 20.2818 31.8605 20.2818 31.8321C20.2763 31.613 20.2502 31.3947 20.2041 31.1801H20.2335ZM18.1668 29.0068C15.0164 29.0626 11.9714 27.9009 9.69838 25.7758C7.42533 23.6508 6.10924 20.7355 6.03792 17.6677C6.02255 16.1388 6.31783 14.622 6.90684 13.2047C7.49585 11.7874 8.36658 10.4976 9.46954 9.40939C10.5725 8.32123 11.8856 7.45628 13.3333 6.86431C14.7809 6.27234 16.3348 5.96502 17.9048 5.96011C21.0429 5.96758 24.0501 7.18423 26.27 9.34428C28.4899 11.5043 29.742 14.4322 29.7523 17.4882C29.7503 20.5067 28.5326 23.4041 26.3609 25.5578C24.1892 27.7116 21.2365 28.9499 18.1374 29.0068H18.1668ZM18.9524 32.2007H18.5643L18.4771 30.6227H18.2734C18.2637 30.5569 18.2637 30.49 18.2734 30.4242C18.3234 30.3205 18.4053 30.2346 18.5079 30.1787C18.6106 30.1228 18.7288 30.0995 18.8457 30.1124L18.9524 32.2007ZM16.8857 31.3124C16.711 31.3124 16.5946 31.3125 16.6043 31.1046C16.614 30.8967 16.6043 30.5754 16.6625 30.3108C16.7208 30.0462 16.7793 30.0935 16.9345 30.0935C17.5652 30.0935 17.6134 30.0935 17.594 30.7077C17.594 31.1234 17.5454 31.5298 17.5163 31.9455C17.5163 32.144 17.4194 32.2101 17.206 32.2101H16.7597C16.732 32.209 16.705 32.2023 16.6801 32.1906C16.6551 32.1789 16.6329 32.1624 16.6147 32.1421C16.5965 32.1217 16.5829 32.098 16.5744 32.0724C16.566 32.0467 16.5628 32.0196 16.5654 31.9928C16.5654 31.8605 16.5654 31.7282 16.5654 31.5676H16.9345C16.9246 31.6682 16.9246 31.7694 16.9345 31.87C16.9345 31.9172 16.9926 31.9456 17.0217 31.9834C17.0508 32.0212 17.1188 31.9172 17.1188 31.8794C17.1188 31.6715 17.1188 31.4636 17.1188 31.2368L16.8857 31.3124ZM15.3914 30.3675C15.3914 30.3675 15.3914 30.3675 15.3914 30.3108C15.404 30.2503 15.429 30.1928 15.4648 30.1417C15.5006 30.0907 15.5465 30.0472 15.5998 30.0138C15.6532 29.9803 15.7131 29.9576 15.7756 29.9469C15.8381 29.9363 15.9023 29.9379 15.9642 29.9518C15.9642 29.9518 16.0317 30.0368 16.022 30.0841C15.925 30.6888 15.8186 31.2935 15.7216 31.8983C15.7216 32.0022 15.6535 32.04 15.5468 32.0117L15.3137 31.9644L15.5757 30.377L15.3914 30.3675ZM5.43621 11.8848C5.56905 11.9848 5.70812 12.0764 5.85314 12.1588C6.01809 12.2439 6.03782 12.3478 5.94079 12.4801C5.90912 12.5275 5.883 12.5782 5.86309 12.6313L3.92247 11.743L4.07787 11.4123L4.84398 11.7336C4.84398 11.7336 4.8444 11.658 4.78618 11.6391L4.40762 11.3651C4.12623 11.1856 4.1264 11.1855 4.33987 10.8737L6.2805 11.743L6.12509 12.0738L5.27133 11.7242V11.7809C5.32473 11.8179 5.37969 11.8525 5.43621 11.8848ZM3.62161 17.8945L2.86498 17.7906C2.69032 17.7906 2.74841 17.6394 2.729 17.5449C2.7096 17.4504 2.78737 17.3937 2.8844 17.3937C3.51511 17.3937 4.1358 17.3937 4.7568 17.3937C4.98968 17.3937 4.88287 17.5922 4.92168 17.7528H3.83529V17.8473L4.90225 17.9984V18.367H4.7279C4.12631 18.367 3.53432 18.367 2.93273 18.367C2.77748 18.367 2.74818 18.3103 2.73848 18.178C2.72877 18.0457 2.73842 17.9796 2.92278 17.9796H3.79644V17.8945H3.62161ZM3.56334 16.2503L2.89388 16.0897C2.89388 16.0897 2.82588 16.0047 2.81618 15.9574C2.80648 15.9102 2.81618 15.7968 2.81618 15.674L4.9899 15.8535L4.9411 16.222L4.04849 16.1747V16.2314L4.21337 16.2976L4.61135 16.3921C4.96066 16.4772 4.96047 16.4771 4.90225 16.8551L2.74843 16.6756L2.79675 16.307L3.76707 16.3827V16.3165L3.56334 16.2503ZM4.18447 13.1226L3.76707 12.9148C3.46627 12.7731 3.4664 12.773 3.66046 12.4234C3.93806 12.6478 4.25819 12.8166 4.60282 12.9204C4.94746 13.0242 5.30967 13.0608 5.66884 13.0282C5.66884 13.3967 5.61096 13.4061 5.29076 13.3683C4.97056 13.3305 4.844 13.3116 4.62083 13.2927V13.3589L5.51391 13.6518L5.39736 14.0014L3.34018 13.3494L3.45674 12.9998L4.30102 13.255V13.2077L4.18447 13.1226ZM3.75759 14.1904L3.69931 14.5117H3.21416C3.75858 14.7938 4.3757 14.9153 4.9899 14.8613C4.90765 14.8108 4.81973 14.7696 4.7279 14.7385C4.47562 14.6723 4.47543 14.6723 4.53365 14.4267C4.53708 14.3889 4.53708 14.351 4.53365 14.3133C4.69978 14.3448 4.86229 14.3922 5.01881 14.455C5.05882 14.4799 5.09265 14.5132 5.11783 14.5524C5.143 14.5917 5.15879 14.6359 5.16426 14.6818C5.1507 14.8486 5.11854 15.0133 5.06761 15.1731C5.06761 15.3054 4.92177 15.3527 4.77623 15.3338L3.19473 15.022C3.15982 15.0189 3.1261 15.0085 3.09571 14.9914C3.06532 14.9744 3.03877 14.9512 3.01848 14.9234C2.9982 14.8956 2.98467 14.8637 2.97821 14.8302C2.97175 14.7966 2.9725 14.7621 2.98106 14.729C2.97097 14.6601 2.97097 14.5901 2.98106 14.5211C3.1266 14.0676 3.28214 14.0014 3.75759 14.1999V14.1904ZM3.45674 19.019C3.45674 19.0851 3.45674 19.1513 3.45674 19.2174C3.45674 19.2836 3.45658 19.4064 3.30133 19.4158C3.20289 19.4393 3.10592 19.4678 3.01043 19.5009C3.60936 19.6097 4.22812 19.5405 4.78618 19.3024C4.64063 19.1418 4.45601 19.3024 4.27165 19.2457L4.21337 18.9056C4.34921 18.9056 4.46601 18.9056 4.58245 18.9056C4.88325 18.9056 4.93144 18.9056 4.97996 19.208C5.08669 19.7277 5.05785 19.7655 4.52417 19.841L3.23358 20.03C2.9813 20.03 2.90379 19.9734 2.86498 19.7466C2.81646 19.1229 2.83574 19.1135 3.45674 19.0284V19.019ZM3.72821 20.597C3.74644 20.6676 3.76942 20.737 3.79644 20.8049C3.79644 20.9088 3.79635 20.9561 3.69931 20.9844C3.5915 21.0182 3.48716 21.0625 3.38851 21.1167C4.01447 21.1494 4.63536 20.9908 5.16426 20.6631L4.6014 20.7293L4.50475 20.3797C4.67671 20.3354 4.8519 20.3038 5.02876 20.2852C5.07291 20.2919 5.11501 20.3081 5.15194 20.3326C5.18886 20.3571 5.21942 20.3893 5.24196 20.4269C5.30654 20.572 5.35231 20.7244 5.37793 20.8805C5.38814 20.9116 5.39142 20.9444 5.38741 20.9768C5.3834 21.0091 5.37222 21.0403 5.35472 21.0681C5.33722 21.0959 5.31382 21.1197 5.28602 21.1378C5.25822 21.156 5.22668 21.1682 5.19363 21.1734L3.61214 21.5892C3.57634 21.6007 3.53818 21.6042 3.5008 21.5995C3.46341 21.5948 3.42774 21.582 3.39609 21.5621C3.36445 21.5421 3.33762 21.5156 3.31792 21.4843C3.29821 21.453 3.28581 21.4178 3.28191 21.3813C3.27629 21.35 3.27629 21.3181 3.28191 21.2868C3.10725 20.7671 3.14603 20.7104 3.72821 20.6064V20.597ZM4.14562 22.1278L5.32913 21.6837C5.362 21.6649 5.39914 21.654 5.43716 21.6518C5.47517 21.6495 5.51306 21.656 5.54802 21.6707C5.58298 21.6854 5.61416 21.708 5.63852 21.7365C5.66287 21.765 5.67977 21.7987 5.68826 21.8349C5.75619 21.9861 5.81437 22.1467 5.89199 22.3451C5.96962 22.5436 5.77559 22.5058 5.68826 22.5436C5.20311 22.742 4.71818 22.9215 4.22332 23.101C4.00985 23.1861 3.90319 23.1011 3.81587 22.931C3.56358 22.4113 3.59254 22.3451 4.14562 22.1372V22.1278ZM5.01881 9.66425L5.22253 9.34295L7.06603 10.439L6.87225 10.7509L5.98912 10.2406V10.2973L6.7846 10.9777L6.58087 11.2895L4.7279 10.1934L4.93163 9.88157L5.82424 10.3918L5.01881 9.66425ZM7.15368 7.04679L7.51234 6.6688L9.08436 8.13348L8.79345 8.36971L7.82314 7.51925L8.61862 8.57757L8.4149 8.78542L7.26028 8.1051L8.23059 9.05003L7.93969 9.35241L6.36767 7.89725L6.7846 7.55703L8.00744 8.32242L8.05577 8.26572L7.15368 7.04679ZM10.6853 6.38533L10.9279 6.77279H10.8506L10.5981 6.93341L10.3167 6.48926L9.46291 5.13803L9.61831 5.04356C9.76062 4.94906 9.90589 4.864 10.0547 4.78841C10.096 4.76161 10.1422 4.74239 10.1906 4.73172C10.2375 4.73374 10.2826 4.74796 10.3219 4.77289C10.3611 4.79782 10.393 4.83257 10.4138 4.87348L10.5204 5.04356L10.8407 5.53494C10.8823 5.60109 10.9089 5.67521 10.9184 5.75225C10.9048 5.77862 10.8848 5.80134 10.8601 5.8184C10.8356 5.8482 10.8062 5.87371 10.7729 5.89395H10.7147H10.6275L10.6853 6.38533ZM9.96749 6.95232C10.1616 7.20745 10.152 7.29245 9.89974 7.49088C9.64746 7.68931 9.64706 7.661 9.49181 7.76494C9.40404 7.71086 9.32268 7.64747 9.24923 7.57595C8.92903 7.19798 8.61853 6.81053 8.27892 6.42311C8.12367 6.23413 8.14313 6.1302 8.3372 5.96956C8.79324 5.59159 8.84166 5.59162 9.21038 6.05463C9.48207 6.36646 9.73462 6.65935 9.96749 6.96172V6.95232ZM4.9122 9.50357C4.84428 9.61696 4.77615 9.7304 4.69853 9.84379C4.6209 9.95718 4.51453 9.99498 4.33987 9.84379L4.65968 9.57918L4.74733 9.19179C4.94139 9.27683 4.98983 9.37129 4.9122 9.51303V9.50357ZM11.4618 4.55218C11.6365 4.93015 11.8207 5.30813 12.0147 5.6861L12.1895 5.80894C12.1993 5.73997 12.1993 5.67 12.1895 5.60103C12.1596 5.50937 12.1205 5.42079 12.073 5.33648L12.4127 5.17586C12.4314 5.22177 12.4539 5.26599 12.4804 5.30811C12.7036 5.79947 12.5972 5.98849 12.0441 6.11133C11.9835 6.13015 11.9178 6.12601 11.8603 6.09973C11.8027 6.07345 11.7572 6.02695 11.7333 5.96956C11.5004 5.4971 11.2676 5.02465 11.0444 4.56164C10.9571 4.3632 11.0446 4.27818 11.1998 4.17424H11.2676C11.7624 3.92856 11.8692 3.97579 12.0536 4.5144L11.7432 4.65611L11.4907 4.29703H11.4035C11.4078 4.38775 11.4275 4.47718 11.4618 4.56164V4.55218ZM13.0627 3.47495L13.4313 3.35211C13.4063 4.07728 13.6746 4.78307 14.1785 5.31756L13.9459 5.40263C13.8391 5.44988 13.771 5.40261 13.7128 5.31756C13.6545 5.23252 13.4412 4.85457 13.3053 4.62779H13.247L13.5384 5.52548L13.1793 5.63886L12.4804 3.65449L12.8396 3.52224L13.1016 4.2498H13.1693L13.0627 3.47495ZM14.431 3.09702C15.0132 2.93638 15.0518 2.96474 15.1877 3.52224C15.2653 3.88131 15.3526 4.24034 15.4302 4.59941C15.5079 4.95848 15.4301 5.04356 15.0905 5.10971L14.7996 5.1664C14.7367 5.17453 14.6728 5.15829 14.622 5.12119C14.5712 5.08409 14.5378 5.02907 14.5281 4.96795C14.4117 4.46714 14.2952 3.96636 14.1884 3.46555C14.1302 3.24822 14.1981 3.17262 14.431 3.10647V3.09702ZM16.0125 2.81355C16.129 2.81355 16.1774 2.81351 16.1968 2.9458C16.215 3.23838 16.2571 3.52913 16.3228 3.81517C16.3307 3.78413 16.3307 3.75168 16.3228 3.72064C16.3532 3.49186 16.3696 3.26153 16.3716 3.03086C16.3716 2.83243 16.3717 2.73796 16.6336 2.75686H16.7791L17.0023 4.83564L16.6237 4.88294L16.4977 3.89072H16.4394C16.4394 4.0797 16.4396 4.25927 16.3911 4.44825C16.3862 4.49854 16.3862 4.54913 16.3911 4.59941C16.3911 4.93959 16.3911 4.93961 15.9836 4.92071C15.9836 4.75063 15.9253 4.57109 15.9059 4.39156C15.8574 3.91909 15.8182 3.44665 15.76 2.99309C15.7697 2.8041 15.9252 2.8513 15.9931 2.82295L16.0125 2.81355ZM15.8571 2.43556C15.9476 2.43098 16.0386 2.43098 16.1291 2.43556C16.1291 2.43556 16.2163 2.50173 16.2357 2.52063C16.3253 2.46599 16.4195 2.41856 16.5171 2.37886C16.5171 2.37886 16.624 2.37885 16.6725 2.4261C16.721 2.47334 16.6237 2.58673 16.5848 2.59618C16.383 2.63271 16.1788 2.65482 15.9737 2.66233C15.9737 2.66233 15.8959 2.51115 15.8571 2.43556ZM18.4966 4.62779C18.5548 4.07973 18.6032 3.52222 18.642 2.96471C18.642 2.72848 18.642 2.70959 18.904 2.73794L19.4086 2.80409C19.5542 2.80409 19.6126 2.89858 19.6029 3.04032C19.6029 3.33325 19.5543 3.62618 19.5252 3.92855C19.5239 3.9571 19.5167 3.98512 19.5043 4.01103C19.4919 4.03693 19.4743 4.06018 19.4527 4.07948C19.431 4.09879 19.4059 4.11378 19.3783 4.12355C19.3507 4.13331 19.3214 4.13768 19.2921 4.13641H18.9429C18.9429 4.32539 18.8946 4.49549 18.8946 4.67502C18.8946 4.85456 18.7587 4.8451 18.6325 4.8451C18.5064 4.8451 18.4869 4.75064 18.4966 4.63725V4.62779ZM20.8352 3.91909C20.9419 3.91909 21.0194 3.97581 20.9418 4.11755L20.5149 4.0514L20.35 4.85456L20.7864 4.95849C20.7864 5.06243 20.7862 5.12861 20.6504 5.10971C20.5146 5.09081 20.243 5.04356 20.0392 4.98686C20.0392 4.98686 19.9423 4.90182 19.952 4.86402C20.0555 4.23407 20.1718 3.62933 20.3012 3.04978C20.3012 2.99308 20.3982 2.91749 20.4467 2.92694C20.6795 2.92694 20.9124 3.01198 21.155 3.04978C21.155 3.23877 21.0483 3.21984 20.9513 3.20094C20.6699 3.12535 20.6795 3.20093 20.631 3.42772C20.6255 3.47165 20.6255 3.51608 20.631 3.56002C20.5339 3.92854 20.5341 3.87186 20.8446 3.92855L20.8352 3.91909ZM23.2799 4.76949L23.8428 3.92855H23.911C24.2894 4.07974 24.2212 4.02305 24.0853 4.34432L23.4453 5.83726C23.4453 5.93175 23.3771 6.0357 23.2316 5.96011C23.086 5.88451 22.9888 5.88454 23.0762 5.69556C23.1635 5.50657 23.3094 5.16637 23.4258 4.9018H23.3676L22.7853 5.78057L22.4261 5.63886L23.261 3.74902L23.6101 3.88132L23.2316 4.82624L23.2799 4.76949ZM26.1908 5.33648L26.288 5.20418L27.0157 5.71442V5.78057C26.9575 5.78057 26.8799 5.78057 26.8314 5.78057C26.7829 5.78057 26.657 5.78058 26.5988 5.84672L25.6285 7.1318L25.5119 7.25465L25.2016 7.03733L26.3462 5.48764L26.1908 5.33648ZM27.5786 6.13964L28.1125 6.63102C28.135 6.64965 28.1527 6.6728 28.1651 6.6989C28.1775 6.72501 28.1841 6.75342 28.1841 6.78219C28.1841 6.81095 28.1775 6.83936 28.1651 6.86547C28.1527 6.89157 28.135 6.91478 28.1125 6.93341L27.4814 7.61372C27.4605 7.63607 27.435 7.65393 27.4066 7.66615C27.3782 7.67837 27.3476 7.68466 27.3166 7.68466C27.2855 7.68466 27.2549 7.67837 27.2265 7.66615C27.1981 7.65393 27.1726 7.63607 27.1517 7.61372L26.8996 7.40587L26.395 7.94448L26.1037 7.69879L27.5786 6.13964ZM25.5313 5.12857L25.3859 5.38372L25.0462 5.20418C25.0904 5.13788 25.1294 5.06841 25.1627 4.99632C25.1627 4.93018 25.1625 4.86399 25.2111 4.77895C24.7678 5.19398 24.4662 5.73169 24.3473 6.31918L24.6676 5.89395L24.9879 6.06409C24.9176 6.20423 24.8328 6.33716 24.7354 6.46094C24.6642 6.5139 24.581 6.54952 24.4928 6.56487C24.4928 6.56487 24.4155 6.56487 24.3767 6.56487C23.8139 6.30974 23.7945 6.25303 24.0953 5.72388L24.6676 4.73172C24.8229 4.47659 24.9199 4.44822 25.1916 4.59941L25.3859 4.7034C25.6285 4.79789 25.6963 4.91124 25.5508 5.13803L25.5313 5.12857ZM22.4261 3.57894C22.3299 3.56344 22.2355 3.53809 22.1447 3.50333L21.5724 5.39317L21.2133 5.28925L21.8344 3.26709C22.0576 3.33324 22.2712 3.38996 22.4749 3.46555C22.4749 3.46555 22.533 3.53168 22.5621 3.56948C22.5912 3.60727 22.4844 3.58834 22.4456 3.58834L22.4261 3.57894ZM29.2183 23.5168C29.3474 23.5784 29.4804 23.632 29.6163 23.6774C29.6842 23.6774 29.7616 23.6774 29.8295 23.6774C29.8974 23.6774 29.8297 23.5263 29.7423 23.4885C29.6346 23.4054 29.5211 23.3295 29.4026 23.2617L29.568 22.9404L31.3532 24.1121C31.1203 24.6696 31.1203 24.6696 30.5478 24.4428L29.2477 23.9326L29.0634 23.8475L29.2183 23.5168ZM31.1106 23.0066C31.0039 22.9499 30.9359 22.827 30.8486 22.7325C30.7613 22.638 30.6642 22.827 30.5866 22.7987C30.3499 22.7295 30.1219 22.6345 29.9072 22.5152C29.8801 22.4825 29.8609 22.4443 29.8508 22.4035C29.8408 22.3626 29.8401 22.3201 29.8489 22.279C29.9169 22.0616 30.0141 21.8443 30.1015 21.6175L32.1198 22.3829C32.0228 22.6191 31.9451 22.8176 31.8578 23.016C31.8482 23.0483 31.8318 23.0782 31.8095 23.1038C31.7871 23.1294 31.7592 23.15 31.728 23.1643C31.6967 23.1786 31.6625 23.1863 31.628 23.1868C31.5935 23.1873 31.5592 23.1806 31.5276 23.1672C31.3935 23.129 31.2637 23.0784 31.1395 23.016L31.1106 23.0066ZM31.9838 14.7763H32.7215L32.7892 15.1637C32.4246 15.1301 32.0576 15.1301 31.6929 15.1637C31.3576 15.2544 31.0325 15.3779 30.7226 15.5322C30.5868 15.2109 30.5964 15.1826 30.9069 15.0786L31.2949 14.9463L31.3726 14.8519C31.1786 14.8519 31.033 14.8519 30.8875 14.8519C30.5479 14.8519 30.5283 14.8519 30.5089 14.4928C31.236 14.597 31.9777 14.4499 32.6049 14.077C32.6126 14.1418 32.6287 14.2054 32.6533 14.266C32.7115 14.4267 32.6531 14.5022 32.4979 14.54C32.3263 14.5868 32.1583 14.6436 31.9938 14.7101L31.9838 14.7763ZM32.5272 16.7512L31.1495 16.8646C30.8778 16.8646 30.8197 16.8646 30.7809 16.5527C30.7129 16.0519 30.7804 15.9007 31.3044 15.9007C31.7119 15.9007 32.1098 15.844 32.5173 15.8157C32.9248 15.7873 32.9155 15.8724 32.9252 16.1937C32.9301 16.2313 32.9301 16.2694 32.9252 16.307C32.9834 16.685 32.9249 16.7322 32.5561 16.7606L32.5272 16.7512ZM31.8384 13.6235L30.742 13.9636H30.5866H30.5189C30.1599 13.8975 30.2371 13.5762 30.1498 13.3589C30.0625 13.1415 30.2082 13.1132 30.344 13.066C30.8389 12.9148 31.3144 12.7541 31.8189 12.6124C32.0518 12.5463 32.149 12.6124 32.2363 12.8297C32.4886 13.4345 32.4883 13.4439 31.8673 13.6329L31.8384 13.6235ZM32.2941 20.1434C32.1195 20.1434 32.0516 20.0867 32.1098 19.9167C32.1129 19.86 32.1129 19.8032 32.1098 19.7466H32.5756C32.0329 19.4817 31.4165 19.3955 30.8192 19.5009L31.285 19.6427C31.285 19.6427 31.3433 19.9734 31.1395 19.945C30.6738 19.8789 30.5575 19.8789 30.5866 19.5576C30.5866 19.019 30.703 18.9623 31.2561 19.0473L32.5272 19.2552C32.7407 19.2552 32.7892 19.3686 32.7698 19.586C32.7794 19.6423 32.7794 19.6997 32.7698 19.756C32.7504 20.1813 32.7505 20.1718 32.3235 20.1529L32.2941 20.1434ZM32.2941 18.4898L31.159 18.4331C31.1057 18.4144 31.0474 18.4144 30.9941 18.4331C30.8291 18.5749 30.645 18.4331 30.48 18.4331C30.3151 18.4331 30.402 18.263 30.3535 18.1497H30.7709V17.6583H30.4606C30.3636 17.3748 30.4024 17.3276 30.6837 17.337C30.7576 17.3246 30.8333 17.3283 30.9055 17.3479C30.9776 17.3675 31.0441 17.4025 31.1007 17.4504C31.1007 17.4504 31.2462 17.4504 31.3238 17.4504L32.7698 17.5166H32.9541V18.4615L32.2941 18.4898ZM31.6346 7.05625C31.7505 7.06656 31.8609 7.10835 31.9535 7.17685C32.0461 7.24534 32.1173 7.33776 32.1586 7.44364C32.3033 7.73769 32.3408 8.07093 32.2652 8.38857C32.1876 8.70039 32.1195 9.01222 32.0516 9.33349C31.8914 9.23057 31.7605 9.0901 31.6706 8.92499C31.5808 8.75988 31.535 8.57542 31.5375 8.38857C31.586 7.9539 31.6347 7.51927 31.6735 7.06571L31.6346 7.05625ZM31.5181 10.9399L31.9161 11.7903L31.7318 11.8848C31.2466 12.1021 30.7614 12.31 30.2763 12.5368C30.1249 12.6225 29.9789 12.7171 29.8395 12.8203L29.6258 12.9053L29.4903 12.6313C29.6067 12.5557 29.7911 12.499 29.7911 12.4329C29.7692 12.2838 29.7195 12.1397 29.6452 12.0076C29.5214 12.0563 29.3904 12.085 29.2572 12.0927C29.2087 12.0927 29.1697 11.9415 29.1212 11.8376C29.3541 11.7714 29.5291 11.573 29.7911 11.6675C29.8494 11.6675 29.9367 11.6675 30.0143 11.6013L31.5181 10.9399ZM30.7226 5.8751C30.8314 5.87837 30.937 5.90985 31.0291 5.96633C31.1212 6.02282 31.1965 6.10221 31.2466 6.19634C31.4619 6.59009 31.5271 7.04535 31.4309 7.48148C31.4309 7.69881 31.3726 7.90665 31.3338 8.14288C31.165 8.05831 31.0212 7.93325 30.9159 7.77948C30.8106 7.62571 30.7473 7.44832 30.7321 7.26411C30.6447 6.83889 30.6738 6.37587 30.6738 5.90341L30.7226 5.8751ZM30.5961 9.37133L30.8098 9.69257L30.0043 10.3351V10.3918L30.9746 9.95718L31.1784 10.2784L29.6258 10.8548L29.4415 10.921C29.3834 10.9464 29.3204 10.9585 29.2567 10.9564C29.193 10.9543 29.1305 10.938 29.0743 10.9088C29.0181 10.8797 28.9694 10.8383 28.9322 10.788C28.8949 10.7377 28.8699 10.6797 28.8592 10.6186C28.8522 10.6038 28.8488 10.5876 28.8488 10.5713C28.8488 10.555 28.8522 10.5389 28.8592 10.5241C28.8592 10.5241 28.9469 10.5241 28.9663 10.5241C29.1797 10.7225 29.3253 10.5241 29.4709 10.4296L30.4412 9.48471L30.5961 9.37133ZM30.1498 5.04356C30.3379 5.26823 30.4438 5.54748 30.4506 5.83726C30.4506 6.22468 30.4506 6.6121 30.4506 7.01842C30.4026 7.00214 30.3568 6.97996 30.3147 6.95232C30.1586 6.85956 30.0259 6.73433 29.9252 6.58569C29.8246 6.43705 29.7589 6.26863 29.7329 6.09241C29.7329 5.67664 29.6549 5.25145 29.6064 4.81678C29.7045 4.81355 29.8019 4.83541 29.8887 4.88017C29.9755 4.92493 30.049 4.99099 30.1015 5.07188L30.1498 5.04356ZM29.7812 8.27518C29.8165 8.31379 29.8491 8.35485 29.8783 8.39803C30.1985 8.7949 30.1692 8.9083 29.6841 9.18233L29.5291 8.99333C29.5291 8.99333 29.5291 8.93666 29.4709 8.89886C29.5529 8.8378 29.6304 8.77149 29.7035 8.70041C29.7035 8.70041 29.7035 8.61536 29.7035 8.57757C29.6527 8.56388 29.5993 8.56388 29.5486 8.57757C29.4321 8.65316 29.3253 8.74767 29.2089 8.83271C29.0924 8.91776 28.6846 9.21067 28.4323 9.4091C28.373 9.46838 28.318 9.53153 28.2674 9.5981C28.5294 9.67369 28.6168 9.45634 28.7914 9.39964L29.0245 9.68311C28.8887 9.7776 28.7624 9.88158 28.6266 9.95718C28.4907 10.0328 28.4325 10.0139 28.4034 9.95718C28.2472 9.7785 28.1046 9.58899 27.9765 9.39019C27.9765 9.39019 27.9766 9.23899 28.0737 9.20119L29.3638 8.25627C29.3906 8.23438 29.4221 8.21821 29.4557 8.20868C29.4893 8.19916 29.5243 8.19651 29.559 8.20096C29.5937 8.2054 29.6272 8.2168 29.6571 8.23446C29.687 8.25213 29.7128 8.27567 29.7329 8.30356L29.7812 8.27518ZM28.898 3.98525C29.1758 4.22766 29.3433 4.56753 29.3638 4.93017C29.3638 5.25145 29.3638 5.58218 29.4221 5.94125C29.2343 5.87978 29.0657 5.77299 28.9317 5.63091C28.7977 5.48882 28.7025 5.316 28.6555 5.12857C28.539 4.6939 28.481 4.24981 28.4034 3.79625C28.49 3.79661 28.5752 3.8164 28.6526 3.8541C28.73 3.89179 28.7975 3.94635 28.8497 4.01356L28.898 3.98525ZM27.6757 3.12533C27.997 3.42806 28.1935 3.83468 28.2286 4.26871C28.2286 4.50494 28.2869 4.7506 28.3257 5.01518C28.1683 4.99053 28.0196 4.92849 27.8927 4.83455C27.7657 4.74061 27.6645 4.61766 27.598 4.47657C27.4039 3.99466 27.2586 3.53165 27.0839 3.00249C27.1817 2.97896 27.284 2.98055 27.381 3.00704C27.4779 3.03354 27.5659 3.08408 27.6368 3.15371L27.6757 3.12533ZM26.4045 2.39778C26.5851 2.58735 26.7327 2.80439 26.8413 3.04032C26.9677 3.40559 27.0713 3.77792 27.1517 4.15533C27.0241 4.14386 26.9001 4.10788 26.7869 4.04949C26.6736 3.99111 26.5732 3.91149 26.4917 3.81517C26.2182 3.45871 26.0174 3.05456 25.8999 2.62455C25.8514 2.50171 25.8125 2.37884 25.764 2.2371C25.8718 2.2141 25.9841 2.22044 26.0885 2.25544C26.1929 2.29044 26.2857 2.35277 26.3562 2.43556L26.4045 2.39778ZM24.8519 1.65125C25.0729 1.79513 25.2614 1.98168 25.4053 2.19933C25.5985 2.59982 25.77 3.00983 25.9194 3.42772C25.6975 3.40128 25.4857 3.32306 25.3015 3.19967C25.1174 3.07628 24.9665 2.91138 24.8619 2.71902C24.6775 2.35995 24.5026 1.99145 24.3279 1.61348C24.4059 1.5814 24.4915 1.57062 24.5752 1.58228C24.659 1.59393 24.738 1.62758 24.8036 1.67963L24.8519 1.65125ZM23.3676 1.10324C23.6602 1.20681 23.9001 1.4168 24.037 1.68909L24.5899 2.76626C24.456 2.78104 24.3206 2.76856 24.1919 2.72952C24.0633 2.69047 23.9443 2.62573 23.8428 2.53948C23.4423 2.12157 23.1146 1.64282 22.8724 1.1221C22.9436 1.09394 23.0198 1.08027 23.0965 1.0819C23.1733 1.08352 23.249 1.10041 23.3188 1.13156L23.3676 1.10324ZM21.9315 0.725246C22.143 0.817774 22.3342 0.949313 22.4944 1.11264C22.7564 1.46226 22.9696 1.85916 23.2316 2.26548C23.0287 2.28465 22.8242 2.25603 22.6351 2.18202C22.4459 2.10802 22.2776 1.99079 22.1447 1.84025C21.8536 1.50008 21.6017 1.13155 21.3203 0.77248C21.403 0.71855 21.4995 0.688214 21.5989 0.684874C21.6984 0.681535 21.7964 0.705307 21.8827 0.753563L21.9315 0.725246ZM20.3595 0.432321C20.6379 0.492038 20.8857 0.646097 21.0583 0.867007C21.3009 1.17883 21.5336 1.50011 21.7955 1.81193C21.6139 1.86104 21.4221 1.86238 21.2398 1.81591C21.0574 1.76944 20.8911 1.67678 20.7575 1.54733C20.4179 1.22605 20.1074 0.866954 19.7872 0.517332C19.8628 0.466162 19.9501 0.434205 20.0416 0.424305C20.1331 0.414404 20.2259 0.426876 20.3112 0.460639L20.3595 0.432321ZM18.778 0.281101C19.1617 0.342065 19.508 0.541036 19.7483 0.838632C19.9424 1.08431 20.1655 1.32052 20.3983 1.5851C20.2508 1.62929 20.0956 1.64374 19.9421 1.62749C19.7886 1.61124 19.6401 1.56467 19.5057 1.49063C19.0457 1.19996 18.6333 0.843151 18.2829 0.432321C18.3444 0.382654 18.4159 0.346089 18.4928 0.324933C18.5697 0.303777 18.6501 0.298493 18.7292 0.309477L18.778 0.281101ZM17.2737 0.281101C17.4755 0.312018 17.6679 0.386293 17.8366 0.498473C18.1956 0.772501 18.5353 1.09378 18.904 1.4434C18.6179 1.55684 18.2976 1.55684 18.0114 1.4434C17.5137 1.20864 17.0633 0.888564 16.682 0.498473C16.7501 0.426505 16.8351 0.371692 16.9298 0.338775C17.0244 0.305857 17.1259 0.295808 17.2254 0.309477L17.2737 0.281101ZM15.9059 0.44178C16.1939 0.539531 16.4677 0.672896 16.7208 0.838632C16.9639 1.01499 17.1941 1.20757 17.4097 1.41502C17.2764 1.48815 17.1283 1.53198 16.9757 1.5434C16.8232 1.55483 16.6698 1.53359 16.5266 1.48117C16.0172 1.28039 15.5452 0.999469 15.1294 0.649636C15.2199 0.554381 15.3371 0.486737 15.4662 0.454872C15.5954 0.423006 15.731 0.428283 15.8571 0.470098L15.9059 0.44178ZM13.9653 0.69687C14.2618 0.627679 14.5742 0.671637 14.8385 0.819715C15.2072 1.03705 15.5661 1.26388 15.9542 1.51901C15.7784 1.62518 15.5784 1.68755 15.372 1.70074C15.1655 1.71392 14.9593 1.67746 14.7707 1.59456C14.3729 1.40558 13.9945 1.17879 13.5384 0.94256C13.6545 0.854724 13.7814 0.781708 13.9165 0.725246L13.9653 0.69687ZM12.5487 1.08432C12.8068 1.05695 13.068 1.08272 13.3153 1.15993C13.7224 1.33723 14.1175 1.53917 14.4988 1.76464C14.3907 1.85289 14.2654 1.9186 14.1302 1.95762C13.995 1.99663 13.8527 2.00816 13.7128 1.99147C13.1499 1.86049 12.6036 1.67036 12.0829 1.42448C12.1218 1.34381 12.18 1.27342 12.2526 1.21916C12.3252 1.16491 12.4098 1.12836 12.4999 1.11264L12.5487 1.08432ZM11.3358 1.5757C11.519 1.55601 11.704 1.57535 11.8787 1.63239C12.2669 1.76468 12.6455 1.94417 13.0627 2.11426C12.9313 2.24196 12.7694 2.33635 12.5918 2.38907C12.4142 2.44179 12.2264 2.45123 12.0441 2.41664C11.5711 2.29471 11.1049 2.14968 10.6469 1.98201C10.7039 1.86482 10.7946 1.76649 10.9084 1.6993C11.0223 1.6321 11.1539 1.59896 11.287 1.60402L11.3358 1.5757ZM9.69554 2.26548C9.94922 2.22335 10.2084 2.22335 10.4621 2.26548C10.8768 2.36833 11.2853 2.4945 11.685 2.64341C11.5359 2.79787 11.3493 2.91344 11.1425 2.97948C10.9357 3.04551 10.715 3.05993 10.501 3.0214C10.0934 2.95526 9.68612 2.82296 9.25918 2.71902C9.27872 2.62074 9.32497 2.52941 9.39326 2.45459C9.46156 2.37977 9.54928 2.32421 9.64721 2.29379L9.69554 2.26548ZM8.72523 2.93639C9.12928 2.92801 9.53259 2.98222 9.91916 3.09702L10.3167 3.2104C10.2286 3.3311 10.1162 3.43285 9.98597 3.50927C9.85575 3.58568 9.71076 3.63509 9.56004 3.65449C9.01085 3.68176 8.46053 3.62436 7.92974 3.48441C7.98565 3.33247 8.08851 3.20104 8.22396 3.10803C8.35941 3.01502 8.52111 2.96497 8.68685 2.96471L8.72523 2.93639ZM6.94995 3.98525C7.20684 3.81742 7.51507 3.74065 7.82314 3.76787L9.05545 3.91909C8.98254 4.05852 8.87533 4.17809 8.74323 4.26716C8.61113 4.35622 8.45802 4.41195 8.29835 4.42933C7.80349 4.42933 7.328 4.42933 6.80403 4.42933H6.68795C6.68982 4.34799 6.71084 4.26815 6.74954 4.19604C6.78825 4.12393 6.84358 4.06149 6.9111 4.01356L6.94995 3.98525ZM5.62051 5.14748C5.77136 4.98376 5.95971 4.85729 6.17058 4.77843C6.38144 4.69958 6.6088 4.67062 6.8334 4.69394L7.80371 4.76949L7.73596 4.91125C7.60341 5.08127 7.43319 5.22036 7.23849 5.31843C7.04378 5.4165 6.82934 5.47108 6.61025 5.47819H5.40684C5.45339 5.37141 5.51214 5.27005 5.58166 5.17586L5.62051 5.14748ZM4.55307 6.23417C4.8643 5.94706 5.27908 5.79088 5.70769 5.79949H6.678C6.59619 5.98112 6.47339 6.1425 6.31887 6.27172C6.16435 6.40093 5.98213 6.49466 5.78539 6.54595C5.33905 6.6499 4.87335 6.69718 4.3882 6.76333C4.36707 6.67608 4.36722 6.5852 4.38915 6.49814C4.41107 6.41109 4.45404 6.33031 4.51422 6.26249L4.55307 6.23417ZM3.58276 7.47202C3.79874 7.22822 4.09927 7.07014 4.42705 7.02788C4.79577 6.97118 5.15471 6.93342 5.56224 6.88617C5.52923 7.04098 5.45698 7.18523 5.35188 7.30575C5.24677 7.42626 5.11206 7.51917 4.96053 7.57595C4.46567 7.74603 3.99039 7.86885 3.43731 8.02003C3.40858 7.93339 3.40064 7.84149 3.4141 7.75139C3.42755 7.66129 3.46212 7.57542 3.51501 7.50034L3.58276 7.47202ZM2.7579 8.71933C2.94704 8.48872 3.20477 8.32045 3.49559 8.23741C3.86431 8.14291 4.23272 8.07676 4.64025 7.99172C4.60404 8.18442 4.51961 8.36545 4.39436 8.51874C4.2691 8.67203 4.10715 8.79284 3.92247 8.87049C3.50523 9.04058 3.06874 9.16345 2.6224 9.31463C2.58021 9.22294 2.56401 9.1218 2.57597 9.022C2.58793 8.9222 2.62742 8.82742 2.69015 8.74764L2.7579 8.71933ZM1.97189 10.1461C2.11554 9.94441 2.30062 9.77392 2.51533 9.64533C2.92326 9.47352 3.34125 9.3252 3.76707 9.20119L3.81587 9.26734C3.78864 9.47005 3.70938 9.66286 3.58561 9.82799C3.46183 9.99311 3.29752 10.1252 3.10756 10.2123C2.72913 10.3918 2.33087 10.5336 1.93304 10.7036C1.86897 10.6309 1.83171 10.5396 1.82644 10.4439C1.82118 10.3482 1.84841 10.2535 1.90414 10.1745L1.97189 10.1461ZM1.37066 11.573C1.47507 11.3159 1.67138 11.1045 1.92357 10.9777C2.30199 10.7981 2.68037 10.6469 3.09761 10.4674C3.10683 10.6144 3.0828 10.7617 3.02749 10.8988C2.97218 11.0359 2.88685 11.1596 2.77733 11.2612C2.36059 11.6171 1.88049 11.8957 1.36071 12.0833C1.30901 12.0147 1.27663 11.9343 1.26643 11.8498C1.25622 11.7653 1.26848 11.6797 1.30244 11.6013L1.37066 11.573ZM2.4182 15.7306C2.63167 15.7306 2.69963 15.7968 2.69963 15.948C2.70879 16.0864 2.70879 16.2253 2.69963 16.3637C2.69963 16.5055 2.57388 16.5433 2.37982 16.496L2.53475 16.1559L2.4182 15.7306ZM0.90493 12.9903C1.04497 12.7571 1.22535 12.5493 1.43841 12.3762C1.79424 12.153 2.16377 11.951 2.5447 11.7714C2.55285 11.9067 2.55285 12.0424 2.5447 12.1777C2.47631 12.4331 2.32253 12.6591 2.10787 12.8203C1.74885 13.0754 1.38023 13.3211 0.992106 13.5762C0.914535 13.5072 0.858513 13.4182 0.831019 13.3194C0.803526 13.2207 0.805546 13.1164 0.836704 13.0187L0.90493 12.9903ZM0.565226 14.5211C0.658917 14.2898 0.797179 14.0781 0.972681 13.8975C1.30259 13.6235 1.68089 13.4061 2.06902 13.1416C2.10567 13.3271 2.09587 13.5186 2.04012 13.6996C1.98436 13.8805 1.88422 14.0457 1.74874 14.181C1.39943 14.4928 1.02135 14.7668 0.642926 15.0597C0.566992 14.9997 0.509933 14.9198 0.478997 14.8294C0.448061 14.739 0.44436 14.6419 0.4681 14.5495L0.565226 14.5211ZM0.380923 16.0047C0.420384 15.8261 0.499662 15.6584 0.613552 15.5133C0.953161 15.1732 1.34144 14.8708 1.73927 14.5684C1.78577 14.716 1.79961 14.8716 1.77954 15.0247C1.75946 15.1779 1.70581 15.3251 1.62271 15.4566C1.41904 15.7217 1.19851 15.9741 0.962731 16.2126C0.826888 16.3543 0.661954 16.4772 0.497001 16.6283C0.409033 16.5582 0.344585 16.464 0.311751 16.358C0.278916 16.252 0.279241 16.1389 0.312698 16.033L0.380923 16.0047ZM0.322648 17.4693C0.401058 17.1014 0.602212 16.7691 0.89498 16.5244L1.55496 15.9385C1.62614 16.1617 1.63465 16.3993 1.58007 16.6269C1.52549 16.8545 1.40949 17.0637 1.24416 17.233C0.991879 17.4976 0.749282 17.7812 0.497001 18.0552C0.40982 17.9912 0.341546 17.906 0.298958 17.8081C0.256371 17.7102 0.240975 17.6031 0.254423 17.4977L0.322648 17.4693ZM0.390399 19.0473C0.431719 18.8046 0.517396 18.571 0.642926 18.3575C0.904852 18.0293 1.18322 17.7139 1.47726 17.4126C1.54963 17.5601 1.58718 17.7215 1.58718 17.885C1.58718 18.0485 1.54963 18.21 1.47726 18.3575C1.23468 18.7922 0.943496 19.1891 0.652402 19.6332C0.551941 19.5767 0.468692 19.4954 0.410772 19.3975C0.352852 19.2997 0.32246 19.1886 0.322648 19.0757L0.390399 19.0473ZM0.885504 21.1073C0.758998 21.0165 0.665659 20.8883 0.620185 20.7418C0.574711 20.5953 0.579299 20.4385 0.632977 20.2947C0.714333 20.0422 0.828554 19.8008 0.972681 19.5765C1.14708 19.3276 1.33501 19.0878 1.53554 18.8583C1.61641 18.9872 1.66924 19.1308 1.69094 19.2803C1.71263 19.4298 1.70262 19.5821 1.66156 19.7277C1.61477 19.8975 1.54265 20.0599 1.44789 20.2096C1.20531 20.5403 1.01134 20.8238 0.817279 21.1356L0.885504 21.1073ZM1.30244 22.5814C1.21636 22.5416 1.14146 22.4821 1.08402 22.4081C1.02658 22.3341 0.988468 22.2476 0.972681 22.1561C0.916915 21.8914 0.951062 21.6161 1.06981 21.3718L1.72932 20.2474C1.82417 20.3536 1.89348 20.4792 1.9321 20.6149C1.97071 20.7506 1.97763 20.893 1.95247 21.0317C1.78868 21.5873 1.54731 22.1183 1.23468 22.6097L1.30244 22.5814ZM1.83639 24.0082C1.71829 23.9632 1.6174 23.8835 1.54786 23.7803C1.47831 23.677 1.44319 23.5552 1.44789 23.4317C1.44546 23.1623 1.48842 22.8942 1.57439 22.638C1.70053 22.3073 1.89436 22.0049 2.06902 21.6931C2.2054 21.8651 2.29544 22.0676 2.33102 22.2821C2.36661 22.4967 2.34658 22.7164 2.27275 22.9215C2.07868 23.29 1.91371 23.6585 1.76817 24.0365L1.83639 24.0082ZM2.50585 25.3689C2.35371 25.315 2.2243 25.2133 2.13819 25.0798C2.05208 24.9463 2.01395 24.7887 2.03017 24.6318C2.02507 24.43 2.05491 24.2288 2.11782 24.0365C2.22455 23.7058 2.37001 23.394 2.50585 23.0916C2.62112 23.1755 2.71307 23.2858 2.77401 23.4127C2.83495 23.5397 2.86286 23.6793 2.85503 23.8192C2.81478 24.1883 2.74977 24.5544 2.66078 24.9153C2.58952 25.082 2.5054 25.2431 2.40872 25.3972L2.50585 25.3689ZM3.47616 25.5767C3.47616 25.898 3.35955 26.2098 3.30133 26.5217C3.30133 26.6918 3.2043 26.7296 3.05876 26.6067C2.92007 26.4929 2.8142 26.346 2.75127 26.1804C2.68834 26.0148 2.6704 25.8361 2.69963 25.6618C2.77725 25.2271 2.92289 24.8019 3.03933 24.3484C3.21918 24.5012 3.35263 24.6993 3.42452 24.921C3.4964 25.1427 3.50387 25.3794 3.44679 25.6051L3.47616 25.5767ZM4.19395 27.7879C4.19395 27.7879 4.19414 27.8824 4.14562 27.9485C3.98589 27.9055 3.84396 27.815 3.73959 27.6897C3.63521 27.5643 3.57352 27.4104 3.56334 27.2493C3.54088 26.9053 3.55743 26.5599 3.61214 26.2193C3.64896 26.0152 3.69745 25.8133 3.75759 25.6146C3.91839 25.7169 4.04999 25.8572 4.13993 26.0224C4.22988 26.1877 4.275 26.3725 4.27165 26.5595C4.23283 27.0036 4.19415 27.4099 4.16504 27.8162L4.19395 27.7879ZM5.16426 29.0919C5.05562 29.0875 4.95 29.0567 4.85677 29.0022C4.76354 28.9477 4.68586 28.8713 4.63078 28.7801C4.44712 28.4992 4.36492 28.1666 4.39767 27.8351C4.39767 27.5139 4.47541 27.1831 4.51422 26.8335C4.61946 26.875 4.71469 26.9378 4.79328 27.0175C4.87188 27.0973 4.93227 27.1924 4.97048 27.2965C5.0616 27.5731 5.12332 27.8581 5.15478 28.147C5.2033 28.4682 5.18368 28.78 5.18368 29.1202L5.16426 29.0919ZM6.25112 30.1502C6.15253 30.1543 6.05464 30.1338 5.96638 30.0909C5.87812 30.0479 5.80237 29.9838 5.74654 29.9045C5.54739 29.6518 5.43525 29.3442 5.42626 29.0257C5.42626 28.6667 5.42626 28.317 5.42626 27.9296C5.57463 27.9866 5.70762 28.0758 5.81524 28.1904C5.92285 28.305 6.00239 28.4421 6.04739 28.5911C6.14442 29.0824 6.19315 29.536 6.26107 30.0651C6.29018 30.1218 6.28997 30.1502 6.28997 30.1785L6.25112 30.1502ZM4.6502 24.6791C4.53376 24.4428 4.40753 24.2255 4.3105 23.9987C4.30819 23.9517 4.31771 23.9048 4.33798 23.862C4.35825 23.8192 4.38879 23.7819 4.42705 23.753C4.68903 23.5924 4.97027 23.4696 5.24196 23.3373C5.26963 23.321 5.30037 23.3104 5.33245 23.3064C5.36454 23.3023 5.39712 23.3048 5.42816 23.3137C5.4592 23.3226 5.48825 23.3377 5.51296 23.358C5.53768 23.3783 5.55752 23.4034 5.57171 23.4317L5.72711 23.7058L6.39657 23.3751L6.5714 23.7058L4.6502 24.6791ZM6.96938 30.9345C6.79605 30.7378 6.66379 30.5099 6.58087 30.2636C6.50577 29.8385 6.45726 29.4093 6.43542 28.9785C6.59119 29.0167 6.73475 29.0919 6.8533 29.1974C6.97185 29.303 7.06186 29.4355 7.11483 29.5832C7.25067 30.0084 7.33808 30.4526 7.43511 30.8872C7.43511 30.9534 7.43511 31.0195 7.43511 31.0951C7.35528 31.1105 7.27276 31.1065 7.1949 31.0834C7.11704 31.0603 7.0463 31.0189 6.9888 30.9628L6.96938 30.9345ZM8.17232 31.7754C7.90077 31.5082 7.73299 31.1576 7.69711 30.7833C7.69711 30.5093 7.59993 30.2353 7.54171 29.9234C7.70308 29.9575 7.85477 30.026 7.98565 30.1241C8.11653 30.2221 8.22313 30.3472 8.29835 30.4904C8.43493 30.7979 8.55194 31.1135 8.648 31.4353C8.70134 31.6121 8.74335 31.792 8.77403 31.9739C8.67629 31.9838 8.57762 31.9738 8.48407 31.9445C8.39052 31.9152 8.3041 31.8673 8.23059 31.8038L8.17232 31.7754ZM9.44348 32.4841C9.31515 32.3842 9.21518 32.2542 9.15258 32.1062C8.99733 31.681 8.87077 31.2463 8.72523 30.7927H8.88063C9.15373 30.869 9.39062 31.0362 9.55009 31.2652C9.81335 31.7078 10.0095 32.1853 10.1324 32.6826C10.0154 32.7153 9.89149 32.7167 9.77371 32.6868C9.65593 32.6569 9.54862 32.5967 9.46291 32.5125L9.44348 32.4841ZM11.0349 33.2495C10.8185 33.1035 10.6338 32.9173 10.4915 32.7015C10.3007 32.3108 10.1323 31.9102 9.98692 31.5014C10.167 31.5069 10.3431 31.5533 10.5014 31.637C10.6598 31.7207 10.7961 31.8393 10.899 31.9834C11.1512 32.3897 11.3647 32.8338 11.6073 33.2779C11.5235 33.3261 11.4279 33.3516 11.3306 33.3516C11.2333 33.3516 11.1381 33.3261 11.0544 33.2779L11.0349 33.2495ZM12.5193 33.7881C12.2579 33.6882 12.0389 33.5051 11.8982 33.2684C11.7041 32.8999 11.5201 32.5219 11.3164 32.1251C11.5029 32.1236 11.6873 32.1637 11.8555 32.2423C12.0237 32.3209 12.1712 32.436 12.2867 32.5787C12.5584 32.9566 12.791 33.363 13.0433 33.7598C12.971 33.8102 12.8866 33.8417 12.7984 33.8516C12.7101 33.8616 12.6209 33.8495 12.5387 33.8165L12.5193 33.7881ZM14.0041 34.1756C13.7776 34.0815 13.5751 33.9395 13.4119 33.7598C13.1559 33.407 12.9195 33.0411 12.7036 32.6637C12.8773 32.6204 13.0601 32.6249 13.2314 32.6766C13.4027 32.7283 13.5558 32.8252 13.6739 32.9566C14.0135 33.3157 14.3143 33.7126 14.6442 34.1094C14.566 34.18 14.468 34.2266 14.3628 34.2434C14.2575 34.2602 14.1498 34.2465 14.0525 34.2039L14.0041 34.1756ZM15.5563 34.4401C15.3308 34.3686 15.1229 34.2528 14.9451 34.1C14.6443 33.7787 14.3921 33.4102 14.1107 33.0511C14.2674 33.0025 14.4342 32.9935 14.5954 33.0249C14.7567 33.0563 14.9068 33.1271 15.0323 33.2307C15.4204 33.5708 15.7895 33.9393 16.1679 34.3078C16.0974 34.3897 16.003 34.4488 15.8974 34.4775C15.7917 34.5061 15.6795 34.503 15.5757 34.4685L15.5563 34.4401ZM17.0411 34.563C16.8103 34.4949 16.5959 34.3825 16.4105 34.2323C16.1097 33.9583 15.8571 33.637 15.5563 33.2874C15.7176 33.2393 15.8878 33.2254 16.0552 33.2466C16.2225 33.2678 16.3832 33.3236 16.5266 33.4102C16.6752 33.5057 16.8181 33.6098 16.9539 33.722C17.2062 33.9299 17.4583 34.1567 17.7106 34.3834C17.634 34.4744 17.5307 34.5404 17.4144 34.5724C17.2982 34.6045 17.1748 34.6012 17.0605 34.563H17.0411ZM18.642 34.563C18.3942 34.5125 18.1597 34.4127 17.9531 34.2701C17.657 33.9975 17.3752 33.7105 17.1089 33.4102C17.3703 33.3072 17.6628 33.3072 17.9242 33.4102C18.4145 33.6477 18.8576 33.9676 19.2338 34.3551C19.1708 34.4417 19.0824 34.5077 18.9803 34.5448C18.8782 34.5819 18.7673 34.5882 18.6614 34.563H18.642ZM20.3595 34.4212C20.066 34.453 19.7706 34.3828 19.5252 34.2228C19.1661 33.9866 18.8456 33.7126 18.4866 33.4385C18.6705 33.3384 18.8777 33.2858 19.0883 33.2858C19.299 33.2858 19.5062 33.3384 19.69 33.4385C20.0588 33.6559 20.4179 33.9015 20.7963 34.1378C20.7635 34.2233 20.7069 34.2984 20.6333 34.355C20.5598 34.4116 20.4719 34.4476 20.3789 34.4591L20.3595 34.4212ZM21.5141 34.1378C21.2859 34.0882 21.0668 34.0054 20.8641 33.8921C20.573 33.722 20.2917 33.5236 19.9909 33.3251C20.1072 33.2328 20.2449 33.1699 20.3922 33.1418C20.5394 33.1138 20.6918 33.1216 20.8352 33.1645C21.3494 33.3441 21.8053 33.5897 22.3584 33.8165C22.28 33.9558 22.1567 34.0663 22.0078 34.1312C21.8589 34.196 21.6924 34.2116 21.5335 34.1756L21.5141 34.1378ZM23.1539 33.7598C22.9724 33.7739 22.7902 33.7481 22.6204 33.6842C22.2129 33.5047 21.8148 33.2873 21.3976 33.0794C21.5452 32.9603 21.7205 32.8783 21.9083 32.8404C22.096 32.8025 22.2908 32.81 22.4749 32.8621C22.931 33.0039 23.3673 33.2118 23.8233 33.4007C23.7687 33.523 23.6773 33.6263 23.5613 33.6971C23.4453 33.768 23.3101 33.803 23.1733 33.7976L23.1539 33.7598ZM24.6387 33.2307C24.4625 33.2638 24.281 33.2638 24.1048 33.2307C23.6778 33.0889 23.2702 32.9188 22.8336 32.7487C22.9403 32.6413 23.0688 32.5566 23.2107 32.4997C23.3526 32.4427 23.505 32.4149 23.6585 32.418C24.2163 32.4813 24.7602 32.6313 25.2693 32.8621C25.2187 32.9802 25.1338 33.0814 25.0253 33.1535C24.9168 33.2256 24.7895 33.2655 24.6581 33.2684L24.6387 33.2307ZM25.9971 32.5881C25.6316 32.6264 25.2621 32.5778 24.9201 32.4464L24.2407 32.1912C24.351 32.0672 24.4885 31.9688 24.643 31.9034C24.7975 31.838 24.965 31.8072 25.1334 31.8133C25.6505 31.8469 26.1602 31.9518 26.6471 32.1251C26.6136 32.269 26.5351 32.3992 26.422 32.4974C26.309 32.5957 26.1671 32.6571 26.0165 32.6731L25.9971 32.5881ZM27.7534 31.6431C27.6188 31.7485 27.4623 31.8242 27.2948 31.865C27.1272 31.9058 26.9527 31.9107 26.7831 31.8794C26.3949 31.8038 26.0165 31.6999 25.5896 31.5959C25.7121 31.446 25.8687 31.326 26.0473 31.2456C26.2259 31.1652 26.4216 31.1266 26.6182 31.1329C27.0742 31.1329 27.53 31.2369 28.0637 31.3124C27.9764 31.4363 27.8792 31.5532 27.7728 31.6621L27.7534 31.6431ZM28.8691 30.8589C28.5099 31.037 28.0978 31.0871 27.7046 31.0006L26.8314 30.8778C26.8876 30.7664 26.9681 30.6683 27.0669 30.59C27.1657 30.5117 27.2804 30.4551 27.4037 30.4242C27.6397 30.3536 27.8846 30.3154 28.1315 30.3108C28.4808 30.3108 28.8399 30.3108 29.1989 30.3581C29.1954 30.463 29.1655 30.5654 29.1113 30.6561C29.0571 30.7468 28.9805 30.823 28.8886 30.8778L28.8691 30.8589ZM29.956 29.914C29.7582 30.0094 29.5448 30.0701 29.3254 30.0935C28.9082 30.0935 28.4811 30.0935 28.0154 30.0935C28.091 29.9351 28.2027 29.7956 28.3423 29.6859C28.4819 29.5761 28.6458 29.499 28.8208 29.4604C29.3157 29.3942 29.791 29.3848 30.3829 29.347C30.315 29.6305 30.2083 29.8384 29.9754 29.9234L29.956 29.914ZM31.266 28.61C31.1311 28.7623 30.964 28.8848 30.7766 28.9696C30.5892 29.0543 30.3857 29.0992 30.1792 29.1013C29.8493 29.1013 29.519 29.1013 29.1406 29.1013C29.2042 28.9455 29.3024 28.8054 29.4282 28.6911C29.5541 28.5767 29.7044 28.4909 29.8684 28.4399C30.1394 28.3713 30.4151 28.3208 30.6932 28.2887L31.3821 28.2037L31.4309 28.2509C31.3946 28.378 31.3454 28.5014 31.285 28.6194L31.266 28.61ZM32.1098 27.5611C31.8741 27.7706 31.5811 27.9085 31.266 27.958C30.907 28.0147 30.5573 28.0336 30.1692 28.0808C30.2239 27.8972 30.3244 27.7296 30.4615 27.5928C30.5986 27.456 30.7681 27.3542 30.9552 27.2965C31.3919 27.1642 31.8575 27.0886 32.333 26.9752C32.3571 27.0831 32.3508 27.1954 32.315 27.3001C32.2791 27.4049 32.215 27.4983 32.1293 27.5705L32.1098 27.5611ZM33.0318 26.191C32.8637 26.3815 32.6593 26.5387 32.4301 26.654C32.0129 26.7957 31.5664 26.8618 31.1007 26.9752C31.1305 26.8052 31.2019 26.6445 31.3082 26.5064C31.4145 26.3684 31.5531 26.2571 31.7123 26.1815C32.1587 25.9831 32.6341 25.8319 33.1095 25.6524C33.1559 25.7392 33.1748 25.8375 33.1645 25.9349C33.1541 26.0323 33.1149 26.1246 33.0512 26.2004L33.0318 26.191ZM33.7496 24.8681C33.5847 25.0779 33.3766 25.2517 33.1384 25.3783C32.7472 25.5375 32.3455 25.6701 31.9355 25.7752C31.9507 25.5752 32.0196 25.3825 32.1354 25.2167C32.2512 25.0508 32.4096 24.9176 32.595 24.8303C32.9928 24.6413 33.4004 24.4712 33.8079 24.2917C33.8719 24.3786 33.9031 24.4845 33.896 24.5913C33.8889 24.6981 33.844 24.7993 33.769 24.8775L33.7496 24.8681ZM34.4096 23.394C34.2843 23.6155 34.1123 23.8087 33.905 23.961C33.4978 24.1823 33.0767 24.378 32.6438 24.5468C32.6362 24.4067 32.6582 24.2664 32.7082 24.1348C32.7583 24.0032 32.8352 23.883 32.9347 23.7814C33.1078 23.6184 33.2998 23.4757 33.507 23.3562C33.7884 23.1956 34.0797 23.0632 34.3902 22.9215C34.4474 22.9879 34.4818 23.07 34.4887 23.1564C34.4957 23.2428 34.4749 23.3292 34.429 23.4034L34.4096 23.394ZM34.8559 21.986C34.7262 22.2182 34.5554 22.4261 34.3513 22.6003C33.9959 22.8214 33.6263 23.0201 33.245 23.1955C33.22 23.0473 33.2319 22.8955 33.2791 22.7525C33.3264 22.6096 33.4079 22.4796 33.517 22.3734C33.9016 21.987 34.3513 21.6675 34.8464 21.4285C34.9084 21.5096 34.944 21.6068 34.9492 21.7077C34.9544 21.8086 34.9287 21.9088 34.8753 21.9955L34.8559 21.986ZM35.1856 20.512C35.0839 20.7487 34.9359 20.9638 34.7493 21.145C34.4221 21.3964 34.0785 21.6268 33.7207 21.8349H33.6624C33.6674 21.6791 33.687 21.5241 33.7207 21.3718C33.7593 21.2129 33.8393 21.0664 33.9533 20.9467C34.3221 20.6065 34.7104 20.2852 35.0985 20.0017C35.1665 20.0687 35.2131 20.1536 35.2321 20.246C35.251 20.3383 35.2414 20.4341 35.2051 20.5214L35.1856 20.512ZM35.3899 19.0568C35.3399 19.2466 35.2433 19.4217 35.1084 19.567C34.7785 19.8789 34.4097 20.1529 34.041 20.4553C33.9896 20.3294 33.9697 20.1935 33.9832 20.0587C33.9967 19.9239 34.0433 19.7942 34.1187 19.6804C34.3322 19.3969 34.5745 19.1324 34.817 18.8678C35.0596 18.6032 35.1178 18.5938 35.2828 18.4426C35.3626 18.5241 35.4165 18.6266 35.4372 18.7374C35.4579 18.8482 35.4446 18.9625 35.3993 19.0662L35.3899 19.0568ZM35.4576 17.5638C35.3412 17.8453 35.1844 18.1094 34.9919 18.3481C34.7584 18.5969 34.5051 18.8275 34.2348 19.0379C34.1659 18.8431 34.1485 18.6345 34.1841 18.4314C34.2197 18.2283 34.3072 18.0372 34.4385 17.8756L35.3022 16.9307C35.3931 17.005 35.4586 17.1045 35.4898 17.2159C35.521 17.3274 35.5166 17.4454 35.477 17.5543L35.4576 17.5638Z"  />
<path d="M22.6788 20.3892C22.6456 20.328 22.6281 20.2599 22.6281 20.1907C22.6281 20.1216 22.6456 20.0535 22.6788 19.9923C23.0708 19.3768 23.3254 18.6878 23.4259 17.9702C23.4318 17.8939 23.4556 17.8199 23.496 17.7543C23.5365 17.6887 23.5922 17.6332 23.6586 17.5922L28.2192 14.3322L28.6361 14.0298H28.4618H26.1909H22.7854C22.7147 14.0328 22.6446 14.0178 22.5816 13.9864C22.5187 13.9549 22.4649 13.908 22.4262 13.8503C21.8445 13.0695 21.052 12.4611 20.1364 12.0927C20.052 12.0615 19.9759 12.0121 19.9138 11.9483C19.8516 11.8846 19.8049 11.808 19.7773 11.7242C19.2825 10.2974 18.807 8.88943 18.283 7.45315C18.1666 7.12243 18.0408 6.79172 17.9049 6.4043L17.7978 6.65939C17.1768 8.36025 16.5464 10.0706 15.9254 11.7809C15.9041 11.8472 15.8675 11.9079 15.8188 11.9586C15.7701 12.0093 15.7105 12.0487 15.644 12.0738C14.7063 12.4503 13.8959 13.0756 13.3054 13.8786C13.2724 13.9287 13.226 13.9692 13.1713 13.9958C13.1167 14.0224 13.056 14.0342 12.9951 14.0298H7.33808H7.10498L7.33808 14.2094L12.0342 17.5639C12.1277 17.6363 12.1958 17.7354 12.2285 17.8473C12.3291 18.6062 12.5901 19.3366 12.9951 19.9923C13.0263 20.0574 13.0425 20.1283 13.0425 20.2002C13.0425 20.272 13.0263 20.343 12.9951 20.4081L11.2482 26.1626C11.2482 26.2193 11.2482 26.2855 11.19 26.3989C11.27 26.3555 11.348 26.3083 11.4231 26.2572L16.6238 22.7326C16.682 22.688 16.7497 22.6564 16.8218 22.6401C16.8939 22.6237 16.9688 22.6231 17.0412 22.6381C17.5843 22.7232 18.1379 22.7232 18.681 22.6381C18.7534 22.6231 18.8282 22.6237 18.9003 22.6401C18.9724 22.6564 19.0402 22.688 19.0984 22.7326L24.2503 26.2193L24.5417 26.4083C24.5417 26.2666 24.4931 26.1721 24.464 26.0871C23.8721 24.1689 23.2707 22.279 22.6788 20.3892ZM17.7784 22.279C16.3868 22.2493 15.0629 21.6894 14.0905 20.7195C13.1181 19.7495 12.5748 18.4469 12.5777 17.0914C12.5789 16.4163 12.7168 15.7481 12.9832 15.1249C13.2497 14.5018 13.6397 13.9358 14.1307 13.4593C14.6218 12.9829 15.2045 12.6053 15.8454 12.3481C16.4863 12.091 17.1729 11.9592 17.8661 11.9605C18.5658 11.9579 19.2587 12.0909 19.9052 12.3516C20.5517 12.6123 21.1387 12.9957 21.6317 13.4793C22.1247 13.9629 22.5138 14.5371 22.7768 15.1686C23.0399 15.8 23.1716 16.4761 23.1639 17.1575C23.1602 17.8395 23.0172 18.5139 22.7437 19.1416C22.4702 19.7694 22.0716 20.338 21.5706 20.8145C21.0696 21.2909 20.4761 21.6657 19.8252 21.9171C19.1742 22.1685 18.4785 22.2915 17.7784 22.279Z"  />
<path d="M21.8151 18.707L20.5245 18.9244C20.2819 18.9244 20.2723 18.9244 20.3402 19.1889C20.4081 19.4535 20.3401 19.3969 20.2431 19.4535C19.8938 19.6142 19.564 19.8032 19.205 19.9355C19.1233 19.9721 19.0348 19.9918 18.9449 19.9934C18.855 19.9949 18.7654 19.9783 18.6824 19.9446C18.5994 19.9108 18.5247 19.8607 18.4626 19.7973C18.4005 19.7339 18.3526 19.6587 18.3219 19.5764C18.2348 19.3855 18.1855 19.1803 18.1764 18.9716C18.1764 17.8944 18.1764 16.8172 18.1764 15.7305C18.1764 15.5983 18.2251 15.5605 18.3512 15.5605H19.3216C19.4865 15.5605 19.5542 15.5037 19.5348 15.3431C19.525 15.2995 19.525 15.2544 19.5348 15.2108C19.5348 15.0408 19.4862 14.9652 19.2922 14.9746H18.2153C18.1954 14.843 18.1954 14.7093 18.2153 14.5777C18.2153 14.5777 18.3897 14.5777 18.4867 14.521C18.634 14.4777 18.7638 14.3908 18.8577 14.2721C18.9517 14.1535 19.0052 14.0093 19.0108 13.8596C19.0534 13.6773 19.0341 13.4864 18.9553 13.3159C18.8765 13.1454 18.7428 13.0045 18.5744 12.9147C18.1746 12.7253 17.7137 12.6981 17.2933 12.8391C17.0826 12.9064 16.9045 13.0462 16.792 13.2323C16.6795 13.4184 16.6404 13.6381 16.6821 13.8502C16.6821 14.247 16.9638 14.4738 17.4392 14.5399H17.5264V14.9652H16.6338C16.1971 14.9652 16.2261 14.8801 16.2164 15.3809C16.2164 15.5227 16.2746 15.5605 16.4201 15.5605H17.5458C17.5458 15.6455 17.5458 15.7211 17.5458 15.7967V17.1952C17.5458 17.8377 17.5458 18.4897 17.5458 19.085C17.5686 19.2292 17.5475 19.3767 17.4852 19.5093C17.4228 19.6419 17.3217 19.7539 17.1947 19.8313C17.0678 19.9086 16.9204 19.9481 16.7707 19.9448C16.621 19.9415 16.4756 19.8956 16.3523 19.8126C16.0904 19.6992 15.8477 19.5575 15.5858 19.4441C15.3238 19.3307 15.343 19.2551 15.4304 19.0756C15.5177 18.896 15.4302 18.8961 15.2944 18.8772L13.946 18.6598H13.7129L15.0618 20.4741L15.1684 19.8032C15.2564 19.8541 15.3409 19.9109 15.4209 19.9732L17.3615 21.3812C17.4149 21.4352 17.4787 21.4782 17.5496 21.5075C17.6205 21.5369 17.6967 21.552 17.7737 21.552C17.8507 21.552 17.9269 21.5369 17.9978 21.5075C18.0687 21.4782 18.1325 21.4352 18.1859 21.3812C18.6419 21.0599 19.0887 20.7197 19.5447 20.389L20.3985 19.7748L20.5344 20.5496L21.9217 18.6598L21.8151 18.707ZM17.5847 13.9824C17.4391 14.0769 17.3418 13.9824 17.2544 13.9068C17.2164 13.8562 17.1905 13.7982 17.1777 13.7367C17.1649 13.6752 17.1658 13.6118 17.1805 13.5508C17.1953 13.4897 17.2234 13.4325 17.263 13.3831C17.3026 13.3336 17.3526 13.2931 17.4098 13.2643C17.5698 13.1997 17.7357 13.149 17.9049 13.1131C18.3125 13.1131 18.5936 13.3115 18.6227 13.595C18.6165 13.7373 18.5617 13.8736 18.4673 13.9824C18.3897 14.0958 18.2735 13.9824 18.1764 13.9824C18.0823 13.9233 17.9712 13.895 17.8595 13.9018C17.7477 13.9086 17.6411 13.9501 17.5553 14.0202L17.5847 13.9824Z"  />
<path d="M14.3338 17.9709C14.3338 17.7536 14.3338 17.5363 14.3338 17.3095H14.5086C14.8385 17.3095 15.0032 17.215 15.0032 16.8937V15.9488C15.0032 15.7031 14.9061 15.5803 14.6635 15.5709C14.421 15.5614 14.0817 15.5709 13.7809 15.5709V18.1599H14.1106C14.2756 18.1977 14.3435 18.141 14.3338 17.9709ZM14.3338 15.9582C14.4316 16.3078 14.4316 16.6765 14.3338 17.026V15.9582Z"  />
<path d="M21.4168 18.1796C21.9505 18.1796 22.0091 18.1796 22.0091 17.6127C22.0091 17.2347 22.0087 17.2441 21.6206 17.2536C21.4944 17.2536 21.4365 17.3008 21.4462 17.4237V17.8017H21.3685V16.0063H21.4268V16.4693H21.9797C21.9944 16.2837 21.9944 16.0974 21.9797 15.9118C21.9773 15.8712 21.9665 15.8315 21.9479 15.7951C21.9294 15.7586 21.9034 15.7262 21.8717 15.6997C21.84 15.6733 21.8035 15.6533 21.7636 15.641C21.7238 15.6288 21.6816 15.6245 21.64 15.6283H21.1743C20.8735 15.6283 20.7573 15.7417 20.7573 16.0252C20.7573 16.5449 20.7573 17.0552 20.7573 17.5654C20.7573 18.0757 20.8443 18.1796 21.4168 18.1796Z"  />
</svg>
