<svg width="34" height="35" viewBox="0 0 34 35"  xmlns="http://www.w3.org/2000/svg">
<path d="M30.788 14.9959C30.7828 11.0219 29.1598 7.212 26.2752 4.40107C23.3905 1.59014 19.4793 0.00749971 15.3985 0C11.3168 0.00749271 7.40467 1.58983 4.51849 4.4005C1.63231 7.21116 0.00769402 11.0211 0 14.9959C0.0077012 18.9699 1.63251 22.7789 4.51896 25.588C7.40542 28.3972 11.3177 29.9774 15.3985 29.9824C19.4784 29.9774 23.3898 28.3969 26.2747 25.5875C29.1596 22.778 30.7828 18.9691 30.788 14.9959ZM5.37557 20.1647H3.687V9.71385H5.37557V20.1647ZM12.1677 20.2214C10.736 20.2189 9.36383 19.6633 8.35236 18.6765C7.34089 17.6897 6.77276 16.3524 6.77276 14.9582C6.77276 13.5648 7.34108 12.2285 8.35283 11.2432C9.36458 10.2579 10.7369 9.70439 12.1677 9.70439C13.1766 9.70305 14.1654 9.97667 15.0228 10.4943C15.8802 11.012 16.5719 11.7531 17.0193 12.6336H15.0787C14.7252 12.214 14.2808 11.8754 13.7777 11.6419C13.2746 11.4083 12.7251 11.2856 12.1677 11.2824C11.1667 11.2824 10.2063 11.6697 9.49844 12.359C8.79059 13.0483 8.3931 13.9833 8.3931 14.9582C8.3931 15.933 8.79059 16.8679 9.49844 17.5573C10.2063 18.2466 11.1667 18.6339 12.1677 18.6339C13.018 18.6342 13.8432 18.3541 14.5092 17.8394C15.1752 17.3246 15.6425 16.6056 15.8353 15.7992H11.9541V14.1361H17.5433C17.5822 14.4021 17.6013 14.6705 17.6011 14.9393C17.6037 15.6344 17.465 16.3232 17.1927 16.9658C16.9204 17.6084 16.5201 18.1921 16.0149 18.6832C15.5097 19.1744 14.9094 19.5631 14.2491 19.8271C13.5887 20.0912 12.8816 20.2252 12.1677 20.2214ZM18.3677 14.9582C18.3703 13.5639 18.9411 12.2276 19.9544 11.2426C20.9677 10.2576 22.3409 9.70439 23.7726 9.70439C24.7799 9.69911 25.7682 9.96904 26.6258 10.4835C27.4834 10.998 28.1759 11.7363 28.6242 12.6147H26.6836C26.3295 12.197 25.8849 11.861 25.3816 11.6306C24.8783 11.4003 24.3288 11.2813 23.7726 11.2824C22.7716 11.2824 21.8112 11.6697 21.1033 12.359C20.3955 13.0483 19.998 13.9833 19.998 14.9582C19.998 15.933 20.3955 16.8679 21.1033 17.5573C21.8112 18.2466 22.7716 18.6339 23.7726 18.6339C24.3172 18.6365 24.8558 18.5227 25.3503 18.3006C25.8449 18.0786 26.2831 17.7537 26.6348 17.3488H28.5754C28.1138 18.211 27.4166 18.9321 26.5604 19.4324C25.7042 19.9327 24.7223 20.1927 23.7238 20.1836C22.3063 20.1688 20.9516 19.6132 19.9501 18.6362C18.9487 17.6592 18.3803 16.3386 18.3677 14.9582Z"  />
<path d="M0.223145 31.8715H1.10613V34.2149H1.6592V31.8715H2.54219V31.418H0.223145V31.8715Z"  />
<path d="M4.77367 31.5509C4.56735 31.4352 4.33233 31.3764 4.09426 31.3809C3.85636 31.3778 3.6222 31.4365 3.41533 31.5509C3.21541 31.6684 3.0539 31.8389 2.9496 32.0423C2.82731 32.2828 2.76717 32.5488 2.77477 32.8171C2.76597 33.0855 2.82617 33.3518 2.9496 33.5919C3.0511 33.7973 3.21326 33.9684 3.41533 34.0833C3.6222 34.1978 3.85636 34.2565 4.09426 34.2534C4.33233 34.2579 4.56735 34.1991 4.77367 34.0833C4.97859 33.969 5.14381 33.7979 5.24887 33.5919C5.3723 33.3518 5.4325 33.0855 5.4237 32.8171C5.4313 32.5488 5.37116 32.2828 5.24887 32.0423C5.14106 31.8382 4.9765 31.6679 4.77367 31.5509ZM4.77367 33.3463C4.71621 33.4763 4.62172 33.5877 4.50172 33.6676C4.38068 33.7444 4.23873 33.7839 4.09426 33.7809C3.95301 33.7826 3.81479 33.7431 3.69676 33.6676C3.57675 33.5877 3.48226 33.4763 3.4248 33.3463C3.35394 33.1787 3.32076 32.9982 3.32768 32.8171C3.32062 32.639 3.35384 32.4616 3.4248 32.2974C3.47978 32.1659 3.57481 32.0539 3.69676 31.9762C3.81479 31.9006 3.95301 31.8611 4.09426 31.8628C4.23873 31.8598 4.38068 31.8993 4.50172 31.9762C4.62366 32.0539 4.71869 32.1659 4.77367 32.2974C4.84463 32.4616 4.87785 32.639 4.87079 32.8171C4.87771 32.9982 4.84453 33.1787 4.77367 33.3463Z"  />
<path d="M6.85986 34.2149H7.41295V31.8715H8.73257V31.418H6.85986V34.2149Z"  />
<path d="M10.3434 32.2508C10.2554 32.1938 10.1565 32.1552 10.0525 32.1374C9.94621 32.1235 9.83844 32.1235 9.73218 32.1374C9.58692 32.1339 9.44229 32.1564 9.3053 32.2035C9.18533 32.2468 9.07611 32.3144 8.98502 32.4019C8.90042 32.4969 8.84082 32.6104 8.81067 32.7327L9.31478 32.7894C9.33813 32.7138 9.38587 32.6476 9.45076 32.6004C9.53436 32.5476 9.63264 32.5212 9.73218 32.5248C9.82753 32.519 9.92147 32.5495 9.99419 32.6098C10.0243 32.6376 10.0478 32.6714 10.0629 32.709C10.078 32.7465 10.0841 32.7869 10.0814 32.8271C10.0817 32.8466 10.0765 32.8658 10.0662 32.8825C10.0559 32.8992 10.0414 32.9128 10.0236 32.9217C9.97585 32.9566 9.91786 32.9764 9.85821 32.9784H9.54788C9.4459 32.9872 9.34505 33.0062 9.24703 33.0351C9.15396 33.054 9.06518 33.0892 8.98502 33.139C8.90956 33.1874 8.84655 33.2521 8.80072 33.328C8.75564 33.4194 8.73259 33.5195 8.73297 33.6209C8.73128 33.744 8.76451 33.865 8.82962 33.9705C8.89348 34.0639 8.98481 34.1363 9.09163 34.1784C9.20732 34.2297 9.33358 34.2555 9.46071 34.254C9.55379 34.2699 9.64905 34.2699 9.74213 34.254C9.82236 34.2303 9.8953 34.1881 9.95534 34.1311C10.0085 34.0844 10.0544 34.0303 10.0913 33.9705V34.254H10.6054V32.8461C10.6112 32.732 10.588 32.6184 10.5376 32.5154C10.4926 32.4149 10.4263 32.3248 10.3434 32.2508ZM10.0814 33.4697C10.0815 33.5428 10.0618 33.6147 10.0236 33.6776C9.98356 33.7415 9.92617 33.7938 9.85821 33.8288C9.77978 33.8665 9.69363 33.8859 9.60616 33.8855C9.51743 33.8863 9.42993 33.8634 9.35363 33.8193C9.32151 33.797 9.29575 33.767 9.27877 33.7323C9.2618 33.6976 9.25455 33.6593 9.25698 33.6209C9.2548 33.5666 9.27175 33.5131 9.3053 33.4697C9.3428 33.4287 9.38934 33.3965 9.44128 33.3752L9.63506 33.328H9.75161H9.88759H10.0041H10.0814V33.4697Z"  />
<path d="M12.5456 33.2146C12.4753 33.1729 12.3952 33.1501 12.3129 33.1485C12.4255 33.1257 12.5295 33.0734 12.6138 32.9973C12.6519 32.9601 12.6819 32.9159 12.7019 32.8672C12.7219 32.8185 12.7312 32.7663 12.7299 32.7138C12.7321 32.601 12.6945 32.4909 12.6233 32.4019C12.5493 32.3103 12.4524 32.2388 12.3418 32.1941C12.1985 32.1455 12.0472 32.123 11.8955 32.1279C11.7492 32.1214 11.6033 32.1473 11.4686 32.2035C11.3506 32.2445 11.2464 32.3164 11.1678 32.4114C11.0893 32.5007 11.0477 32.6152 11.0512 32.7327H11.5852C11.585 32.6986 11.5938 32.6651 11.6108 32.6353C11.6278 32.6055 11.6525 32.5805 11.6823 32.5626C11.756 32.5217 11.8402 32.502 11.9249 32.5059C12.0052 32.4999 12.0849 32.5235 12.1481 32.5721C12.1762 32.5931 12.1987 32.6203 12.2139 32.6516C12.2291 32.6828 12.2364 32.7171 12.2352 32.7516C12.2374 32.785 12.2307 32.8182 12.2153 32.8481C12.2 32.878 12.1767 32.9034 12.1481 32.9217C12.0868 32.9746 12.0066 33.0017 11.9249 32.9973H11.5947V33.3563H11.9249C11.9821 33.341 12.0421 33.341 12.0993 33.3563C12.1482 33.3736 12.1895 33.4071 12.2158 33.4509C12.2314 33.4969 12.2314 33.5465 12.2158 33.5926C12.2189 33.6334 12.2104 33.6742 12.1916 33.7108C12.1729 33.7474 12.1446 33.7784 12.1092 33.8005C12.0293 33.8445 11.939 33.8673 11.8472 33.8666C11.7578 33.8736 11.6684 33.8502 11.5947 33.8005C11.5637 33.7831 11.538 33.7584 11.5193 33.7287C11.5007 33.6989 11.4898 33.6652 11.4881 33.6304H10.9546C10.9573 33.7513 11.0016 33.8678 11.0806 33.9611C11.1643 34.0613 11.2754 34.1366 11.4009 34.1784C11.5438 34.2296 11.695 34.2553 11.8472 34.254C12.0027 34.256 12.1569 34.2304 12.303 34.1784C12.4268 34.1333 12.537 34.0586 12.6233 33.9611C12.7001 33.8673 12.7414 33.7504 12.7398 33.6304C12.7411 33.5421 12.7211 33.4547 12.6815 33.3752C12.6465 33.3142 12.6003 33.2598 12.5456 33.2146Z"  />
<path d="M13.167 34.2149H13.6813V32.5424H14.4866V34.2149H15.0106V32.1172H13.167V34.2149Z"  />
<path d="M17.1259 32.2116C16.9937 32.1358 16.8425 32.0966 16.6891 32.0982C16.5825 32.0941 16.4766 32.1135 16.3788 32.1549C16.3043 32.192 16.2381 32.2434 16.1845 32.3061C16.1415 32.3566 16.103 32.4103 16.0684 32.4667V32.1171H15.5444V34.9518H16.0779V33.8368C16.1099 33.8977 16.1491 33.9548 16.1945 34.0069C16.2486 34.0665 16.3143 34.1147 16.3882 34.1487C16.4863 34.1892 16.5926 34.2085 16.699 34.2054C16.8571 34.2085 17.0124 34.1657 17.1454 34.0825C17.286 33.992 17.3972 33.8641 17.4656 33.714C17.5479 33.5293 17.5872 33.3293 17.5817 33.1281C17.5899 32.9227 17.5467 32.7183 17.4557 32.5328C17.3773 32.3989 17.2635 32.2879 17.1259 32.2116ZM16.9611 33.5061C16.9318 33.5993 16.8744 33.6817 16.7962 33.7424C16.7187 33.8009 16.6222 33.831 16.5242 33.8274C16.4296 33.8281 16.3375 33.7982 16.2622 33.7424C16.1871 33.6827 16.1302 33.6044 16.0973 33.5156C16.0568 33.4033 16.037 33.2849 16.0391 33.1659C16.0369 33.05 16.0567 32.9347 16.0973 32.8257C16.1325 32.7382 16.1891 32.6603 16.2622 32.599C16.3376 32.5444 16.4305 32.5177 16.5242 32.5234C16.6206 32.5212 16.7156 32.5475 16.7962 32.599C16.8744 32.6597 16.9318 32.742 16.9611 32.8352C17.0006 32.9412 17.0203 33.0532 17.0193 33.1659C17.0215 33.2818 17.0017 33.3972 16.9611 33.5061Z"  />
<path d="M19.4936 32.2314C19.327 32.1345 19.1345 32.0884 18.9407 32.0992C18.7469 32.0884 18.5539 32.1345 18.3873 32.2314C18.234 32.3226 18.1101 32.4535 18.0286 32.6094C17.9392 32.7854 17.8955 32.9801 17.9021 33.1764C17.8955 33.3726 17.9392 33.5674 18.0286 33.7434C18.1101 33.8993 18.234 34.0301 18.3873 34.1213C18.554 34.219 18.7462 34.2682 18.9407 34.263C19.1352 34.2682 19.3269 34.219 19.4936 34.1213C19.6469 34.0301 19.7713 33.8993 19.8527 33.7434C19.9421 33.5674 19.9853 33.3726 19.9787 33.1764C19.9853 32.9801 19.9421 32.7854 19.8527 32.6094C19.7713 32.4535 19.6469 32.3226 19.4936 32.2314ZM19.377 33.5166C19.3478 33.6097 19.2904 33.6921 19.2122 33.7528C19.138 33.818 19.0405 33.852 18.9407 33.8473C18.8409 33.852 18.7429 33.818 18.6687 33.7528C18.5874 33.6949 18.5292 33.6115 18.5038 33.5166C18.4632 33.4076 18.4434 33.2923 18.4456 33.1764C18.4434 33.0605 18.4632 32.9452 18.5038 32.8362C18.5318 32.7399 18.5893 32.6541 18.6687 32.5905C18.7462 32.5319 18.8427 32.5019 18.9407 32.5055C19.0387 32.5019 19.1347 32.5319 19.2122 32.5905C19.2887 32.6566 19.3456 32.7414 19.377 32.8362C19.4177 32.9452 19.4375 33.0605 19.4353 33.1764C19.4375 33.2923 19.4177 33.4076 19.377 33.5166Z"  />
<path d="M22.4045 32.1172H22.2687L21.6477 33.6196L21.0461 32.1172H20.92H20.6289H20.396V34.2149H20.92V32.8448L21.4633 34.2149H21.8321L22.4045 32.8164V34.2149H22.9188V32.1172H22.6956H22.4045Z"  />
<path d="M26.14 31.6833C26.0392 31.5826 25.9164 31.5051 25.7809 31.4565C25.651 31.4069 25.5129 31.3813 25.3734 31.3809C25.1817 31.3791 24.9924 31.4212 24.8205 31.5038C24.6675 31.5859 24.5398 31.7066 24.4514 31.8534C24.3643 32.0029 24.3208 32.1728 24.3254 32.3447C24.3213 32.5094 24.3615 32.6723 24.442 32.8172C24.5207 32.9477 24.6306 33.0579 24.7622 33.1385C24.8975 33.2154 25.0519 33.2546 25.2085 33.2518C25.3083 33.2662 25.4097 33.2662 25.5094 33.2518C25.598 33.2229 25.6803 33.178 25.752 33.1195C25.8261 33.062 25.8886 32.9915 25.9363 32.9117C25.949 33.1491 25.8919 33.3852 25.7714 33.592C25.7289 33.6702 25.6638 33.7349 25.5847 33.7785C25.5056 33.822 25.4154 33.8426 25.3246 33.8377C25.2207 33.8411 25.1186 33.8113 25.0337 33.7527C24.9535 33.6875 24.8985 33.5974 24.8783 33.4975H24.3354C24.3526 33.6461 24.4055 33.7886 24.4903 33.9133C24.5783 34.0368 24.6989 34.1348 24.8395 34.1968C24.9892 34.2718 25.1564 34.3076 25.3246 34.3007C25.4885 34.3052 25.6514 34.2729 25.8003 34.2062C25.9412 34.1322 26.0639 34.029 26.1594 33.9038C26.2618 33.7591 26.3401 33.5997 26.3921 33.4314C26.4446 33.2211 26.4708 33.0053 26.4698 32.7888C26.4776 32.5707 26.4446 32.353 26.3726 32.1463C26.3354 31.9756 26.2556 31.8166 26.14 31.6833ZM25.8586 32.5337C25.8287 32.5929 25.7893 32.6471 25.742 32.6943C25.6935 32.7404 25.6379 32.7787 25.5772 32.8078C25.5099 32.8207 25.4407 32.8207 25.3734 32.8078C25.2805 32.8075 25.1895 32.7813 25.1114 32.7322C25.0364 32.6872 24.9733 32.6257 24.9271 32.5526C24.8807 32.4719 24.8569 32.3805 24.8589 32.288C24.856 32.1954 24.8798 32.1038 24.9271 32.0235C24.9729 31.9476 25.036 31.8829 25.1114 31.8345C25.1905 31.7887 25.2814 31.7657 25.3734 31.7683C25.4686 31.7644 25.5628 31.7874 25.6449 31.8345C25.7204 31.8829 25.7834 31.9476 25.8292 32.0235C25.8669 32.1035 25.8868 32.1905 25.8875 32.2786C25.9007 32.3647 25.8909 32.4526 25.8586 32.5337Z"  />
<path d="M28.6244 31.5514C28.4472 31.4346 28.2366 31.3751 28.0227 31.3813C27.8088 31.3751 27.5982 31.4346 27.421 31.5514C27.2437 31.6733 27.1085 31.8446 27.0329 32.0428C26.9374 32.2935 26.8912 32.5596 26.897 32.827C26.8919 33.0913 26.9382 33.3542 27.0329 33.6019C27.1057 33.804 27.2413 33.9791 27.421 34.1027C27.5982 34.2195 27.8088 34.279 28.0227 34.2728C28.2366 34.279 28.4472 34.2195 28.6244 34.1027C28.7989 33.9779 28.9333 33.8075 29.0124 33.6113C29.1071 33.3603 29.1533 33.0944 29.1484 32.827C29.1533 32.5597 29.1071 32.2938 29.0124 32.0428C28.9333 31.8465 28.7989 31.6762 28.6244 31.5514ZM28.4401 33.5735C28.4011 33.6491 28.3412 33.7128 28.2676 33.7578C28.1941 33.8028 28.1095 33.8273 28.0227 33.8286C27.9112 33.8296 27.8036 33.789 27.7218 33.7152C27.6236 33.6234 27.5558 33.5049 27.5276 33.3751C27.4714 33.1978 27.4486 33.0122 27.4598 32.827C27.4444 32.5703 27.4943 32.3139 27.6053 32.0805C27.6447 32.006 27.7046 31.9436 27.7782 31.9003C27.8519 31.8569 27.9366 31.8343 28.0227 31.8348C28.133 31.8303 28.2408 31.8676 28.3235 31.9388C28.4187 32.0329 28.4855 32.1505 28.5173 32.279C28.5685 32.4572 28.5917 32.642 28.5855 32.827C28.6101 33.0814 28.57 33.3378 28.469 33.5735H28.4401Z"  />
<path d="M31.2826 31.5514C31.1054 31.4346 30.8948 31.3751 30.6809 31.3813C30.4673 31.3769 30.2577 31.4363 30.0797 31.5514C29.9077 31.6786 29.7733 31.8482 29.6912 32.0428C29.5956 32.2935 29.5499 32.5596 29.5557 32.827C29.5506 33.0913 29.5964 33.3542 29.6912 33.6019C29.7672 33.8023 29.9025 33.9765 30.0797 34.1027C30.2569 34.2195 30.467 34.279 30.6809 34.2728C30.8948 34.279 31.1054 34.2195 31.2826 34.1027C31.4599 33.9807 31.5951 33.8094 31.6706 33.6113C31.7701 33.3616 31.8164 33.0947 31.8066 32.827C31.8164 32.5593 31.7701 32.2925 31.6706 32.0428C31.5951 31.8446 31.4599 31.6733 31.2826 31.5514ZM31.0983 33.5735C31.0593 33.6491 30.9999 33.7128 30.9263 33.7578C30.8528 33.8028 30.7677 33.8273 30.6809 33.8286C30.5695 33.8296 30.4623 33.789 30.3805 33.7152C30.2888 33.6186 30.2221 33.502 30.1863 33.3751C30.1351 33.1968 30.1123 33.012 30.1185 32.827C30.1008 32.5691 30.1541 32.3114 30.2734 32.0805C30.3094 32.0053 30.3673 31.942 30.4397 31.8983C30.5122 31.8547 30.5958 31.8326 30.6809 31.8348C30.7912 31.8303 30.8991 31.8676 30.9818 31.9388C31.0801 32.0321 31.1505 32.1497 31.1855 32.279C31.232 32.4581 31.2551 32.6423 31.2537 32.827C31.2665 33.0845 31.213 33.3412 31.0983 33.5735Z"  />
<path d="M32.9417 31.418L32.2236 31.8621V32.3534L32.8932 31.9377H32.9126V34.2149H33.4559V31.418H32.9417Z"  />
</svg>
