<svg width="36" height="35" viewBox="0 0 36 35"  xmlns="http://www.w3.org/2000/svg">
<path d="M17.9508 0.000125786C15.5934 -0.00859918 13.2574 0.436655 11.0774 1.3103C8.89734 2.18394 6.91621 3.46874 5.24792 5.09074C3.57963 6.71275 2.25714 8.63999 1.35649 10.7616C0.455837 12.8831 -0.00509106 15.1572 4.24117e-05 17.4529C-0.00506373 19.7451 0.454246 22.0157 1.35175 24.1347C2.24926 26.2538 3.56714 28.1794 5.23016 29.8016C6.89317 31.4237 8.86855 32.7104 11.043 33.5879C13.2175 34.4653 15.5485 34.9163 17.9022 34.9151C20.2595 34.9188 22.5942 34.4699 24.7731 33.594C26.952 32.7181 28.9322 31.4325 30.6004 29.8106C32.2686 28.1887 33.592 26.2624 34.4949 24.142C35.3979 22.0215 35.8627 19.7485 35.8627 17.4529C35.8602 12.8266 33.9724 8.39024 30.6141 5.11802C27.2558 1.84581 22.7015 0.00513199 17.9508 0.000125786ZM17.9508 34.1025C15.7023 34.1025 13.4759 33.6705 11.3991 32.8315C9.32225 31.9924 7.43584 30.7626 5.84773 29.2126C4.25963 27.6625 3.00107 25.8226 2.14416 23.7982C1.28724 21.7738 0.848699 19.6047 0.853803 17.4151C0.866641 13.0067 2.6732 8.78296 5.87782 5.66927C9.08244 2.55558 13.4239 0.805829 17.9508 0.803346C22.4852 0.803346 26.8336 2.55748 30.0399 5.67988C33.2462 8.80228 35.0476 13.0372 35.0476 17.4529C35.0489 19.6421 34.6067 21.81 33.7461 23.8324C32.8855 25.8549 31.6235 27.6921 30.0326 29.2387C28.4416 30.7854 26.5531 32.0112 24.4748 32.8458C22.3966 33.6804 20.1697 34.1074 17.9217 34.1025H17.9508Z"  />
<path d="M6.27795 17.4812C6.27795 20.4885 7.50463 23.3726 9.68826 25.4991C11.8719 27.6256 14.8336 28.8203 17.9217 28.8203C21.0098 28.8203 23.9713 27.6256 26.1549 25.4991C28.3385 23.3726 29.5654 20.4885 29.5654 17.4812C29.5654 14.4739 28.3385 11.5897 26.1549 9.46322C23.9713 7.33673 21.0098 6.14209 17.9217 6.14209C14.8336 6.14209 11.8719 7.33673 9.68826 9.46322C7.50463 11.5897 6.27795 14.4739 6.27795 17.4812ZM17.9217 6.48231C19.4011 6.48231 20.8659 6.76604 22.2327 7.31736C23.5994 7.86869 24.8414 8.67676 25.8874 9.69548C26.9335 10.7142 27.7632 11.9236 28.3293 13.2546C28.8955 14.5856 29.1869 16.0122 29.1869 17.4529C29.1869 18.8935 28.8955 20.3201 28.3293 21.6511C27.7632 22.9821 26.9335 24.1915 25.8874 25.2102C24.8414 26.2289 23.5994 27.037 22.2327 27.5883C20.8659 28.1396 19.4011 28.4234 17.9217 28.4234C14.9339 28.4234 12.0684 27.2676 9.95571 25.2102C7.84305 23.1528 6.65627 20.3624 6.65627 17.4529C6.65884 14.5441 7.84645 11.7551 9.95855 9.69824C12.0707 7.64141 14.9347 6.48481 17.9217 6.48231Z"  />
<path d="M14.4188 31.513C14.4188 30.7476 14.4188 29.9633 14.3605 29.179L13.3902 28.9333C13.0409 30.0106 12.7015 31.0594 12.3716 32.1272L13.0605 32.2879C13.3127 31.4563 13.5553 30.6342 13.8076 29.8216C13.8076 30.6909 13.8074 31.5508 13.8657 32.4201L14.4479 32.5619L15.7869 30.3791L15.2631 32.8264L15.9908 33.006C16.0685 32.6186 16.1461 32.2595 16.214 31.9004L16.4177 30.8043C16.4856 30.4453 16.5729 30.0862 16.6117 29.7177L15.6414 29.4909L14.4188 31.513Z"  />
<path d="M25.1988 27.4402C25.201 27.4622 25.201 27.4844 25.1988 27.5063L26.3145 29.1694C26.3145 29.2166 26.4116 29.2639 26.3631 29.3394L26.1788 29.2167C25.8974 29.0466 25.6062 28.867 25.3151 28.7064C25.024 28.5457 24.6069 28.3284 24.2479 28.1394C24.2479 28.1394 24.141 28.0638 24.0731 28.1394L23.3647 28.5835L25.1696 31.4183L25.7808 31.0498C25.3345 30.3695 24.898 29.708 24.4613 29.0277L26.8774 30.3789L27.576 29.9537L25.7614 27.1189L25.1988 27.4402Z"  />
<path d="M26.3051 8.58062C26.5679 8.86841 26.8756 9.11399 27.2171 9.30823C27.4485 9.43402 27.709 9.50006 27.974 9.50006C28.239 9.50006 28.4995 9.43402 28.7309 9.30823C29.0655 9.13814 29.3471 8.88355 29.546 8.57116C29.6255 8.45214 29.6844 8.32131 29.7206 8.18377C29.7764 7.97699 29.7854 7.76083 29.7469 7.55034C29.7084 7.33986 29.6232 7.14004 29.4975 6.96478C29.1845 6.53566 28.8086 6.15366 28.3817 5.83092L28.2554 5.74585L25.8394 8.03255L26.3051 8.58062ZM28.4009 6.69077C28.6535 6.84583 28.8503 7.07374 28.9637 7.34277C29.0166 7.4454 29.0443 7.55863 29.0443 7.67347C29.0443 7.78832 29.0166 7.9016 28.9637 8.00423C28.8069 8.32458 28.5338 8.57703 28.1971 8.71293C28.0235 8.78566 27.8318 8.8074 27.6457 8.7755C27.4595 8.74361 27.2871 8.65946 27.1494 8.53339L26.8097 8.23101C27.3239 7.70185 27.8672 7.21048 28.4009 6.69077Z"  />
<path d="M9.3925 27.9519C9.04867 28.238 8.80458 28.621 8.69391 29.048C8.61239 29.3447 8.62918 29.6589 8.74223 29.9457C8.84535 30.1785 9.00247 30.385 9.20109 30.5489C9.39972 30.7128 9.63463 30.8297 9.88737 30.8906C10.1535 30.9662 10.4361 30.9662 10.7023 30.8906C11.1053 30.7519 11.4551 30.4966 11.7048 30.1588C11.9546 29.821 12.0925 29.4169 12.0997 29.0007C12.0962 28.7929 12.0466 28.5882 11.9545 28.4007C11.8624 28.2132 11.7299 28.0472 11.566 27.9141C11.2633 27.657 10.8734 27.5184 10.4718 27.5254C10.0702 27.5324 9.68555 27.6844 9.3925 27.9519ZM10.5083 30.2386C10.385 30.3129 10.2409 30.3474 10.0963 30.3372C9.95171 30.327 9.81411 30.2727 9.70307 30.1819C9.59114 30.0986 9.50603 29.9858 9.45789 29.8569C9.40974 29.7279 9.40054 29.5882 9.43135 29.4543C9.49754 29.047 9.71926 28.6791 10.0522 28.4244C10.1457 28.3359 10.2602 28.2715 10.3856 28.2369C10.5109 28.2022 10.6431 28.1984 10.7703 28.2259C11.1099 28.3109 11.3428 28.585 11.3137 29.1047C11.2729 29.3334 11.1791 29.5501 11.0396 29.7384C10.9001 29.9267 10.7183 30.0816 10.5083 30.1914V30.2386Z"  />
<path d="M13.2155 6.29261C13.0603 5.8674 12.905 5.47053 12.7498 5.05477L13.0798 4.96024C13.1481 4.93462 13.2226 4.92997 13.2937 4.94686C13.3648 4.96375 13.429 5.0014 13.4775 5.05477C13.5408 5.11648 13.5992 5.18278 13.6521 5.25316C13.7588 5.3949 13.8559 5.54612 13.9627 5.69731L14.1761 5.943L14.9038 5.67839L14.3507 4.92246C14.2792 4.80252 14.1827 4.69852 14.0674 4.61714C13.9521 4.53576 13.8206 4.47881 13.6812 4.45L13.7978 4.30824C13.8912 4.1899 13.9522 4.05056 13.9757 3.90308C13.9992 3.7556 13.9841 3.60473 13.9319 3.46442C13.8797 3.32411 13.792 3.19892 13.677 3.10032C13.5619 3.00173 13.4233 2.93292 13.2738 2.90031C13.1227 2.87665 12.9688 2.87665 12.8178 2.90031C12.3067 3.01405 11.816 3.20201 11.3623 3.45784C11.7504 4.46891 12.1385 5.48941 12.5363 6.50993L13.2155 6.29261ZM12.7886 3.45784C12.874 3.44654 12.9607 3.46251 13.036 3.5034C13.1112 3.5443 13.1709 3.60791 13.2058 3.68461C13.2617 3.75675 13.292 3.84467 13.292 3.93503C13.292 4.0254 13.2617 4.11326 13.2058 4.18539C13.139 4.25748 13.0603 4.31817 12.9729 4.36493C12.8485 4.42665 12.7187 4.47729 12.5849 4.51615L12.2452 3.6657C12.411 3.57022 12.5967 3.51211 12.7886 3.49562V3.45784Z"  />
<path d="M20.9004 29.3311C20.9004 30.4933 20.9004 31.6461 20.9004 32.8178L21.6573 32.6005V31.7312L22.6276 31.4666C22.8022 31.7217 22.9575 31.9674 23.1322 32.2131L23.9279 31.9958C23.2584 31.0508 22.6083 30.0398 21.9873 29.0759L20.9004 29.3311ZM21.5604 31.1453C21.5604 30.6823 21.5604 30.2004 21.5604 29.7468L22.3172 30.9374L21.5604 31.1453Z"  />
<path d="M12.0124 6.8224L11.6533 6.3121L10.4889 7.07749C10.3337 6.85071 10.1882 6.64287 10.0426 6.41609L11.0809 5.73571C10.9645 5.55618 10.8479 5.39556 10.7315 5.22547L9.68374 5.90579L9.29547 5.3294C9.66419 5.08372 10.0233 4.84748 10.4018 4.61125C10.2756 4.43171 10.1688 4.26164 10.0426 4.09155L8.29602 5.24433L10.2366 8.01301L12.0124 6.8224Z"  />
<path d="M25.393 7.76734L25.7227 7.23819L24.5195 6.52003C24.6748 6.2838 24.8108 6.0759 24.9466 5.84912L26.0236 6.48226L26.3438 5.9625L25.8101 5.64126L25.2764 5.31996L25.6452 4.73411L26.7901 5.41449C26.8969 5.2255 27.0037 5.06487 27.1201 4.88533L25.3153 3.80811C24.7234 4.75303 24.1316 5.69795 23.53 6.64288L25.393 7.76734Z"  />
<path d="M19.3287 29.7375C19.2127 29.6976 19.092 29.6722 18.9695 29.6619H18.7949H18.3486C18.1276 29.6661 17.9072 29.685 17.6889 29.7186H17.4946L17.6695 32.9975H18.0575H18.436V32.9502C18.436 32.5722 18.436 32.1942 18.3681 31.8257C18.5938 31.8328 18.8194 31.8074 19.0375 31.7502C19.3265 31.6947 19.5889 31.5487 19.7847 31.3344C19.8857 31.196 19.9552 31.0381 19.9884 30.8714C20.0375 30.6367 19.9979 30.3925 19.8766 30.1841C19.7553 29.9757 19.5607 29.8171 19.3287 29.7375ZM18.9598 31.1359C18.7581 31.2419 18.5257 31.2785 18.3001 31.2399C18.3001 30.8997 18.3 30.5879 18.2418 30.2949C18.4175 30.2271 18.6098 30.2107 18.7949 30.2477C18.8942 30.2607 18.9865 30.3045 19.0581 30.3726C19.1298 30.4407 19.1769 30.5294 19.1927 30.6257C19.2077 30.7235 19.1939 30.8235 19.1526 30.9138C19.1114 31.0042 19.0445 31.0813 18.9598 31.1359Z"  />
<path d="M7.16056 9.38414C7.3795 9.50506 7.62688 9.56863 7.87858 9.56863C8.13028 9.56863 8.37767 9.50506 8.5966 9.38414C9.061 9.14784 9.43274 8.76935 9.65433 8.30697C9.6598 8.27252 9.6598 8.23742 9.65433 8.20298L9.13032 7.88174C9.02819 8.11273 8.87979 8.3215 8.69373 8.49591C8.53479 8.66173 8.31982 8.76639 8.08823 8.79068C7.85664 8.81496 7.62383 8.75727 7.43228 8.62821C7.24492 8.51191 7.08597 8.35712 6.96655 8.17466C6.87525 8.03312 6.82678 7.86936 6.82678 7.7022C6.82678 7.53505 6.87525 7.37129 6.96655 7.22974C7.10328 6.9897 7.30439 6.79045 7.54859 6.65335L7.69428 6.55882C7.57784 6.38874 7.47102 6.21867 7.36429 6.04858C6.81987 6.3027 6.39871 6.75358 6.19025 7.30535C6.05898 7.65629 6.05898 8.04104 6.19025 8.39198C6.37486 8.82926 6.72107 9.18325 7.16056 9.38414Z"  />
<path d="M9.1015 27.0069C9.1015 27.0069 9.1501 27.1014 9.18891 27.1581L9.75153 26.8558C9.62688 26.5703 9.44398 26.3125 9.21378 26.0981C8.98358 25.8836 8.71101 25.7171 8.41261 25.6085C8.2139 25.5413 8.0033 25.5133 7.79338 25.5263C7.58345 25.5393 7.3784 25.5929 7.19001 25.684C6.8403 25.8472 6.54438 26.1026 6.33601 26.4211C6.18758 26.6307 6.09872 26.8748 6.07827 27.1287C6.05783 27.3826 6.10664 27.6372 6.2197 27.8668C6.38269 28.2092 6.62918 28.5077 6.93772 28.7362C7.05976 28.8405 7.19704 28.9265 7.34517 28.9913L7.7043 28.5094L7.52948 28.396C7.32905 28.2669 7.15766 28.0998 7.02513 27.9046C6.91162 27.7539 6.85031 27.5719 6.85031 27.3849C6.85031 27.198 6.91162 27.0159 7.02513 26.8652C7.17137 26.6379 7.37955 26.4546 7.6266 26.336C7.77172 26.2718 7.93088 26.2434 8.08997 26.2533C8.24905 26.2632 8.40309 26.311 8.53864 26.3927C8.78375 26.5396 8.97946 26.7531 9.1015 27.0069Z"  />
<path d="M20.6193 4.32762C21.0268 4.40322 21.4149 4.50716 21.8225 4.56385C21.8225 4.35597 21.9097 4.17644 21.9485 3.978L20.7453 3.72286L20.9199 2.97639L22.2008 3.25039C22.2493 3.04251 22.288 2.84406 22.3365 2.64563L20.2893 2.22046C20.0564 3.31657 19.8042 4.39374 19.5713 5.4804L20.3282 5.63162L20.6193 4.32762Z"  />
<path d="M28.721 26.7611C28.5561 26.2131 28.3717 25.665 28.197 25.117C28.197 25.013 28.1292 24.8996 28.0807 24.7673L27.479 25.391C27.7022 25.854 27.9158 26.3359 28.1293 26.7895L26.6447 26.2509L26.043 26.8745H26.111L28.0516 27.3942C28.1635 27.4166 28.2655 27.4728 28.3427 27.5549L28.789 27.9612L29.245 28.377C29.4391 28.188 29.6041 28.0084 29.7788 27.8289L28.8085 26.9784C28.7647 26.9124 28.7349 26.8385 28.721 26.7611Z"  />
<path d="M15.6901 2.872C15.8066 3.81693 15.9229 4.66732 16.0393 5.5461L16.8059 5.45163C16.6895 4.5067 16.5829 3.67515 16.4664 2.77748L17.4368 2.65463L17.3493 2.03101L14.7393 2.35225C14.7393 2.56958 14.7973 2.76804 14.8264 2.96647L15.6901 2.872Z"  />
<path d="M19.0569 2.07983H18.2807C18.2321 3.17595 18.1837 4.27206 18.1255 5.38707H18.9018C18.96 4.32875 19.0084 3.20429 19.0569 2.07983Z"  />
<path d="M22.8992 6.39658C23.3262 5.35716 23.7532 4.33663 24.1704 3.30666L23.4524 3.02319C23.0254 4.06261 22.5984 5.08316 22.1909 6.12257C22.4335 6.21707 22.6858 6.31154 22.8992 6.39658Z"  />
<path d="M17.9312 28.0166C19.3533 28.0178 20.7616 27.7462 22.0759 27.2174C23.3902 26.6886 24.5845 25.913 25.5909 24.9346C26.5974 23.9563 27.3962 22.7944 27.9416 21.5155C28.487 20.2365 28.7683 18.8655 28.7695 17.4806C28.7721 14.688 27.6361 12.0086 25.6111 10.0312C23.586 8.05386 20.8375 6.94031 17.9699 6.9353C15.1047 6.9353 12.3569 8.04302 10.3301 10.0151C8.30322 11.9871 7.16326 14.6622 7.16068 17.4523C7.15294 20.2434 8.28281 22.9233 10.3021 24.904C12.3214 26.8846 15.0652 28.0041 17.9312 28.0166ZM17.7953 21.9879C17.7496 22.1394 17.6552 22.2726 17.5259 22.3678C17.3967 22.4631 17.2393 22.5154 17.0772 22.5171C16.8968 22.5474 16.7111 22.5183 16.5494 22.4345C16.3878 22.3507 16.2595 22.2168 16.1846 22.0541C16.0567 21.7552 15.9971 21.4328 16.01 21.1092C16.0009 20.7859 16.0603 20.4642 16.1846 20.1642C16.2495 20.0254 16.3549 19.9083 16.4879 19.8277C16.6208 19.747 16.7752 19.7063 16.9318 19.7107C17.0914 19.6984 17.2512 19.731 17.3923 19.8047C17.5334 19.8784 17.6496 19.9901 17.7273 20.1264C17.8389 20.348 17.905 20.5888 17.9215 20.8351C17.981 21.2209 17.9511 21.6148 17.8341 21.9879H17.7953ZM21.8028 22.4793H21.2302V20.4572L20.7353 20.8446C20.6383 20.7406 20.5509 20.6273 20.4539 20.5139C20.6674 20.3438 20.881 20.1926 21.075 20.013C21.1674 19.9295 21.2794 19.8694 21.4012 19.8381C21.5231 19.8068 21.651 19.8052 21.7736 19.8335L21.8028 22.4793ZM19.9882 14.9199C20.0131 14.6255 20.0683 14.3342 20.1531 14.0506C20.2578 13.6532 20.4753 13.2927 20.7808 13.0102C21.0863 12.7278 21.4674 12.5349 21.8802 12.4536C22.5745 12.2836 23.3014 12.2836 23.9957 12.4536C24.403 12.5472 24.7741 12.7528 25.0648 13.046C25.3555 13.3392 25.5536 13.7075 25.6355 14.1072C25.7295 14.4555 25.7719 14.8151 25.7615 15.175C25.7808 15.6494 25.6981 16.1226 25.5189 16.5641C25.3958 16.8933 25.193 17.1888 24.9279 17.4257C24.6627 17.6625 24.3431 17.8337 23.9957 17.9248C23.206 18.1658 22.3596 18.1658 21.5699 17.9248C21.194 17.8172 20.856 17.6101 20.5939 17.3264C20.3318 17.0428 20.1557 16.6938 20.0853 16.3184C19.9725 15.8512 19.9396 15.3691 19.9882 14.8916V14.9199ZM19.9105 20.1926C20.0427 20.4174 20.1162 20.6706 20.1242 20.9296C20.1684 21.2989 20.1286 21.6731 20.0076 22.0257C19.9564 22.1732 19.8602 22.3019 19.7319 22.3948C19.6036 22.4876 19.4493 22.5402 19.2896 22.5455C19.1139 22.5758 18.9328 22.5497 18.7736 22.4714C18.6144 22.393 18.4858 22.2665 18.4067 22.1108C18.2955 21.8733 18.2358 21.6159 18.2319 21.3549C18.2272 21.3014 18.2272 21.2476 18.2319 21.1942C18.2165 20.8713 18.2729 20.549 18.397 20.2493C18.4626 20.1137 18.5672 19.9996 18.6981 19.9208C18.8289 19.842 18.9806 19.8018 19.1344 19.8052C19.2854 19.7875 19.4384 19.8119 19.5757 19.8755C19.7131 19.939 19.8291 20.0391 19.9105 20.1642V20.1926ZM14.3797 16.0349L15.0589 15.9782C15.0534 16.0474 15.0534 16.1169 15.0589 16.1861C15.0972 16.3968 15.1906 16.5945 15.3299 16.7599C15.4693 16.9254 15.6499 17.0532 15.8546 17.131C16.29 17.3069 16.7641 17.372 17.2324 17.32C17.3903 17.3022 17.5463 17.2706 17.6984 17.2255C17.8566 17.1754 17.989 17.0681 18.0684 16.9257C18.1478 16.7833 18.1682 16.6167 18.1253 16.4602C18.1137 16.3953 18.0853 16.3343 18.0428 16.283C18.0004 16.2318 17.9453 16.192 17.8827 16.1672C17.6384 16.0391 17.3719 15.9558 17.0967 15.9215C16.6376 15.8671 16.1836 15.7786 15.7383 15.6569C15.4506 15.5789 15.1783 15.4543 14.9329 15.2884C14.7665 15.1681 14.6296 15.0133 14.5323 14.8351C14.435 14.657 14.3795 14.46 14.37 14.2585C14.3312 14.0206 14.3312 13.7782 14.37 13.5403C14.4072 13.341 14.4902 13.1524 14.6128 12.9887C14.7355 12.8251 14.8947 12.6906 15.0783 12.5954C15.3745 12.432 15.7083 12.3442 16.0487 12.3402C16.5703 12.2886 17.097 12.3633 17.5818 12.5576L17.8341 12.671C17.8814 12.7038 17.9356 12.7257 17.9928 12.7354C18.0501 12.745 18.1089 12.742 18.1648 12.7265C18.2207 12.7111 18.2722 12.6837 18.3157 12.6463C18.3593 12.6088 18.3937 12.5624 18.4164 12.5103V12.4442H18.9984V14.3341L18.329 14.4002C18.329 14.334 18.3289 14.2679 18.2804 14.2112C18.2141 13.9691 18.0769 13.7509 17.8858 13.5832C17.6946 13.4154 17.4577 13.3054 17.2035 13.2663C16.8426 13.1865 16.4678 13.1865 16.1069 13.2663C15.9703 13.2969 15.8395 13.3479 15.7189 13.4175C15.6508 13.4603 15.5947 13.5191 15.5559 13.5884C15.5172 13.6577 15.4969 13.7354 15.4969 13.8143C15.4969 13.8933 15.5172 13.971 15.5559 14.0403C15.5947 14.1096 15.6508 14.1684 15.7189 14.2112C15.9223 14.3354 16.1505 14.416 16.3884 14.4475C16.8444 14.542 17.3004 14.6175 17.7467 14.7215C18.1172 14.7848 18.4666 14.9339 18.7656 15.1562C18.9161 15.2706 19.0418 15.413 19.1351 15.5753C19.2284 15.7375 19.2875 15.9163 19.309 16.1011C19.343 16.3267 19.343 16.5558 19.309 16.7814C19.2507 17.0652 19.1155 17.3287 18.9177 17.5447C18.7198 17.7606 18.4665 17.9212 18.1835 18.0098C17.9021 18.1033 17.6074 18.1544 17.3101 18.161C16.8144 18.1937 16.3175 18.1195 15.8546 17.9436C15.7473 17.8907 15.6374 17.8434 15.5249 17.8019C15.487 17.7776 15.444 17.7616 15.3991 17.7552C15.3542 17.7487 15.3085 17.7519 15.265 17.7645C15.2215 17.7771 15.1814 17.7988 15.1475 17.8281C15.1136 17.8574 15.0866 17.8937 15.0686 17.9342L15.0009 18.0476H14.312L14.3797 16.0349ZM13.8268 20.4572C13.8778 20.2525 14.0056 20.0738 14.1853 19.9566C14.3649 19.8394 14.5834 19.7921 14.7972 19.8241C15.0097 19.8284 15.2137 19.9056 15.3735 20.0422C15.5333 20.1788 15.6384 20.3659 15.6703 20.5706C15.7804 20.987 15.7532 21.4267 15.5926 21.8273C15.5216 22.026 15.3914 22.1995 15.2186 22.3257C15.0458 22.452 14.8381 22.5252 14.6223 22.536C14.4188 22.5503 14.2146 22.5503 14.0111 22.536V22.0824C14.163 22.0917 14.3153 22.0917 14.4672 22.0824C14.5684 22.0859 14.6692 22.068 14.7626 22.0299C14.8559 21.9917 14.9395 21.9342 15.0077 21.8614C15.076 21.7886 15.1273 21.7022 15.1579 21.6082C15.1886 21.5142 15.1979 21.4149 15.1852 21.317H15.1366C15.0469 21.4252 14.9254 21.504 14.7884 21.5429C14.6513 21.5817 14.5053 21.5788 14.37 21.5344C14.2471 21.5113 14.1335 21.4546 14.0424 21.3709C13.9514 21.2872 13.8866 21.1801 13.8557 21.0619C13.7773 20.8462 13.7674 20.6124 13.8268 20.391V20.4572ZM10.8285 17.4051H11.1488L11.3428 17.3389C11.3938 17.3207 11.4372 17.2869 11.4669 17.2427C11.4966 17.1984 11.511 17.146 11.5077 17.0932V13.5875C11.5077 13.3041 11.4302 13.2096 11.1391 13.1623H10.8285V12.5859H13.7394V13.1623C13.6264 13.1527 13.5127 13.1527 13.3997 13.1623C13.352 13.1646 13.3054 13.1764 13.2626 13.197C13.2197 13.2175 13.1817 13.2464 13.1507 13.2818C13.1198 13.3172 13.0967 13.3584 13.0828 13.4029C13.0688 13.4473 13.0646 13.4941 13.07 13.5403C13.07 14.7026 13.07 15.8554 13.07 17.0176C13.0631 17.0621 13.0658 17.1074 13.078 17.1507C13.0903 17.194 13.1118 17.2343 13.141 17.269C13.1703 17.3038 13.2067 17.3321 13.2479 17.3523C13.2891 17.3725 13.3342 17.384 13.3803 17.3862C13.4967 17.3862 13.6133 17.3862 13.7394 17.4429V18.0192H10.8285V17.4051Z"  />
<path d="M21.832 16.7442C21.8917 16.8611 21.9776 16.9634 22.0834 17.0436C22.1892 17.1237 22.3122 17.1797 22.4432 17.2072C22.6173 17.2263 22.7931 17.2263 22.9672 17.2072C23.2451 17.2187 23.5171 17.1279 23.7293 16.9527C23.9415 16.7776 24.0782 16.5311 24.1121 16.2623C24.1747 15.9792 24.2138 15.6916 24.2287 15.4024C24.2287 15.1283 24.2287 14.8449 24.2287 14.5709C24.2085 14.3067 24.1528 14.0463 24.0636 13.796C24.011 13.5976 23.8938 13.4211 23.7293 13.2932C23.5648 13.1654 23.3619 13.0932 23.1515 13.0873C22.825 13.0227 22.4853 13.0854 22.2059 13.2622C21.9264 13.4389 21.7294 13.7155 21.6572 14.0323C21.5869 14.3428 21.548 14.6593 21.5409 14.9772C21.5409 15.2418 21.5407 15.5158 21.5989 15.7709C21.6075 16.1074 21.687 16.4386 21.832 16.7442Z"  />
<path d="M14.6612 21.1286C14.7485 21.145 14.8389 21.1325 14.918 21.0932C14.9972 21.0538 15.0604 20.9897 15.0978 20.9112C15.1409 20.8025 15.1451 20.6828 15.1099 20.5714C15.0747 20.46 15.0022 20.3634 14.9038 20.297C14.8615 20.2715 14.814 20.2554 14.7645 20.2498C14.7151 20.2442 14.6651 20.2492 14.6179 20.2645C14.5707 20.2798 14.5275 20.3051 14.4914 20.3384C14.4553 20.3718 14.4271 20.4125 14.409 20.4576C14.3828 20.5282 14.3633 20.6009 14.3507 20.675C14.354 20.7095 14.354 20.7443 14.3507 20.7789C14.3467 20.8219 14.3518 20.8652 14.3654 20.9062C14.3789 20.9473 14.4008 20.9853 14.4298 21.0179C14.4588 21.0505 14.4943 21.0771 14.534 21.0962C14.5738 21.1152 14.617 21.1262 14.6612 21.1286Z"  />
<path d="M18.8047 21.1576C18.8047 21.6584 18.8822 22.1025 19.183 22.1025C19.4838 22.1025 19.5616 21.6962 19.5616 21.1576C19.5616 20.619 19.4741 20.2126 19.183 20.2126C18.8919 20.2126 18.8047 20.6568 18.8047 21.1576Z"  />
<path d="M16.9708 20.2498C16.67 20.2498 16.6019 20.6561 16.6019 21.1947C16.6019 21.7333 16.67 22.1396 16.9708 22.1396C17.2716 22.1396 17.3491 21.7333 17.3491 21.1947C17.3491 20.6561 17.2619 20.2498 16.9708 20.2498Z"  />
</svg>
