<svg width="30" height="30" viewBox="0 0 27 27"  xmlns="http://www.w3.org/2000/svg">
<path d="M8.94591 0.160621V25.9854C8.94121 26.0136 8.94121 26.0423 8.94591 26.0704C9.13027 26.0704 11.8569 26.0704 11.9151 26.0704V14.5046H14.8841V26.0799H17.863V0H8.94591C8.95562 0.0566955 8.94591 0.113375 8.94591 0.160621ZM11.9346 2.91033H14.8455V11.5847H11.9346V2.91033Z"  />
<path d="M0 26.0799H5.96732V23.1695H3.05639V14.4951H5.96732V11.5847H3.05639V2.90087H6.0256V0H0.048563L0 26.0799Z"  />
<path d="M26.79 2.90087V0H20.8616C20.8573 0.053467 20.8573 0.107154 20.8616 0.160621V25.9854C20.8616 25.9854 20.8616 26.0421 20.8616 26.0704H26.79V23.179H23.8791C23.8791 22.9144 23.8791 2.99536 23.8791 2.90087H26.79Z"  />
</svg>
